<svg id="vectorO" width="18" height="18" viewBox="0 0 18 18" fill="none" xmlns="http://www.w3.org/2000/svg">
<path d="M0.200012 8.56477C0.200012 6.20207 1.00001 4.13472 2.70001 2.46114C4.30001 0.787565 6.40001 0 8.90001 0C11.4 0 13.5 0.787565 15.1 2.46114C16.8 4.13472 17.6 6.10363 17.6 8.56477C17.6 11.0259 16.8 13.0933 15.1 14.7668C13.4 16.4404 11.4 17.3264 8.90001 17.3264C6.40001 17.3264 4.30001 16.4404 2.70001 14.7668C1.00001 13.0933 0.200012 11.0259 0.200012 8.56477ZM2.70001 8.56477C2.70001 10.4352 3.30001 12.0104 4.50001 13.2902C5.70001 14.5699 7.20001 15.1606 9.00001 15.1606C10.8 15.1606 12.3 14.5699 13.5 13.2902C14.7 12.0104 15.3 10.4352 15.3 8.56477C15.3 6.79275 14.7 5.21762 13.5 4.03627C12.3 2.85492 10.8 2.1658 9.00001 2.1658C7.20001 2.1658 5.70001 2.75648 4.50001 4.03627C3.20001 5.21762 2.70001 6.6943 2.70001 8.56477Z" fill="white"/>
</svg>
