<svg id="vectorC" width="16" height="18" viewBox="0 0 16 18" fill="none" xmlns="http://www.w3.org/2000/svg">
<path d="M0 8.56477C0 6.10363 0.8 4.13472 2.4 2.46114C4.1 0.88601 6.1 0 8.6 0C11.2 0 13.2 0.689119 14.8 2.1658L13.6 3.93782C13 3.34715 12.2 2.95337 11.3 2.65803C10.4 2.36269 9.6 2.1658 8.7 2.1658C6.8 2.1658 5.3 2.75648 4.1 3.93782C3 5.21762 2.5 6.6943 2.5 8.56477C2.5 10.4352 3.1 12.0104 4.2 13.2902C5.4 14.5699 6.9 15.1606 8.8 15.1606C9.7 15.1606 10.7 14.9637 11.6 14.5699C12.5 14.1762 13.3 13.6839 14 12.9948L15.3 14.6684C13.5 16.4404 11.3 17.3264 8.7 17.3264C6.1 17.3264 4 16.5389 2.4 14.8653C0.8 13.0933 0 11.0259 0 8.56477Z" fill="white"/>
</svg>
