<?xml version="1.0" encoding="utf-8"?><svg xmlns="http://www.w3.org/2000/svg" xmlns:xlink="http://www.w3.org/1999/xlink"><symbol fill="none" viewBox="0 0 32 32" id="almond" xmlns="http://www.w3.org/2000/svg"><path d="M15.268 23.194a.463.463 0 00-.581.314 5.011 5.011 0 01-4.772 3.553 4.987 4.987 0 01-4.978-4.978c0-3.68 1.294-7.265 3.647-10.096l.792-.952a.695.695 0 01.535-.253c.206 0 .403.094.534.253l.792.952a15.814 15.814 0 013.44 7.537.468.468 0 00.924-.155 16.78 16.78 0 00-3.642-7.982l-.788-.956a1.625 1.625 0 00-1.256-.59c-.487 0-.947.215-1.256.59l-.792.951A16.775 16.775 0 004 22.083a5.921 5.921 0 005.915 5.915 5.869 5.869 0 003.567-1.195 5.974 5.974 0 002.105-3.023.473.473 0 00-.319-.586z" fill="#000"/><path d="M9.69 15.854a.467.467 0 00-.192.633 11.932 11.932 0 011.373 4.687.47.47 0 00.47.431h.037a.468.468 0 00.43-.501 12.697 12.697 0 00-1.48-5.058.47.47 0 00-.638-.192zm.225 8.16a.47.47 0 00.469-.468.47.47 0 00-.469-.469 1 1 0 01-.998-.998c0-.586.042-1.177.131-1.753a.468.468 0 00-.394-.535.468.468 0 00-.534.394c-.094.623-.14 1.26-.14 1.894 0 1.068.867 1.935 1.935 1.935zm0 1.992a3.928 3.928 0 003.923-3.923.47.47 0 00-.468-.468.47.47 0 00-.469.468 2.99 2.99 0 01-2.986 2.986.47.47 0 00-.468.469c0 .258.21.468.468.468zm3.056-6.801a.469.469 0 00.46-.581 14.832 14.832 0 00-1.514-3.83.469.469 0 00-.816.46 13.93 13.93 0 011.42 3.586.46.46 0 00.45.365zM8.11 15.404a.47.47 0 00-.627.216 14.856 14.856 0 00-1.49 6.458c0 .258.21.47.468.47a.47.47 0 00.468-.47c0-2.08.483-4.171 1.397-6.046a.474.474 0 00-.215-.628zm19.884 1.856l-.113-1.233A16.777 16.777 0 0023.053 5.73a5.918 5.918 0 00-8.362 0 5.918 5.918 0 000 8.361 16.784 16.784 0 0010.298 4.833l1.233.113c.052.004.103.004.15.004a1.626 1.626 0 001.622-1.781zm-1.14.642a.703.703 0 01-.557.202l-1.233-.113a15.822 15.822 0 01-9.716-4.56 4.985 4.985 0 010-7.04 4.938 4.938 0 013.52-1.458 4.94 4.94 0 013.52 1.457 15.833 15.833 0 014.56 9.717l.113 1.233a.71.71 0 01-.206.562z" fill="#000"/><path d="M18.863 8.917c.267 0 .516.103.703.29.413.413.802.863 1.149 1.332a.468.468 0 10.754-.558 12.603 12.603 0 00-1.237-1.44 1.918 1.918 0 00-1.369-.566c-.515 0-1.003.201-1.369.567a.467.467 0 10.661.66c.192-.182.446-.285.708-.285zm4.251 4.659a12.023 12.023 0 01-4.288-2.344.468.468 0 10-.61.713 12.72 12.72 0 004.627 2.53.471.471 0 00.586-.314.476.476 0 00-.315-.585zm-1.476-6.44a.467.467 0 10-.661.66 13.933 13.933 0 013.29 5.264.469.469 0 00.6.286.47.47 0 00.291-.595 14.884 14.884 0 00-3.52-5.615zm1.219 8.437a13.716 13.716 0 01-3.54-1.533.465.465 0 00-.641.155.465.465 0 00.154.642 14.69 14.69 0 003.778 1.636.465.465 0 00.576-.323.47.47 0 00-.327-.577zm-6.103-8.437a.467.467 0 00-.661 0 3.932 3.932 0 000 5.55.46.46 0 00.333.135.467.467 0 00.333-.797 2.993 2.993 0 010-4.223.477.477 0 00-.005-.665zm-1.402 13.939a.464.464 0 00-.469.469.464.464 0 00.469.469.464.464 0 00.469-.469.484.484 0 00-.136-.333.472.472 0 00-.333-.136z" fill="#000"/></symbol><symbol fill="none" viewBox="0 0 32 32" id="apitherapy" xmlns="http://www.w3.org/2000/svg"><path d="M4.188 25.55c3.48 2.177 3.25 2.064 3.414 2.064.164 0-.042.094 3.204-1.928 3.25 2.031 3.044 1.928 3.203 1.928.16 0 0 .07 2.617-1.566a.402.402 0 00-.427-.68l-2.195 1.374-2.8-1.75v-2.758l1.464-.914a.402.402 0 00-.427-.68l-1.435.9-2.8-1.75v-2.757l2.8-1.75c1.561.976 1.458.93 1.57.948a.402.402 0 00.446-.244.4.4 0 00-.154-.483l-1.464-.915v-2.758l2.8-1.749 2.8 1.75v.576a.398.398 0 10.798 0v-.576l2.8-1.75 2.8 1.75v2.978a.398.398 0 10.797 0v-3.204a.395.395 0 00-.187-.337l-3.016-1.886V6.4a.395.395 0 00-.188-.337l-3.19-2.003a.402.402 0 00-.421 0l-2.988 1.867-2.992-1.867a.402.402 0 00-.422 0L7.39 6.063a.401.401 0 00-.188.337v2.98l-3.015 1.885a.401.401 0 00-.188.338v3.203c0 .136.07.268.188.338l3.015 1.885v2.758l-3.015 1.886a.401.401 0 00-.188.337v3.204c0 .136.07.262.188.337zm13.02-20.679l2.8 1.75v2.758l-2.8 1.749-2.8-1.75V6.622l2.8-1.75zm-6.402 0l2.8 1.75v2.758l-2.8 1.749-2.8-1.75V6.622l2.8-1.75zm-6.004 6.956l2.8-1.75 2.8 1.75v2.758l-2.8 1.75-2.8-1.75v-2.758zm0 10.403l2.8-1.75 2.8 1.75v2.758l-2.8 1.75-2.8-1.75V22.23z" fill="#000"/><path d="M22.41 16.01v-.403a2.42 2.42 0 00-.84-1.824l.398-.802a.4.4 0 00-.717-.357l-.37.746a2.385 2.385 0 00-1.746 0l-.37-.746a.397.397 0 00-.333-.225.4.4 0 00-.385.582l.399.802a2.395 2.395 0 00-.844 1.824v.404c-.366-.005-.76-.005-1.201-.005-2.125 0-4.404.966-4.404 2.401 0 1.726 3.25 2.631 4.868 2.36-.037.318-.065.755-.065 1.045 0 2.8 1.2 5.038 2.8 5.361v.446a.398.398 0 10.797 0v-.45c1.6-.324 2.8-2.561 2.8-5.361 0-.286-.028-.727-.066-1.042 1.637.273 4.869-.642 4.869-2.359 0-1.435-2.275-2.401-4.404-2.401-.404 0-.811 0-1.187.005zm-4.002-.403a1.598 1.598 0 113.2 0v.422c-.54-.01-1.084.07-1.6.23a4.765 4.765 0 00-1.604-.23v-.422h.005zm1.604 2.552c.188.375.418.727.69 1.046h-1.384a5.63 5.63 0 00.694-1.046zm-7.208.248c0-.722 1.66-1.6 3.602-1.6.802 0 2.692-.013 3.19.146-.137.962-1.535 3.058-3.19 3.058-1.937-.004-3.602-.881-3.602-1.604zm5.689 1.6h3.025c.244.192.507.356.783.492l.043.31h-2.735a.398.398 0 100 .797h2.79c.02.267.015.535-.013.802H17.63a4.573 4.573 0 01-.014-.802h.39a.398.398 0 100-.797h-.334l.042-.32c.282-.13.54-.29.779-.482zm-.286 4.802h1.8a.398.398 0 100-.797h-2.096a7.631 7.631 0 01-.183-.802h4.564c-.047.272-.108.54-.183.802h-.497a.398.398 0 100 .797h.202c-.976 2.134-2.632 2.134-3.607 0zm9.005-6.402c0 .995-2.974 1.998-4.4 1.445a4.403 4.403 0 01-2.391-2.899c.576-.173 2.307-.145 3.189-.15 1.942.005 3.602.882 3.602 1.604z" fill="#000"/></symbol><symbol viewBox="0 0 14.2 25.5" id="arrow" xmlns="http://www.w3.org/2000/svg"><path fill="#0d0e0f" d="M14.2 12.7L1.5 0 0 1.5l11.3 11.2L0 24l1.5 1.5 12.7-12.8z"/></symbol><symbol fill="none" viewBox="0 0 32 32" id="beans" xmlns="http://www.w3.org/2000/svg"><path d="M15.367 10.056a.477.477 0 00-.67-.075 1.374 1.374 0 01-1.725 0 .477.477 0 10-.595.746c.412.332.932.51 1.462.51.53 0 1.05-.182 1.463-.51a.484.484 0 00.065-.67z" fill="#000"/><path d="M27.653 16.802a5.68 5.68 0 00-1.926-2.616 5.38 5.38 0 00-2.096-.947 5.761 5.761 0 00-1.284-4.252C21.287 7.708 19.764 7 18.057 7h-.276c-1.195 0-2.353.422-3.351 1.223a.965.965 0 01-.6.211.965.965 0 01-.6-.21C12.236 7.421 11.078 7 9.883 7h-.277c-1.233 0-2.386.375-3.333 1.078a5.592 5.592 0 00-1.926 2.616 5.582 5.582 0 00-.192 3.225c.272 1.143.914 2.16 1.856 2.948.717.6 1.505 1.116 2.339 1.533a5.584 5.584 0 00.14 1.627c.272 1.143.915 2.16 1.857 2.948a12.225 12.225 0 0015.647 0c.942-.788 1.584-1.805 1.856-2.948a5.583 5.583 0 00-.197-3.225zm-19.153.6a11.218 11.218 0 01-1.88-1.27c-1.828-1.524-1.908-3.643-1.378-5.115.535-1.481 1.964-3.06 4.36-3.06h.276c.975 0 1.927.35 2.752 1.012.337.272.764.422 1.195.422.431 0 .858-.15 1.195-.422.825-.666 1.777-1.013 2.752-1.013h.276c1.416 0 2.677.581 3.554 1.64a4.796 4.796 0 011.073 3.517 5.815 5.815 0 00-.29-.01h-.277c-1.195 0-2.353.422-3.352 1.224a.965.965 0 01-.6.21.965.965 0 01-.6-.21c-.998-.802-2.156-1.224-3.351-1.224h-.277a5.554 5.554 0 00-3.333 1.078 5.591 5.591 0 00-1.926 2.616 9.566 9.566 0 00-.169.605zm16.88 4.837a11.276 11.276 0 01-7.21 2.611c-2.63 0-5.198-.928-7.214-2.61-1.828-1.524-1.908-3.643-1.378-5.115.535-1.481 1.964-3.06 4.36-3.06h.276c.975 0 1.927.35 2.752 1.012a1.92 1.92 0 001.195.421c.431 0 .858-.15 1.195-.421.825-.666 1.777-1.013 2.752-1.013h.276c2.396 0 3.825 1.584 4.36 3.061.544 1.472.464 3.59-1.364 5.114z" fill="#000"/><path d="M19.623 16.099a.477.477 0 00-.67-.076 1.373 1.373 0 01-1.725 0 .477.477 0 10-.595.746c.412.333.933.51 1.462.51.53 0 1.05-.182 1.463-.51a.476.476 0 00.065-.67zm3.694 6.346a.476.476 0 00-.642-.206 9.792 9.792 0 01-4.505 1.083.48.48 0 00-.478.478.48.48 0 00.478.478c1.74 0 3.403-.398 4.94-1.19a.479.479 0 00.207-.643zm1.852-1.35a.481.481 0 00-.675-.06 17.1 17.1 0 01-.338.271.478.478 0 10.582.76c.126-.094.248-.197.37-.296a.482.482 0 00.06-.675z" fill="#000"/></symbol><symbol viewBox="0 0 22.3 18.9" id="biceps" xmlns="http://www.w3.org/2000/svg"><path d="M17.4 3.1c-2.1 0-4.8 1.5-4.7 4.6 0 0-4.1-1.3-5.3 3 0 0-.7-1.5-1.6-2.2-1-.7-2.2-2.5-2.3-3.4.1-.5.2-.5.4-.6.1 0 .1.8 1 .9.8-.1 1-.3 1.3-.7l.9-1s.9-1.2.1-1.8c-.7-.7-2-2-3.6-1.7-.9.2-1.6.9-1.6.9L.8 2.2S0 3 0 4.6C0 6 .3 8.3.3 8.3l.4 2.4c.1.6.9 4.1 2.8 6 1.2 1.4 1.9 2 2.5 2.1 1 0 1.5-.6 2.3-.6.8 0 1.6.6 3.3.6s5.5-1 7.1-5.9c1.5-.6 3.6-1.7 3.6-5s-2.9-4.8-4.9-4.8zm.7 9.2c-1.1 4.4-4.6 5.6-6.3 5.8-1.6 0-2.5-.6-3.7-.6-.7 0-1.7.6-2 .6S5 17.4 4 16.3s-1.4-2.1-1.8-2.9c-.4-.8-1.1-4-1.1-4S.8 6.2.8 4.8c0-1.3.6-2.1.6-2.1L3 1.3c.9-.7 2-.2 2-.2s1.1.7 1.5 1.1c.5.4 0 .8 0 .8S5.4 4.4 5 4.5c-.5.1-.6-1.1-.6-1.1-.5.2-1.3.4-1.6 1.3-.3 1.1 1.3 3.4 2.5 4.5 1.1 1.1 1.8 2.9 1.8 2.9l.9-.3s-.1-2.1 1.7-3.2c2-1.1 3.8.4 3.8.4-.6-5 3.8-5.1 4.1-5.1s3.8.3 4.1 3.8c-.2 4-3.6 4.6-3.6 4.6z" fill="#54a791"/></symbol><symbol viewBox="0 0 10.9 8.7" id="checkmark" xmlns="http://www.w3.org/2000/svg"><path d="M10.3.6C9.6-.2 8.4-.2 7.7.5L4 4.2l-.8-.8c-.7-.7-1.9-.7-2.6 0H.5c-.7.7-.7 1.9 0 2.6l2.2 2.2c.4.4.9.5 1.3.5.5 0 .9-.2 1.3-.5l5-5c.7-.7.7-1.9 0-2.6z" fill="#0d0e0f"/></symbol><symbol viewBox="0 0 36.7 36.7" id="f" xmlns="http://www.w3.org/2000/svg"><path d="M36.7 34.7c0 1.1-.9 2-2 2h-9.4V22.5h4.8l.7-5.5h-5.5v-3.5c0-1.6.4-2.7 2.7-2.7h2.9v-5c-.5-.1-2.2-.2-4.3-.2-4.2 0-7.1 2.6-7.1 7.3V17h-4.8v5.5h4.8v14.2H2c-1.1 0-2-.9-2-2V2C0 .9.9 0 2 0h32.7c1.1 0 2 .9 2 2v32.7z" fill="#b3b3b3"/></symbol><symbol id="face" viewBox="0 0 20.6 20.8" xml:space="preserve" xmlns="http://www.w3.org/2000/svg"><style>.hst0{fill:#54a791}</style><path class="hst0" d="M10.3.2C4.7.2.1 4.8.1 10.4s4.6 10.2 10.2 10.2S20.5 16 20.5 10.4 15.9.2 10.3.2zm0 19.6c-5.2 0-9.4-4.2-9.4-9.4S5.1 1 10.3 1s9.4 4.2 9.4 9.4-4.2 9.4-9.4 9.4z"/><path class="hst0" d="M10.3 15.7c-3.5 0-5.6-3.1-5.6-3.1l-.7.5c2.8 3.6 6.3 3.5 6.3 3.5s3.5.2 6.3-3.5l-.7-.5s-2.1 3.1-5.6 3.1zm-3.4-4.2C9.3 10.4 9.7 9 9.7 8.3c0-.8-.5-1.7-1.4-1.7-1 0-1.4.5-1.4.5s-.4-.5-1.4-.5c-.9 0-1.4 1-1.4 1.7s.4 2.1 2.8 3.2zm0-3.4c.5-.8 1.9-.9 2 .1 0 1.4-2 2.4-2 2.4s-2-1-2-2.4c.1-1 1.5-.9 2-.1zm6.8 3.4c2.4-1.1 2.8-2.5 2.8-3.1 0-.8-.5-1.7-1.4-1.7-1 0-1.4.5-1.4.5s-.4-.5-1.4-.5c-.9 0-1.4 1-1.4 1.7 0 .6.4 2 2.8 3.1zm0-3.4c.5-.8 1.9-.9 2 .1 0 1.4-2 2.4-2 2.4s-2-1-2-2.4c.1-1 1.5-.9 2-.1z"/></symbol><symbol fill="none" viewBox="0 0 32 32" id="grape" xmlns="http://www.w3.org/2000/svg"><path d="M20.443 16.714c2.16-1.489 1.653-5.2-.935-5.913-.183-.052-.91-.024-1-.108-.146-.141-.235-.813-.348-1.02a3.256 3.256 0 00-1.446-1.366c-1.268-.61-2.8-.348-3.743.709-.912-1.23-2.499-1.606-3.87-.944A3.412 3.412 0 007.626 9.42c-.174.3-.3.625-.371.967-.08.41.023.785-.01 1.184-.023.277.043.22-.258.334a3.338 3.338 0 00-.493.239 3.205 3.205 0 00-.892.813 3.487 3.487 0 00-.681 2.179 3.285 3.285 0 00.47 1.597c.046.075.154.188.178.263.07.216.07.042-.033.249-.197.385-.56.662-.733 1.084a3.416 3.416 0 00.005 2.621c.08.193.211.357.296.545.07.155.127.141.089.272-.019.062-.282.254-.32.296A3.43 3.43 0 004 24.374c.014 1.818 1.508 3.34 3.349 3.245a3.256 3.256 0 002.193-1.014c.085-.09.315-.526.413-.559.08-.023.489.188.573.212.432.112.888.126 1.33.047a3.266 3.266 0 002.061-1.292c.137-.183.212-.413.343-.592.033-.042.057-.22.099-.244.019-.01.305.084.366.094.48.094.982.07 1.456-.061a3.32 3.32 0 001.343-.756c.104-.099.418-.606.531-.649.127-.042.554.146.705.165.995.108 2.005-.287 2.69-1.01 1.48-1.578.968-4.32-1.009-5.246.127-.09.254-.174.38-.263-.126.09-.253.174-.38.263zm-2.64-3.363a2.32 2.32 0 00.315-.456c.028-.046.052-.093.075-.145a3.26 3.26 0 00.263-.714c.08-.343.01-.39.348-.423.324-.028.714.132.982.292.54.324.892.887 1.033 1.493a2.62 2.62 0 01-.207 1.78c-.15.291-.366.545-.63.737-.088.066-.873.442-.873.357v-.047a2.47 2.47 0 00-.01-.333c0-.019-.004-.033-.004-.052v-.01a3.31 3.31 0 00-1.38-2.39c.032-.023.06-.056.088-.089.015-.014-.028.033 0 0 .118-.136-.028.033 0 0zm-.065 1.395a2.576 2.576 0 01.3.554c.01.024.014.042.024.066.005.01.005.019.01.028l.013.042c.052.15.075.31.099.465 0 .024.005.043.005.066 0 .01 0 .024.004.033 0 .023.005.042.005.066v.014c.01.202.005.441-.061.634-.005.019-.005.037-.01.052-.333.807-.85 1.526-1.756 1.719-.564.122-1.245.018-1.714-.334-.038-.023-.075-.052-.108-.075-.963-.733-1.142-2.053-.569-3.086.592-1.07 1.672-1.385 2.79-1.01.024.01.047.024.07.033.024.01.048.024.071.033.005 0 .01.005.014.005.066.033.132.07.193.113.056.037.113.075.169.117.052.038.099.08.146.127.009.01.018.014.023.023.066.052.258.287.282.315.005.01-.028-.038 0 0zm-4.922.507a3.821 3.821 0 00-.07.315c-.668.019-1.255-.277-1.715-.742a2.404 2.404 0 01-.573-1.118c-.437-1.146.625-2.536 1.69-2.804a3.36 3.36 0 001.382 3.048 3.36 3.36 0 00-.714 1.306l.056-.202-.056.197c-.029.104.136-.483 0 0zm.68 3.09c-.53.376-1.01.959-1.192 1.593a2.212 2.212 0 01-.226-.066 2.256 2.256 0 00-.662-.09c-.09 0-.178 0-.268.005a.96.96 0 01-.206.02.924.924 0 00-.165.023h-.01a.189.189 0 01-.07.014c-.765-.418-1.272-1.282-1.23-2.16v-.005c0-.024 0-.047.005-.07v-.01c0-.019.004-.038.004-.052v-.005c.005-.065.01-.154.028-.22.015-.09.038-.179.062-.263 0-.005 0-.005.004-.01 0-.004.005-.01.005-.014.047-.16.117-.3.188-.45.037-.066.075-.132.122-.198.122-.188.277-.357.456-.498a.638.638 0 01.169-.127.319.319 0 01.056-.037.18.18 0 01.042-.024 3.137 3.137 0 002.085.794h.015c.014.179.033.437.117.601.01.033.019.066.033.104 0 .004.005.004.005.009.009.033.023.066.033.103.131.376.338.728.6 1.034zm-.159-8.247c0-.004.005-.01.005-.014v-.005c1.117-2.047 4.26-1.131 4.288 1.137v.019c0 .545-.188 1.07-.517 1.498l-.01.01a2.32 2.32 0 01-.253.272c-.62-.202-1.475-.24-2.076.061-.09.033-.432.254-.507.249-.122-.005-.31-.207-.395-.277a2.317 2.317 0 01-.629-.855c0-.005-.005-.01-.005-.01-.281-.666-.216-1.521.08-2.066-.023.056-.019.047.019-.019 0-.004-.07.132 0 0zM10.411 8.64c.84 0 1.61.48 2.01 1.23-.005.01-.005.015-.01.024l-.013.033c-1.64.155-2.894 1.62-2.917 3.246a1.997 1.997 0 01-.526-.334c-.019-.014-.033-.028-.052-.042-1.69-1.273-.498-4.157 1.508-4.157zM7.64 12.68c.005.004.005.009.01.014.056.098.14.253.225.338l.037.051.029.033c.014.014.023.033.037.047.249.3.578.587.935.761.188.099.568.146.714.277.15.132.249.606.366.794a2.35 2.35 0 00-.446.362c-.01.004-.014.014-.024.018l-.037.038a3.26 3.26 0 00-.545.737c0 .005-.005.01-.005.01a.171.171 0 00-.07.136c-.01.023-.024.047-.033.07v.005a3.09 3.09 0 00-.09.22c-.023.062-.051.128-.06.193l-.015.057-.014.056c0 .005-.004.014-.004.019a.137.137 0 00-.01.042v.01c-.023.103-.033.21-.06.314v.029l-.076.013a2.184 2.184 0 01-.554.024h-.005c-.023 0-.042-.005-.066-.005h-.014a2.286 2.286 0 01-.798-.253.845.845 0 00-.127-.07c-.023-.015-.047-.029-.07-.048-.02-.014-.038-.023-.052-.037h-.005l-.136-.108c-1.437-1.198-.892-3.744.963-4.148-.01-.014-.404.09-.46.104.155-.042.31-.07.46-.104.005.005-1.038.226 0 0zm-1.278 5.072c.16.108.475.338.672.338a3.1 3.1 0 00.897.188c.15.01.329.023.48-.01.112-.07.168-.075.168-.018.075.483.259 1.07.587 1.446.146.202.31.385.498.55l.005.005c-.47.29-1.362 1.06-1.362 1.68a2.04 2.04 0 01-.338.062c-.01 0-.02 0-.029.005-2.254.206-3.31-2.884-1.578-4.246.005.005-.21.225-.244.202 0 0 .315-.254.244-.202.08.052-.563.446 0 0zm.836 8.966c-1.188 0-2.099-.944-2.24-2.095a2.429 2.429 0 01.324-1.564c.118-.193.334-.535.554-.61.259-.09.738.248 1.043.352a2.9 2.9 0 001.062.117l.178-.014c-.024.4.028.831.164 1.207.052.165.113.343.202.489a2.7 2.7 0 00.47.685c.235.273.263.259.028.56a2.25 2.25 0 01-1.785.874zm6.388-3.25c0 .004 0 .004 0 0-.291 1.78-2.48 2.588-3.8 1.329-.591-.568-.939-1.405-.723-2.217.207-.765.836-1.677 1.695-1.803.428-.113 1.292-.15 1.64.197h.004c.883.483 1.339 1.582 1.189 2.46.004-.042.004-.032-.005.034 0 .004.019-.127 0 0zm1.747-.052a2.21 2.21 0 01-.798-.15 2.323 2.323 0 000-.4 4.073 4.073 0 00-.052-.408.543.543 0 00-.019-.085v-.004c-.005-.024-.01-.052-.019-.075v-.005c-.117-.432-.352-1.17-.751-1.437a.736.736 0 00-.056-.061l-.029-.033a3.1 3.1 0 00-.465-.4c0-.004.005-.009.005-.014l.014-.042c.043-.14.108-.291.183-.423a2.124 2.124 0 01.475-.605c.01-.01.018-.02.033-.029a.075.075 0 01.018-.014c.01-.01.024-.019.033-.028a1.8 1.8 0 01.334-.23c.507.32 1.08.479 1.681.479v.019c-.028.47.038.94.197 1.38.09.245.334.893.592 1.024a.05.05 0 00.024.024 2.953 2.953 0 00.343.338c.202.07.216.164.051.287-.07.173-.329.347-.474.455-.39.282-.846.437-1.32.437zm3.78-1.338c-1.427 0-2.474-1.395-2.258-2.767.418-.131.948-.376 1.226-.728.032-.033.065-.06.094-.094l.014-.014a1.97 1.97 0 00.122-.136c.014-.014.023-.028.037-.042a3.116 3.116 0 00.53-.897l.015-.038c1.31-.127 2.456.982 2.503 2.269.047 1.263-.981 2.447-2.282 2.447zm5.332-11.328a.461.461 0 11.001-.923.461.461 0 01-.001.922z" fill="#000"/><path d="M27.803 11.839c-.414-1.7-1.649-3.152-3.678-4.321.291-.442 1.8-3.33.728-3.509-.653-.108-.648 1.029-.77 1.428-.207.681-.512 1.334-.953 1.898-.855 1.122-2.278 1.756-3.673 1.756-.395-.023-.634.475-.371.77.183.202.493.16.742.146a5.7 5.7 0 002.578-.812c-.887 3.297 1.297 5.762 3.899 7.43.004.004.009.004.014.01.075.046.183.07.272.06.005 0 .014 0 .023-.005.02 0 .033-.004.052-.009.028-.005.056-.019.085-.028.004 0 .004-.005.01-.005.004 0 .004-.005.009-.005a.434.434 0 00.164-.14s.005-.005.005-.01c.051-.084 1.47-2.16.864-4.654-.414-1.7.606 2.494 0 0zm-1.15 3.165a85.674 85.674 0 00-.762-2.348c-.127-.376-.286-1.292-.78-1.348-.803-.09-.366.869-.234 1.235.3.836.563 1.691.831 2.537-1.038-.804-2.029-1.813-2.423-3.096-.386-1.24-.076-2.489.39-3.658 2.442 1.409 4.09 3.813 2.977 6.678-.385-1.226 0 0 0 0z" fill="#000"/></symbol><symbol viewBox="0 0 36.7 36.7" id="in" xmlns="http://www.w3.org/2000/svg"><path d="M32.3 0H4.4C2 0 0 1.9 0 4.3v28.1c0 2.4 2 4.3 4.4 4.3h27.9c2.4 0 4.4-1.9 4.4-4.3V4.3c0-2.4-2-4.3-4.4-4.3m-5.9 5.7c0-.6.5-1.1 1.1-1.1H31c.6 0 1.1.5 1.1 1.1v3.4c0 .6-.5 1.1-1.1 1.1h-3.4c-.6 0-1.1-.5-1.1-1.1l-.1-3.4zm-8 5.6c3.9 0 7.1 3.1 7.1 7s-3.2 7-7.1 7-7.1-3.1-7.1-7c0-3.8 3.2-7 7.1-7m14.8 20.8c0 .6-.5 1.1-1.1 1.1H4.6c-.6 0-1.1-.5-1.1-1.1V14.9H8c-.6.9-.8 2.5-.8 3.5 0 6.1 5 11.1 11.2 11.1s11.2-5 11.2-11.1c0-1-.1-2.6-.9-3.5h4.6l-.1 17.2z" fill="#b3b3b3"/></symbol><symbol id="leaf" viewBox="0 0 16 15.2" xml:space="preserve" xmlns="http://www.w3.org/2000/svg"><style>.kst0{fill:#51b098}</style><path class="kst0" d="M2.3 9.3c0 .2.1.4.1.6 0 .8.1 2.1.1 2.1H3s0-2.1-.3-3.2c-.3-1.2-.4-3.4.3-5l-.5-.2s-.6 1.2-.6 3.1c0 1.2.1 1.7.2 2.2C1.7 8.6.6 7.6.7 5.5.9 3.1 3 .9 3 .9s3.7 3.5.4 7.4l.4.3S5.3 6.9 5.3 5c0-1.9-.8-3.5-2.3-4.8C3 .2.4 2.7.2 5.7c-.1 2.8 2 3.8 2 3.8l.1-.2z"/><path class="kst0" d="M7.5 6.7C3.8 7.8 4 11.4 4.1 12.2c-1.3 1.3-1.9 2.5-1.9 2.5l.4.2c3.8-6.3 9.7-5.1 9.7-5.1v-.5c-3.6-.4-6.1 1-7.8 2.4-.1-1.3.5-4.4 4.3-4.7 4.4-.1 6.5 2.5 6.5 2.5-2.3 3.7-4.9 4.2-6.5 4.4C7.1 14.2 5 13 5 13l-.2.4s1.8 1.2 4.1 1c5-.6 6.9-5 6.9-5-.5-1-4.2-3.7-8.3-2.7z"/></symbol><symbol id="measure" viewBox="0 0 15.2 15.2" xml:space="preserve" xmlns="http://www.w3.org/2000/svg"><style>.lst0{fill:#54a791}</style><path class="lst0" d="M4.3 3c0 .2.4.4 1 .4s1-.2 1-.4-.4-.4-1-.4c-.5 0-1 .1-1 .4z"/><path class="lst0" d="M15.1 6.7c0-1-.8-1.8-1.8-1.8H4.1S1.7 5 .6 3.1C.7 1.7 1.8.7 3.2.7h4c1.5 0 2.6 1.2 2.6 2.6v.5h.5v-.4C10.3 1.6 8.9.2 7.1.2H3.3C1.5.2.1 1.6.1 3.4v4.7c0 1.8 1.4 3.2 3.2 3.2H4v-.5h-.8C1.7 10.8.6 9.6.6 8.2V4c.3.4 1.3 1.4 3.4 1.4h9.3c.7 0 1.2.5 1.2 1.2v.8c0 .7-.5 1.2-1.2 1.2H6.9c-1 0-1.8.8-1.8 1.8v2.7c0 1 .8 1.8 1.8 1.8h6.4c1 0 1.8-.8 1.8-1.8V6.7zm-.6 6.6c0 .7-.5 1.2-1.2 1.2H6.8c-.7 0-1.2-.5-1.2-1.2v-2.9c0-.7.5-1.2 1.2-1.2h1.9v1.7h.5V9.2h3.2v1.7h.5V9.2h.4c.5 0 1-.2 1.3-.5v4.6z"/></symbol><symbol fill="none" viewBox="0 0 32 32" id="nut" xmlns="http://www.w3.org/2000/svg"><path d="M25.89 9.773a.37.37 0 00-.605.422c1.286 1.828 1.967 3.928 1.967 6.082 0 2.787-1.146 5.482-3.233 7.597-1.573 1.592-3.597 2.782-5.851 3.458-.451-.364-.724-1.089-.85-2.283a2.561 2.561 0 003.746-.269c.063.005.125.005.188.005a2.574 2.574 0 002.494-3.199 4.124 4.124 0 001.717-1.323c.537-.71.82-1.56.82-2.451 0-.888-.288-1.746-.815-2.451.513-.48.81-1.156.81-1.875a2.556 2.556 0 00-2.091-2.523 2.565 2.565 0 00-1.885-2.413 2.961 2.961 0 00-2.849-2.158c-.657 0-1.266.216-1.755.58.273-.647.647-1.194 1.098-1.554 2.182.763 4.115 2.015 5.597 3.655a.371.371 0 00.552-.494c-2.22-2.45-5.381-4.081-8.897-4.575a.389.389 0 00-.106 0c-3.29.465-6.307 1.942-8.494 4.158C5.223 10.416 4 13.299 4 16.277c0 2.978 1.223 5.86 3.448 8.115 2.187 2.216 5.204 3.693 8.5 4.158.018.005.033.005.052.005.02 0 .034 0 .053-.005 3.29-.465 6.307-1.942 8.499-4.158C26.772 22.138 28 19.255 28 16.277c-.01-2.302-.734-4.552-2.11-6.504zm-6.437-2.638c1.065 0 1.981.758 2.178 1.799a.368.368 0 00.297.293 1.824 1.824 0 011.51 1.707 2.546 2.546 0 00-1.553.739.37.37 0 00.259.633.364.364 0 00.259-.11 1.821 1.821 0 011.295-.538c.01 0 .019 0 .024-.005.019.005.033.005.053.005.983.043 1.75.844 1.75 1.828 0 .508-.21.983-.57 1.328a4.014 4.014 0 00-2.754-1.079.366.366 0 00-.369.37c0 .206.163.369.37.369a3.32 3.32 0 012.364.978c.02.02.038.034.058.048a.517.517 0 00.043.062 3.32 3.32 0 01.873 2.255 3.31 3.31 0 01-.672 2.01 3.4 3.4 0 01-1.41 1.083 2.567 2.567 0 00-2.211-1.256c-.686 0-1.333.268-1.818.753a.37.37 0 00.523.522 1.821 1.821 0 011.295-.537 1.826 1.826 0 011.832 1.827c0 .93-.695 1.698-1.597 1.813a2.61 2.61 0 00.149-.863.366.366 0 00-.37-.37.366.366 0 00-.369.37 1.833 1.833 0 01-1.827 1.827 1.835 1.835 0 01-1.832-1.832c0-.508.206-.983.575-1.333a.369.369 0 00.038-.494 2.864 2.864 0 01-.613-1.784c0-.902.407-1.736 1.117-2.293l.01-.01a2.875 2.875 0 011.78-.608.367.367 0 00.368-.37.366.366 0 00-.369-.37c-.715 0-1.39.202-1.98.586a3.444 3.444 0 01-.922-2.34c0-.912.355-1.765.993-2.413 0 0 0-.005.005-.005a3.418 3.418 0 012.437-1.017.366.366 0 00.369-.369.366.366 0 00-.37-.37 4.136 4.136 0 00-2.719 1.008 2.225 2.225 0 01-.715-1.63 2.22 2.22 0 012.216-2.217zM4.74 16.277c0-2.787 1.146-5.482 3.232-7.597 1.425-1.444 3.223-2.556 5.223-3.257.451.36.83.902 1.099 1.55a2.96 2.96 0 00-4.605 1.582 2.566 2.566 0 00-1.885 2.413 2.564 2.564 0 00-2.09 2.522c0 .715.297 1.391.81 1.876a4.078 4.078 0 00-.806 2.714c.014.202.192.36.393.346a.37.37 0 00.346-.394c-.005-.072-.005-.143-.005-.215 0-.835.312-1.636.873-2.255a.183.183 0 00.043-.062.415.415 0 00.057-.048 3.32 3.32 0 012.365-.978c.206 0 .37-.163.37-.37a.366.366 0 00-.37-.369 4.05 4.05 0 00-2.767 1.084 1.83 1.83 0 011.18-3.156c.019 0 .033-.005.052-.005.01.005.02.005.024.005.49 0 .95.192 1.295.537.072.072.168.11.26.11a.37.37 0 00.259-.633 2.547 2.547 0 00-1.555-.738 1.828 1.828 0 011.511-1.708.362.362 0 00.297-.292 2.224 2.224 0 012.178-1.799c1.223 0 2.22.998 2.22 2.22 0 .624-.263 1.21-.714 1.632a4.136 4.136 0 00-2.72-1.008.366.366 0 00-.369.37c0 .206.163.369.37.369a3.398 3.398 0 012.44 1.022c.643.647.993 1.506.993 2.412a3.43 3.43 0 01-.93 2.345 3.602 3.602 0 00-1.98-.585.366.366 0 00-.37.37c0 .206.163.369.37.369.651 0 1.265.21 1.778.609l.01.01a2.895 2.895 0 011.118 2.292c0 .652-.211 1.271-.614 1.784a.369.369 0 00.038.494c.37.35.576.825.576 1.334 0 1.007-.82 1.832-1.833 1.832a1.827 1.827 0 01-1.827-1.828.366.366 0 00-.37-.369.366.366 0 00-.368.37c0 .297.052.59.148.863a1.833 1.833 0 01-1.597-1.813 1.826 1.826 0 011.832-1.827c.49 0 .95.191 1.295.537a.37.37 0 00.523-.523 2.573 2.573 0 00-4.029.504 3.376 3.376 0 01-1.75-1.64.375.375 0 00-.494-.174.375.375 0 00-.173.494 4.106 4.106 0 002.13 2 2.574 2.574 0 002.494 3.2c.062 0 .124 0 .187-.005a2.561 2.561 0 003.745.268c-.124 1.195-.398 1.914-.849 2.283-2.254-.676-4.278-1.865-5.851-3.458-2.062-2.134-3.213-4.83-3.213-7.616zm11.256 11.535c-.46-.067-.911-.154-1.357-.26.604-.776.858-2.129.858-4.383 0-.595-.21-1.175-.585-1.63.384-.59.585-1.272.585-1.981 0-.988-.393-1.919-1.088-2.6a4.184 4.184 0 001.088-2.81c0-.97-.33-1.89-.935-2.634.59-.556.935-1.338.935-2.158 0-.93-.182-1.851-.522-2.671-.255-.605-.58-1.118-.964-1.516A15.288 15.288 0 0116 4.742c.681.1 1.343.24 1.99.427a4.89 4.89 0 00-.964 1.516 7.017 7.017 0 00-.522 2.671c0 .82.345 1.602.935 2.158a4.157 4.157 0 00-.935 2.634c0 1.04.393 2.047 1.088 2.81a3.626 3.626 0 00-1.088 2.6c0 .714.201 1.39.585 1.98a2.582 2.582 0 00-.585 1.631c0 2.25.254 3.602.858 4.384-.455.105-.906.192-1.367.259z" fill="#000"/></symbol><symbol fill="none" viewBox="0 0 32 32" id="oat" xmlns="http://www.w3.org/2000/svg"><path d="M19.47 18.321c.46.732 1.187 1.13 1.965 1.13a2.46 2.46 0 001.093-.262l1.397-.493-.933-1.153a2.338 2.338 0 00-1.613-1.093 2.39 2.39 0 001.388-.567l1.238-.811-1.182-.896a2.46 2.46 0 00-.891-.553c.267-.202.497-.47.675-.793l.858-1.21-1.425-.403a2.338 2.338 0 00-1.637-.09 2.4 2.4 0 00.793-1.19l.595-1.356-1.477-.107c-1.242-.24-2.354.426-2.72 1.636l-.478 1.083a8.254 8.254 0 00-.961-.937l1.144-.61c1.182-.455 1.763-1.613 1.43-2.832l-.215-1.468-1.309.694c-1.182.455-1.763 1.613-1.43 2.837l.178 1.21a7.995 7.995 0 00-1.266-.797l.558-1.018c.74-1.027.596-2.317-.356-3.156L13.909 4l-.713 1.299c-.741 1.027-.596 2.316.356 3.156l.47.525c-.104-.042-.203-.084-.31-.122a.42.42 0 00-.479.16l-.769-.882c-.713-1.046-1.97-1.355-3.085-.755L8 7.925l.97 1.116c.47.69 1.173 1.06 1.923 1.06.127 0 .253-.014.375-.038-.595.23-1.083.708-1.34 1.384l-.685 1.317 1.467.202c.22.056.441.084.657.084.38 0 .74-.093 1.06-.262-.117.347-.16.731-.103 1.135l.037 1.482 1.383-.53c.113-.029.22-.07.324-.113a2.62 2.62 0 00-.084.352l-.399 1.425 1.477-.098c.019 0 .038-.005.056 0-.234.21-.44.469-.59.783l-.798 1.247 1.445.333c.168.061.337.099.506.122a2.33 2.33 0 00-1.641.9l-1.055 1.041 1.336.643c.418.267.868.399 1.304.399.684 0 1.346-.315 1.829-.92l.056-.056c-1.318 3.184-4.155 5.52-7.892 6.232a.421.421 0 00.075.835c.028 0 .051-.005.08-.01 3.803-.726 6.738-3.01 8.253-6.147l-.056 1.243c-.211 1.247.487 2.34 1.711 2.677l1.374.558.07-1.482c.212-1.247-.487-2.34-1.711-2.677l-1.28-.525c.23-.507.417-1.032.576-1.576l.179.628c.197 1.248 1.205 2.068 2.47 1.998l1.478.098-.403-1.425c-.197-1.252-1.215-2.068-2.472-1.998l-1.06-.07c.1-.464.174-.938.216-1.421l.352.45zM17.53 6.81l.328-.169.047.31.01.051c.229.811-.146 1.557-.934 1.852l-.328.17-.047-.31-.01-.052c-.234-.811.141-1.557.934-1.852zm-3.64-1.036l.184-.324.21.234.038.038c.638.553.732 1.379.23 2.059l-.183.323-.206-.234-.038-.038c-.638-.548-.731-1.378-.234-2.058zm4.925 17.444l.018-.366.291.117.052.02c.816.215 1.266.913 1.116 1.748l-.019.366-.29-.117-.052-.019c-.816-.216-1.267-.92-1.116-1.75zm1.153-2.997h.028c.84-.06 1.491.47 1.613 1.304l.099.356-.342-.023h-.028c-.835.06-1.492-.469-1.614-1.304l-.098-.356.342.023zm-.802-3.273c0-.122.01-.239.01-.36a8.723 8.723 0 00-.108-1.22l.53.403c.37.361.806.577 1.261.652a2.456 2.456 0 00-.914.253l-.779.272zm-.59-3.362l1.036.295c.065.029.131.052.192.07-.052.038-.103.066-.155.109l-.76.497a6.88 6.88 0 00-.314-.971zm3.713 4.422l.23.29-.295.104-.052.023c-.75.38-1.552.155-1.993-.562l-.23-.291.296-.103.051-.024c.75-.384 1.553-.16 1.993.563zm.258-2.992l-.262.174-.043.033c-.642.553-1.472.52-2.072-.07l-.29-.226.262-.173.042-.033c.638-.554 1.472-.52 2.073.07l.29.225zm-.816-3.02l.352.104-.183.257-.028.047c-.394.746-1.182 1.023-1.955.69l-.352-.104.183-.258.028-.046c.399-.746 1.182-1.023 1.955-.69zm-3.352-1.58l.018-.052c.235-.81.947-1.242 1.777-1.069l.366.028-.126.286-.02.052c-.234.811-.951 1.238-1.776 1.07l-.366-.029.127-.286zm.098 1.149a2.366 2.366 0 001.21-.056c-.253.197-.474.45-.643.76l-.647.909a8.29 8.29 0 00-1.031-1.693l1.111.08zm-1.083 1.486l-.938.061a2.465 2.465 0 00-1.008.16c.089-.32.122-.666.07-1.032l-.037-1.458a7.366 7.366 0 011.913 2.27zM9.66 8.553l-.24-.281.292-.113.051-.023c.736-.408 1.548-.211 2.012.492l.24.282-.292.112-.051.024c-.737.408-1.548.206-2.012-.493zm2.396 1.243l1.112-.436a.416.416 0 00.262.295 7.003 7.003 0 012.03 1.112l-1.364.52c-.206.052-.39.131-.563.22l.685-1.317-1.468-.202a2.422 2.422 0 00-.998-.051c.103-.043.206-.085.304-.141zm-1.144 2.35l-.366-.057.146-.277.023-.051c.286-.793 1.027-1.177 1.843-.952l.366.056-.146.277-.023.051c-.29.793-1.032 1.178-1.843.952zm2.617 1.917l-.347.127-.01-.314-.004-.056c-.132-.835.333-1.525 1.153-1.722l.347-.126.01.314.004.056c.132.835-.333 1.524-1.153 1.721zm1.538 1.534l-.342.023.084-.3.01-.056c.116-.797.707-1.308 1.49-1.308.038 0 .075 0 .118.004h.028l.342-.023-.084.3-.01.056c-.122.835-.76 1.36-1.608 1.308l-.028-.004zm2.466-1.154l.197-.699c.324.77.52 1.604.577 2.472l-.84-.193a2.594 2.594 0 00-.712-.14 2.32 2.32 0 00.778-1.44zm-2.443 3.48l.17-.263.027-.047c.357-.764 1.13-1.078 1.918-.783l.361.084-.169.263-.028.047c-.356.764-1.13 1.083-1.918.783l-.36-.084zm1.754 2.494l-.037.043c-.516.665-1.342.801-2.045.342l-.328-.164.225-.22.037-.043c.516-.666 1.337-.802 2.045-.342l.328.164-.225.22zm.333-1.106a2.468 2.468 0 00-.957-.361c.802-.066 1.515-.54 1.9-1.346l.192-.3a10.98 10.98 0 01-.366 2.377l-.769-.37z" fill="#000"/></symbol><symbol viewBox="0 0 18.8 20" id="person" xmlns="http://www.w3.org/2000/svg"><path d="M17.4 5.8c.2-.2.4-.4.5-.6.7-.9.6-1.3-.1-1.9s-1.8.3-1.8.3l-.2.2c-1.1-1-2.5-1.8-4.1-2.2C11.1.7 10.2.1 9.2.1c-1.1 0-2 .7-2.6 1.6a9.4 9.4 0 00-3.5 2c-.2-.1-.6-.5-1.1-.6C1.3 3 .6 3.5.5 4.2c0 .4.4 1 .9 1.6C.5 7.2 0 8.8 0 10.6c0 5.1 4.2 9.3 9.4 9.3 1.8 0 3.6-.5 5-1.4l-.3-.7c-1.3-3.3-1-5.4-.9-6.4.3-1.1 1.4-2.6 2-3.4.4-.5 1-1 1.6-1.6.8 1.2 1.2 2.6 1.2 4.2 0 2.3-1 4.4-2.5 6l.6.5c1.7-1.7 2.7-4 2.7-6.5 0-1.8-.5-3.4-1.4-4.8zM9.2.9c1.3 0 2.3 1.2 2.3 2.7s-1 2.7-2.3 2.7-2.3-1.1-2.3-2.7S7.9.9 9.2.9zm0 6.2c1.7 0 3.1-1.6 3.1-3.5 0-.4-.1-.7-.2-1.1 1.2.4 2.2 1 3.1 1.8-.8.7-2 1.6-2.6 2-.9.7-2.4 1.4-3.6 1.4-1.2 0-1.8-.5-2.7-.9-.8-.4-2.1-1.9-2.7-2.5.8-.7 1.7-1.2 2.6-1.6 0 .3-.1.6-.1.9 0 2 1.4 3.5 3.1 3.5zM.8 10.6c0-1.5.4-2.9 1.1-4.2l.3.3s2.5 2.9 3 3.6c.5.7-.1 1.2-.5 3-.3 1.4-.3 3.3-.3 4.2C2.2 15.9.8 13.4.8 10.6zm15.5-4.8c-.4.4-1.8 1.6-3 3.5s-1 3.4-.9 4.5c.1 1.1.4 2.1.5 2.5.1.3.5 1.4.6 1.7-1.2.6-2.6 1-4 1-1.6 0-3-.4-4.3-1.1 0-3.4.2-3.9.3-4.4 0-.5.3-1.5.6-2.3.2-.7-.1-1.3-.4-1.6-.3-.3-3.2-3.8-3.7-4.5-.6-.7-.7-1-.2-1.2.5-.3 1.8 1.3 2.4 2 .5.7 2.8 2.6 4.9 2.5s3.6-1.2 4.2-1.6c.5-.4 3.1-2.5 3.5-2.8.4-.3.9 0 .8.3-.1.3-.9 1.1-1.3 1.5z" fill="#54a791"/></symbol><symbol viewBox="0 0 401.998 401.998" id="phone" xmlns="http://www.w3.org/2000/svg"><path d="M401.129 311.475c-1.137-3.426-8.371-8.473-21.697-15.129-3.61-2.098-8.754-4.949-15.41-8.566a1437.412 1437.412 0 01-18.13-9.996 605.612 605.612 0 01-15.276-8.846c-.76-.571-3.139-2.234-7.136-5-4.001-2.758-7.375-4.805-10.14-6.14-2.759-1.327-5.473-1.995-8.138-1.995-3.806 0-8.56 2.714-14.268 8.135a139.01 139.01 0 00-15.7 17.706c-4.757 6.379-9.802 12.275-15.126 17.7-5.332 5.427-9.713 8.138-13.135 8.138-1.718 0-3.86-.479-6.427-1.424-2.566-.951-4.518-1.766-5.858-2.423-1.328-.671-3.607-1.999-6.845-4.004-3.244-1.999-5.048-3.094-5.428-3.285-26.075-14.469-48.438-31.029-67.093-49.676-18.649-18.658-35.211-41.019-49.676-67.097-.19-.381-1.287-2.19-3.284-5.424-2-3.237-3.333-5.518-3.999-6.854-.666-1.331-1.475-3.283-2.425-5.852s-1.427-4.709-1.427-6.424c0-3.424 2.713-7.804 8.138-13.134 5.424-5.327 11.326-10.373 17.7-15.128a138.95 138.95 0 0017.701-15.699c5.424-5.711 8.136-10.467 8.136-14.273 0-2.663-.666-5.378-1.997-8.137-1.332-2.765-3.378-6.139-6.139-10.138-2.762-3.997-4.427-6.374-4.999-7.139a627.13 627.13 0 01-8.848-15.271 1441.4 1441.4 0 01-9.995-18.131c-3.615-6.658-6.468-11.799-8.564-15.415C98.986 9.233 93.943 1.997 90.516.859 89.183.288 87.183 0 84.521 0c-5.142 0-11.85.95-20.129 2.856-8.282 1.903-14.799 3.899-19.558 5.996-9.517 3.995-19.604 15.605-30.264 34.826C4.863 61.566.01 79.271.01 96.78c0 5.135.333 10.131.999 14.989.666 4.853 1.856 10.326 3.571 16.418 1.712 6.09 3.093 10.614 4.137 13.56 1.045 2.948 2.996 8.229 5.852 15.845 2.852 7.614 4.567 12.275 5.138 13.988 6.661 18.654 14.56 35.307 23.695 49.964 15.03 24.362 35.541 49.539 61.521 75.521 25.981 25.98 51.153 46.49 75.517 61.526 14.655 9.134 31.314 17.032 49.965 23.698 1.714.568 6.375 2.279 13.986 5.141 7.614 2.854 12.897 4.805 15.845 5.852 2.949 1.048 7.474 2.43 13.559 4.145 6.098 1.715 11.566 2.905 16.419 3.576 4.856.657 9.853.996 14.989.996 17.508 0 35.214-4.856 53.105-14.562 19.219-10.656 30.826-20.745 34.823-30.269 2.102-4.754 4.093-11.273 5.996-19.555 1.909-8.278 2.857-14.985 2.857-20.126.006-2.673-.281-4.668-.855-6.012z"/></symbol><symbol fill="none" viewBox="0 0 9 7" id="polygon_1" xmlns="http://www.w3.org/2000/svg"><path d="M4.5 7L.603.25h7.794L4.5 7z" fill="#365A49"/></symbol><symbol fill="none" viewBox="0 0 32 32" id="seaweed" xmlns="http://www.w3.org/2000/svg"><path d="M21.625 5a.47.47 0 00-.469.469.47.47 0 00.469.468.47.47 0 00.469-.468.47.47 0 00-.469-.469zm5.906 21.563h-2.639a1.17 1.17 0 00.155-.582v-1.097c0-.168.122-.286.295-.286h1.411c.69 0 1.247-.567 1.247-1.265 0-1.336-.52-2.588-1.462-3.535-.793-.792-2.129-.215-2.129.882a.31.31 0 01-.309.31h-1.41c-.156 0-.306.027-.446.083l-.146-.398a.308.308 0 01.183-.394l1.032-.375c.646-.234.98-.951.745-1.598l-.375-1.031a.308.308 0 01.183-.394c1.045-.38 1.106-1.828.098-2.302a4.978 4.978 0 00-3.82-.168c-.647.234-.98.951-.746 1.598l.375 1.031a.307.307 0 01-.182.394l-.638.23a1.218 1.218 0 00-.366-.891l-.778-.778a.306.306 0 010-.436l.778-.778a1.245 1.245 0 000-1.763 4.953 4.953 0 00-3.524-1.457c-1.12 0-1.66 1.35-.882 2.128a.306.306 0 010 .436l-.778.778a1.245 1.245 0 000 1.762l.778.778a.306.306 0 010 .436l-.29.29a1.265 1.265 0 00-.511-.35l-1.032-.376a.292.292 0 01-.173-.16.313.313 0 01-.01-.233l.376-1.032a1.25 1.25 0 00-.746-1.598 4.958 4.958 0 00-3.82.169c-1.003.468-.942 1.917.098 2.296.16.057.244.235.183.394l-.375 1.032a1.25 1.25 0 00.746 1.598l1.03.375c.16.056.245.234.184.394l-.146.393a1.213 1.213 0 00-.445-.084H7.89a.31.31 0 01-.309-.31c0-1.096-1.336-1.673-2.128-.88A5.083 5.083 0 004 23.346c0 .689.558 1.247 1.247 1.247h1.36c.173 0 .3.122.3.286v1.097c0 .21.05.407.145.58H4.469a.47.47 0 00-.469.47c0 .257.21.468.469.468H27.53a.466.466 0 100-.933zm-17.493 0a1.224 1.224 0 00-.783-.282H8.158a.308.308 0 01-.314-.3v-1.097c0-.689-.544-1.223-1.238-1.223h-1.36a.309.309 0 01-.309-.31 4.09 4.09 0 011.191-2.887.308.308 0 01.525.216c0 .689.558 1.247 1.247 1.247l1.36-.005a.33.33 0 01.243.117.383.383 0 00.056.094c.014.033.02.07.02.108v1.087c0 .699.552 1.266 1.232 1.266h1.097c.169 0 .295.122.295.286v1.097c0 .21.052.407.15.58h-2.316v.006zm4.523-.282h-1.097c-.173 0-.319-.136-.319-.3v-1.097c0-.689-.539-1.223-1.232-1.223h-1.097c-.16 0-.296-.15-.296-.328v-1.097c0-.15-.028-.295-.08-.431l.291-.802a1.25 1.25 0 00-.745-1.598l-1.031-.375a.304.304 0 01-.183-.394l.375-1.031a1.25 1.25 0 00-.745-1.599.306.306 0 01-.024-.567 4.029 4.029 0 013.103-.136c.16.056.244.234.183.394l-.375 1.031a1.24 1.24 0 00.745 1.594l1.032.375c.08.028.14.089.178.164a1.244 1.244 0 00.168 1.552l.779.778a.306.306 0 010 .436l-.779.778a1.245 1.245 0 000 1.762l1.229 1.228c-.085.263-.085.544.014.816l.028.08a1.15 1.15 0 00-.122-.01zm.684-1.608l-1.176-1.176a.306.306 0 010-.436l.778-.778a1.245 1.245 0 000-1.763l-.778-.778a.306.306 0 010-.436l.778-.778a1.245 1.245 0 000-1.762c-.713-.75-.867-.774-.867-.994a.3.3 0 01.089-.216l.778-.778a1.245 1.245 0 000-1.762.308.308 0 01.216-.525 4.02 4.02 0 012.868 1.19.306.306 0 010 .436l-.778.778a1.245 1.245 0 000 1.763l.778.778a.306.306 0 010 .436l-.778.778a1.245 1.245 0 000 1.763l.54.539-.718.262a1.24 1.24 0 00-.745 1.594l.375 1.031a.308.308 0 01-.183.394l-1.031.375a2.041 2.041 0 00-.146.065zm2.77-4.73l-.196-.196a.31.31 0 01-.024-.413c.024.075.02.057.22.61zm1.618 4.45l.375 1.03a.308.308 0 01-.183.394l-1.031.375a1.225 1.225 0 00-.525.37h-2.49l-.248-.68a.308.308 0 01.183-.393l1.031-.375c.647-.234.98-.951.746-1.598l-.375-1.032a.305.305 0 01.183-.394l1.03-.374c.16-.057.3-.146.423-.258l.004-.005.014-.014c.352-.342.474-.858.305-1.317L18.7 19.09a.308.308 0 01.183-.394l1.031-.375c.647-.235.98-.947.745-1.599l-.375-1.03a.308.308 0 01.183-.395 4.029 4.029 0 013.103.136.307.307 0 01-.023.568c-.647.234-.98.946-.745 1.593l.375 1.032a.308.308 0 01-.183.393l-1.032.375c-.646.235-.98.952-.745 1.599l.328.895c.005.07.028.14.066.202a.305.305 0 01-.202.328l-1.03.375a1.25 1.25 0 00-.746 1.598zm4.476.487v1.097c0 .173-.168.253-.323.253h-1.097c-.276 0-.553.117-.787.328h-1.486c.459-.31.675-.905.473-1.458l-.375-1.031a.308.308 0 01.183-.394l1.031-.375a1.24 1.24 0 00.806-1.34.343.343 0 01.15-.043h1.411c.69 0 1.247-.553 1.247-1.242 0-.277.333-.413.525-.216a4.005 4.005 0 011.195 2.87c0 .173-.145.327-.309.327h-1.41c-.695 0-1.234.54-1.234 1.224zM18.344 5.938a1.874 1.874 0 10-.001 3.748 1.874 1.874 0 000-3.748zm0 2.812a.94.94 0 01-.938-.938.94.94 0 01.938-.937.94.94 0 01.937.938.94.94 0 01-.937.937z" fill="#000"/><path d="M20.688 10.625a1.41 1.41 0 00-1.407 1.406 1.41 1.41 0 001.407 1.406 1.41 1.41 0 001.406-1.406 1.41 1.41 0 00-1.407-1.406zm0 1.875a.47.47 0 01-.47-.469.47.47 0 01.47-.469.47.47 0 01.468.47.47.47 0 01-.468.468z" fill="#000"/></symbol><symbol fill="none" viewBox="0 0 32 32" id="seeds" xmlns="http://www.w3.org/2000/svg"><g clip-path="url(#sclip0)" fill="#000"><path d="M26.482 14.145l-.178-.71-.658.536a5.304 5.304 0 00-.596-1.216l-.127-.179-.22-.019a5.052 5.052 0 00-.926.038l.291-.888-.812.197a10.04 10.04 0 00-.742.216v-.004c.103-5.354-2.152-7.73-2.41-7.98-.005-.005-.01-.005-.014-.01-.005-.004-.01-.013-.014-.018-.033-.023-.066-.038-.103-.056-.02-.01-.033-.02-.052-.029A.53.53 0 0019.728 4h-.004c-.357.038-3.603.484-6.89 4.753-.188.287-.362.587-.526.892-1.494-1.07-2.635-1.343-2.969-1.404a.463.463 0 00-.38.103c-.17.146-1.174 1.062-1.968 3.03-.01.023-.019.042-.028.066-.47 1.188-.864 2.742-.963 4.738.038 1.156.216 2.335.535 3.5.32 1.164.766 2.268 1.344 3.315 1.343 2.02 2.564 2.522 3.56 2.522.591 0 1.108-.178 1.517-.319.216-.075 1.15-.338 1.305-.371.465.944 1.264 1.334 1.846 1.616a30.12 30.12 0 011.39.789c.498.328 1.165.77 2.09.77.879 0 1.987-.4 3.4-1.677a14.918 14.918 0 002.096-2.855 14.95 14.95 0 001.395-3.297c.563-2.753.314-4.796.004-6.026zm-3.03-.554c.423-.09.748-.108.959-.113.122.211.3.578.465 1.113l-2.381 1.926.958-2.926zM18.62 5.249a20.504 20.504 0 00-1.137 1.94.47.47 0 00.193.63c.07.037.146.051.216.051.17 0 .329-.09.413-.249.526-1 1-1.766 1.49-2.419.633.836 1.864 2.969 1.789 6.857a6.937 6.937 0 01-.057.437.143.143 0 00-.037.019c-.122.056-.25.113-.38.178l-.254.127-.146.075c-.474.254-.944.54-1.414.865-.033.018-.06.042-.094.065a14.03 14.03 0 00-.756.569c-.06.051-.127.103-.192.155-.085.066-.165.136-.25.206-.15.127-.3.259-.45.395a14.813 14.813 0 00-1.658 2.133c-.15.234-.296.473-.437.718l-.056.103c-.16.282-.306.568-.446.86-.005.004-.005.014-.01.023l-.01.024-.013.028-.047.103c.366-2.996 1.038-5.81 2.01-8.37a.467.467 0 00-.874-.328c-1.024 2.71-1.728 5.692-2.094 8.872-.085-.024-.165-.052-.254-.075-1.024-.287-2.301-.64-2.24-3.748.108-1.08.357-2.17.732-3.241.198-.564.442-1.132.724-1.696 0-.004 0-.004.004-.009.221-.437.456-.86.71-1.254 1.958-2.536 3.841-3.598 5.025-4.044zm-4.64 18.684c-.179.042-1.02.277-1.325.385-1.005.347-2.254.784-3.978-1.804a13.776 13.776 0 01-1.24-3.08 14.01 14.01 0 01-.502-3.246c.089-1.738.408-3.1.798-4.157.7-.033 1.4-.127 2.076-.296a.462.462 0 00.338-.563.468.468 0 00-.563-.343 9.987 9.987 0 01-1.447.24c.488-1 1-1.597 1.263-1.865.423.108 1.334.423 2.485 1.273-.014.028-.024.06-.038.089a14.255 14.255 0 00-.558 1.367 15.185 15.185 0 00-.785 3.49c-.075 3.865 1.804 4.39 2.921 4.7.221.062.879.343.893.343h.019c-.01.024-.014.052-.024.08-.09.245-.164.48-.23.705-.005.014-.005.023-.01.037a9.18 9.18 0 00-.117.71c-.01.075-.014.15-.023.225a16.21 16.21 0 00-.038.432c-.005.075-.005.141-.005.216-.004.141 0 .277.005.409.005.051.005.103.01.15.014.174.032.334.06.484.01.005.01.014.015.019zm11.6-3.978a13.985 13.985 0 01-1.3 3.057 13.94 13.94 0 01-1.936 2.649c-2.334 2.109-3.438 1.38-4.325.794a23.638 23.638 0 00-1.498-.855c-.569-.277-1.217-.597-1.522-1.442 0-.01 0-.019-.005-.023-.225-.649-.225-1.536-.005-2.635.057-.198.122-.4.193-.597a14.852 14.852 0 01.61-1.494l.024-.05v-.006a13.434 13.434 0 01.874-1.573c.145-.225.295-.446.45-.658l.005-.004v-.005a13.48 13.48 0 011.071-1.306c.193-.173.385-.338.573-.493.056-.047.113-.089.164-.136.141-.113.277-.22.414-.32l.169-.126c.145-.103.286-.207.427-.3l.127-.085a13.65 13.65 0 011.07-.639c.071-.038.142-.07.207-.103.1-.047.198-.099.292-.146a11.886 11.886 0 01.986-.404l-2.02 6.176 5.101-4.128c.197 1.15.268 2.785-.146 4.852z"/><path d="M19.583 15.939c-.146.084-3.537 2.174-3.753 6.392a.464.464 0 00.441.489h.024c.244 0 .45-.193.465-.442.188-3.71 3.269-5.622 3.302-5.64a.466.466 0 00-.48-.8z"/></g><defs><clipPath id="sclip0"><path fill="#fff" transform="translate(6 4)" d="M0 0h20.816v24H0z"/></clipPath></defs></symbol><symbol id="truck" viewBox="0 0 18.2 14.8" xml:space="preserve" xmlns="http://www.w3.org/2000/svg"><style>.tst0{fill:#51b098}</style><path class="tst0" d="M2.9 5.7l1-.8H4c.3 0 .5-.2.5-.5 0-.2-.1-.3-.2-.4V1.9h-.5V4c-.2.1-.3.2-.3.4v.1l-1 .8.4.4z"/><path class="tst0" d="M18.1 11.1V7.9c0-1-.4-1.4-.4-1.4s-1-1.3-1.6-2.1-1.4-.8-1.4-.8h-3.4v-.5c0-.7-.5-1.2-1.2-1.2H7.2C6.5.9 5.3.2 4 .2 1.8.2.1 2 .1 4.2c0 .9.3 1.7.8 2.4V11c0 .7.5 1.2 1.2 1.2h.5v.1c0 1.2 1 2.2 2.2 2.2 1.2 0 2.2-1 2.2-2.2v-.1h5v.1c0 1.2 1 2.2 2.2 2.2 1.2 0 2.2-1 2.2-2.2v-.1h.2c1.7.1 1.5-1.1 1.5-1.1zm-.5-3.5v.3h-3.9c-.2 0-.4-.2-.4-.4V5.9c0-.2.2-.4.4-.4h2.6c.3.3.6.7.8 1 .5.6.5 1.1.5 1.1zM4 .8c1.9 0 3.5 1.5 3.5 3.5S5.9 7.7 4 7.7.6 6.1.6 4.2 2.1.8 4 .8zM4.7 14c-.9 0-1.6-.7-1.6-1.6s.7-1.6 1.6-1.6 1.6.7 1.6 1.6S5.6 14 4.7 14zm2-2.3c-.3-.8-1.1-1.5-2-1.5-.9 0-1.7.6-2 1.5H2c-.3 0-.6-.3-.6-.6v-4c.7.6 1.6 1 2.6 1 2.2 0 3.9-1.8 3.9-3.9 0-.6-.2-1.2-.4-1.7h2.6c.3 0 .6.3.6.6v8c0 .3-.3.6-.6.6H6.7zm7.4 2.3c-.9 0-1.6-.7-1.6-1.6s.7-1.6 1.6-1.6 1.6.7 1.6 1.6S15 14 14.1 14zm2.5-2.2h-.4c-.3-.9-1.1-1.5-2-1.5-1 0-1.8.6-2 1.5h-1c.2-.2.3-.4.3-.7V4h3.1c.9 0 1.3.6 1.3.6s-.1.2.1.4h-2.3c-.5 0-.8.4-.8.8v1.6c0 .5.4.8.8.8h4v2.6c-.1 1.1-1.1 1-1.1 1z"/></symbol><symbol viewBox="0 0 36.7 36.7" id="tw" xmlns="http://www.w3.org/2000/svg"><path d="M35.7 3.7c-1.5.9-3.1 1.5-4.8 1.9-1.4-1.5-3.3-2.4-5.5-2.4-4.2 0-7.5 3.5-7.5 7.7 0 .6.1 1.2.2 1.8-6.3-.4-11.8-3.5-15.5-8.2-.6 1.1-1 2.5-1 3.9 0 2.7 1.3 5 3.4 6.4-1.2 0-2.4-.4-3.4-1v.2c0 3.7 2.6 6.9 6 7.6-.6.2-1.3.3-2 .3-.5 0-1 0-1.4-.1 1 3.1 3.7 5.3 7 5.4-2.6 2.1-5.8 3.3-9.4 3.3-.6 0-1.2 0-1.8-.1 3.3 2.2 7.3 3.5 11.5 3.5 13.9 0 21.4-11.8 21.4-22v-1c1.5-1.1 2.8-2.4 3.8-4-1.3.6-2.8 1-4.3 1.2 1.5-1.1 2.7-2.6 3.3-4.4" fill="#b3b3b3"/></symbol><symbol viewBox="0 0 36.7 36.7" id="vk" xmlns="http://www.w3.org/2000/svg"><path d="M36.5 26.8c0-.1-.1-.2-.1-.2-.6-1.1-1.9-2.6-3.7-4.2-.8-.8-1.3-1.3-1.5-1.6-.4-.5-.5-1-.3-1.5.2-.4.7-1.2 1.7-2.5.5-.7.9-1.2 1.2-1.6 2.2-2.9 3.2-4.8 2.9-5.6l-.1-.2c-.1-.3-.3-.4-.6-.5-.3-.1-.7-.1-1.2 0h-5.9c-.2 0-.2.1-.2.1h-.1l-.1.1c-.1 0-.1.1-.2.2s-.1.2-.2.3c-.6 1.5-1.3 3-2 4.3-.5.8-.9 1.5-1.3 2.1-.4.6-.7 1-1 1.3l-.7.7c-.2.2-.4.2-.5.2-.1 0-.2-.1-.3-.1-.2-.1-.3-.3-.4-.5-.1-.2-.2-.4-.2-.7 0-.3-.1-.6-.1-.8V10.4c0-.4 0-.7-.1-.9 0-.2-.1-.4-.2-.6-.1-.2-.2-.4-.4-.5l-.6-.3c-.7-.2-1.5-.2-2.6-.2-2.4 0-3.9.1-4.6.5-.3.1-.5.3-.7.6-.2.3-.3.4-.1.5.8.1 1.3.4 1.6.8l.1.2c.1.2.2.5.3.9.1.4.1.9.2 1.4.1.9.1 1.7 0 2.4s-.1 1.2-.2 1.5c-.1.4-.1.7-.3.9l-.2.4c0 .1-.1.1-.1.1-.2.1-.3.1-.5.1s-.4-.1-.6-.3c-.3-.2-.5-.4-.8-.7-.3-.3-.6-.7-.9-1.3-.3-.6-.7-1.2-1.1-2l-.3-.6c-.2-.4-.5-.9-.8-1.6-.3-.7-.6-1.3-.9-2-.1-.2-.3-.4-.5-.6h-.1C7.1 9 7 9 6.9 8.9c-.1 0-.3-.1-.4-.1H1.3c-.6 0-1 .2-1.2.4v.1c-.1.1-.1.2-.1.3 0 .1 0 .3.1.5.8 1.8 1.6 3.5 2.5 5.2.9 1.7 1.7 3 2.3 4 .7 1 1.3 2 2 2.9.7.9 1.1 1.5 1.4 1.7.2.3.4.4.5.6l.5.5c.3.3.8.7 1.3 1.1.6.4 1.2.8 2 1.3.7.4 1.6.8 2.5 1 1 .3 1.9.4 2.8.3h2.2c.4 0 .8-.2 1-.4l.1-.1c.1-.1.1-.2.1-.4s.1-.3.1-.5c0-.5 0-1 .1-1.5.1-.4.2-.8.3-1 .1-.2.3-.4.4-.6.2-.2.3-.2.3-.3.1 0 .1-.1.2-.1.3-.1.7 0 1.1.3.4.3.8.7 1.2 1.1.4.4.8.9 1.3 1.5.5.5 1 1 1.3 1.2l.4.2c.3.2.6.3 1 .4.4.1.8.2 1.1.1l4.9-.1c.5 0 .9-.1 1.1-.2.3-.2.4-.3.5-.5.1-.2.1-.4 0-.7 0 0 0-.2-.1-.3zm0 0" fill="#b3b3b3"/></symbol><symbol fill="none" viewBox="0 0 32 32" id="washing-powder" xmlns="http://www.w3.org/2000/svg"><path d="M8.481 11.45a.469.469 0 100-.938.469.469 0 000 .938zm3.007 0a.469.469 0 100-.937.469.469 0 000 .937zm-1.507 1.969a.469.469 0 100-.938.469.469 0 000 .938zm3.007 0a.469.469 0 100-.938.469.469 0 000 .938zm-9.05 0a.469.469 0 100-.938.469.469 0 000 .938zm3.037 0a.469.469 0 100-.938.469.469 0 000 .938zm3.006-3.944a.469.469 0 100-.938.469.469 0 000 .938zm-3.006 0a.469.469 0 100-.938.469.469 0 000 .938zM5.506 11.45a.469.469 0 100-.938.469.469 0 000 .938z" fill="#000"/><path d="M30.525 14.019h-4.469a.468.468 0 100 .937h4.469a.53.53 0 01.531.532v.156a.53.53 0 01-.444.525L16.42 18.53a.47.47 0 00-.394.463V21.5a3.542 3.542 0 01-3.537 3.538h-8.02A3.542 3.542 0 01.932 21.5v-6.544h22.813a.468.468 0 100-.937h-6.938a21.93 21.93 0 00-2.062-3.806C12.856 7.456 10.688 6 8.48 6 6.275 6 4.1 7.456 2.206 10.213.813 12.238.056 14.238.025 14.319v.006c-.006.013-.006.025-.013.038 0 .006 0 .006-.006.012C0 14.387 0 14.4 0 14.419V21.5a4.478 4.478 0 004.475 4.475h8.019a4.478 4.478 0 004.475-4.475v-2.106l13.8-2.3A1.47 1.47 0 0032 15.644v-.156a1.48 1.48 0 00-1.475-1.47zM8.481 6.937c3.832 0 6.488 5.232 7.313 7.075H1.169c.819-1.843 3.475-7.075 7.312-7.075z" fill="#000"/></symbol></svg>