<svg xmlns="http://www.w3.org/2000/svg">

<!-- logo -->

<symbol id="vectorC" viewBox="0 0 16 18">
        <path d="M0 8.56477C0 6.10363 0.8 4.13472 2.4 2.46114C4.1 0.88601 6.1 0 8.6 0C11.2 0 13.2 0.689119 14.8 2.1658L13.6 3.93782C13 3.34715 12.2 2.95337 11.3 2.65803C10.4 2.36269 9.6 2.1658 8.7 2.1658C6.8 2.1658 5.3 2.75648 4.1 3.93782C3 5.21762 2.5 6.6943 2.5 8.56477C2.5 10.4352 3.1 12.0104 4.2 13.2902C5.4 14.5699 6.9 15.1606 8.8 15.1606C9.7 15.1606 10.7 14.9637 11.6 14.5699C12.5 14.1762 13.3 13.6839 14 12.9948L15.3 14.6684C13.5 16.4404 11.3 17.3264 8.7 17.3264C6.1 17.3264 4 16.5389 2.4 14.8653C0.8 13.0933 0 11.0259 0 8.56477Z" fill="white"/>
    </symbol>
    <symbol id="vectorH" viewBox="0 0 14 18">
        <path d="M0.299988 17.0311V0.295334H2.59999V7.58031H11.4V0.295334H13.8V16.9326H11.4V9.64767H2.59999V16.9326H0.299988V17.0311Z" fill="white"/>
    </symbol>
    <symbol id="vectorO" viewBox="0 0 18 18">
        <path d="M0.200012 8.56477C0.200012 6.20207 1.00001 4.13472 2.70001 2.46114C4.30001 0.787565 6.40001 0 8.90001 0C11.4 0 13.5 0.787565 15.1 2.46114C16.8 4.13472 17.6 6.10363 17.6 8.56477C17.6 11.0259 16.8 13.0933 15.1 14.7668C13.4 16.4404 11.4 17.3264 8.90001 17.3264C6.40001 17.3264 4.30001 16.4404 2.70001 14.7668C1.00001 13.0933 0.200012 11.0259 0.200012 8.56477ZM2.70001 8.56477C2.70001 10.4352 3.30001 12.0104 4.50001 13.2902C5.70001 14.5699 7.20001 15.1606 9.00001 15.1606C10.8 15.1606 12.3 14.5699 13.5 13.2902C14.7 12.0104 15.3 10.4352 15.3 8.56477C15.3 6.79275 14.7 5.21762 13.5 4.03627C12.3 2.85492 10.8 2.1658 9.00001 2.1658C7.20001 2.1658 5.70001 2.75648 4.50001 4.03627C3.20001 5.21762 2.70001 6.6943 2.70001 8.56477Z" fill="white"/>
    </symbol>
    <symbol id="vectorC" viewBox="0 0 16 18">
        <path d="M0 8.56477C0 6.10363 0.8 4.13472 2.4 2.46114C4.1 0.88601 6.1 0 8.6 0C11.2 0 13.2 0.689119 14.8 2.1658L13.6 3.93782C13 3.34715 12.2 2.95337 11.3 2.65803C10.4 2.36269 9.6 2.1658 8.7 2.1658C6.8 2.1658 5.3 2.75648 4.1 3.93782C3 5.21762 2.5 6.6943 2.5 8.56477C2.5 10.4352 3.1 12.0104 4.2 13.2902C5.4 14.5699 6.9 15.1606 8.8 15.1606C9.7 15.1606 10.7 14.9637 11.6 14.5699C12.5 14.1762 13.3 13.6839 14 12.9948L15.3 14.6684C13.5 16.4404 11.3 17.3264 8.7 17.3264C6.1 17.3264 4 16.5389 2.4 14.8653C0.8 13.0933 0 11.0259 0 8.56477Z" fill="white"/>
    </symbol>
    <symbol id="vectorC" viewBox="0 0 16 18">
        <path d="M0 8.56477C0 6.10363 0.8 4.13472 2.4 2.46114C4.1 0.88601 6.1 0 8.6 0C11.2 0 13.2 0.689119 14.8 2.1658L13.6 3.93782C13 3.34715 12.2 2.95337 11.3 2.65803C10.4 2.36269 9.6 2.1658 8.7 2.1658C6.8 2.1658 5.3 2.75648 4.1 3.93782C3 5.21762 2.5 6.6943 2.5 8.56477C2.5 10.4352 3.1 12.0104 4.2 13.2902C5.4 14.5699 6.9 15.1606 8.8 15.1606C9.7 15.1606 10.7 14.9637 11.6 14.5699C12.5 14.1762 13.3 13.6839 14 12.9948L15.3 14.6684C13.5 16.4404 11.3 17.3264 8.7 17.3264C6.1 17.3264 4 16.5389 2.4 14.8653C0.8 13.0933 0 11.0259 0 8.56477Z" fill="white"/>
    </symbol>
    <symbol id="vectorO" viewBox="0 0 18 18">
        <path d="M0.200012 8.56477C0.200012 6.20207 1.00001 4.13472 2.70001 2.46114C4.30001 0.787565 6.40001 0 8.90001 0C11.4 0 13.5 0.787565 15.1 2.46114C16.8 4.13472 17.6 6.10363 17.6 8.56477C17.6 11.0259 16.8 13.0933 15.1 14.7668C13.4 16.4404 11.4 17.3264 8.90001 17.3264C6.40001 17.3264 4.30001 16.4404 2.70001 14.7668C1.00001 13.0933 0.200012 11.0259 0.200012 8.56477ZM2.70001 8.56477C2.70001 10.4352 3.30001 12.0104 4.50001 13.2902C5.70001 14.5699 7.20001 15.1606 9.00001 15.1606C10.8 15.1606 12.3 14.5699 13.5 13.2902C14.7 12.0104 15.3 10.4352 15.3 8.56477C15.3 6.79275 14.7 5.21762 13.5 4.03627C12.3 2.85492 10.8 2.1658 9.00001 2.1658C7.20001 2.1658 5.70001 2.75648 4.50001 4.03627C3.20001 5.21762 2.70001 6.6943 2.70001 8.56477Z" fill="white"/>

<!-- phone -->

<symbol id="phone" viewBox="0 0 401.998 401.998">
        <path d="M401.129,311.475c-1.137-3.426-8.371-8.473-21.697-15.129c-3.61-2.098-8.754-4.949-15.41-8.566
		c-6.662-3.617-12.709-6.95-18.13-9.996c-5.432-3.045-10.521-5.995-15.276-8.846c-0.76-0.571-3.139-2.234-7.136-5
		c-4.001-2.758-7.375-4.805-10.14-6.14c-2.759-1.327-5.473-1.995-8.138-1.995c-3.806,0-8.56,2.714-14.268,8.135
		c-5.708,5.428-10.944,11.324-15.7,17.706c-4.757,6.379-9.802,12.275-15.126,17.7c-5.332,5.427-9.713,8.138-13.135,8.138
		c-1.718,0-3.86-0.479-6.427-1.424c-2.566-0.951-4.518-1.766-5.858-2.423c-1.328-0.671-3.607-1.999-6.845-4.004
		c-3.244-1.999-5.048-3.094-5.428-3.285c-26.075-14.469-48.438-31.029-67.093-49.676c-18.649-18.658-35.211-41.019-49.676-67.097
		c-0.19-0.381-1.287-2.19-3.284-5.424c-2-3.237-3.333-5.518-3.999-6.854c-0.666-1.331-1.475-3.283-2.425-5.852
		s-1.427-4.709-1.427-6.424c0-3.424,2.713-7.804,8.138-13.134c5.424-5.327,11.326-10.373,17.7-15.128
		c6.379-4.755,12.275-9.991,17.701-15.699c5.424-5.711,8.136-10.467,8.136-14.273c0-2.663-0.666-5.378-1.997-8.137
		c-1.332-2.765-3.378-6.139-6.139-10.138c-2.762-3.997-4.427-6.374-4.999-7.139c-2.852-4.755-5.799-9.846-8.848-15.271
		c-3.049-5.424-6.377-11.47-9.995-18.131c-3.615-6.658-6.468-11.799-8.564-15.415C98.986,9.233,93.943,1.997,90.516,0.859
		C89.183,0.288,87.183,0,84.521,0c-5.142,0-11.85,0.95-20.129,2.856c-8.282,1.903-14.799,3.899-19.558,5.996
		c-9.517,3.995-19.604,15.605-30.264,34.826C4.863,61.566,0.01,79.271,0.01,96.78c0,5.135,0.333,10.131,0.999,14.989
		c0.666,4.853,1.856,10.326,3.571,16.418c1.712,6.09,3.093,10.614,4.137,13.56c1.045,2.948,2.996,8.229,5.852,15.845
		c2.852,7.614,4.567,12.275,5.138,13.988c6.661,18.654,14.56,35.307,23.695,49.964c15.03,24.362,35.541,49.539,61.521,75.521
		c25.981,25.98,51.153,46.49,75.517,61.526c14.655,9.134,31.314,17.032,49.965,23.698c1.714,0.568,6.375,2.279,13.986,5.141
		c7.614,2.854,12.897,4.805,15.845,5.852c2.949,1.048,7.474,2.43,13.559,4.145c6.098,1.715,11.566,2.905,16.419,3.576
		c4.856,0.657,9.853,0.996,14.989,0.996c17.508,0,35.214-4.856,53.105-14.562c19.219-10.656,30.826-20.745,34.823-30.269
		c2.102-4.754,4.093-11.273,5.996-19.555c1.909-8.278,2.857-14.985,2.857-20.126C401.99,314.814,401.703,312.819,401.129,311.475z"
		/>
    </symbol>

<!-- hero svg -->

    <symbol id="_x31_" viewBox="0 0 16 15.2">
        <path class="st0" d="M2.3,9.3c0,0.2,0.1,0.4,0.1,0.6C2.4,10.7,2.5,12,2.5,12H3C3,12,3,9.9,2.7,8.8c-0.3-1.2-0.4-3.4,0.3-5L2.5,3.6
            c0,0-0.6,1.2-0.6,3.1c0,1.2,0.1,1.7,0.2,2.2C1.7,8.6,0.6,7.6,0.7,5.5C0.9,3.1,3,0.9,3,0.9s3.7,3.5,0.4,7.4l0.4,0.3
            c0,0,1.5-1.7,1.5-3.6c0-1.9-0.8-3.5-2.3-4.8c0,0-2.6,2.5-2.8,5.5C0.1,8.5,2.2,9.5,2.2,9.5L2.3,9.3z"/>
        <path class="st0" d="M7.5,6.7C3.8,7.8,4,11.4,4.1,12.2c-1.3,1.3-1.9,2.5-1.9,2.5l0.4,0.2c3.8-6.3,9.7-5.1,9.7-5.1V9.3
            c-3.6-0.4-6.1,1-7.8,2.4l0,0C4.4,10.4,5,7.3,8.8,7c4.4-0.1,6.5,2.5,6.5,2.5c-2.3,3.7-4.9,4.2-6.5,4.4C7.1,14.2,5,13,5,13l-0.2,0.4
            c0,0,1.8,1.2,4.1,1c5-0.6,6.9-5,6.9-5C15.3,8.4,11.6,5.7,7.5,6.7z"/>
    </symbol>
    <symbol id="_x31__2_" viewBox="0 0 18.2 14.8">
            <path class="st0" d="M2.9,5.7l1-0.8c0,0,0.1,0,0.1,0c0.3,0,0.5-0.2,0.5-0.5c0-0.2-0.1-0.3-0.2-0.4V1.9H3.8V4
            C3.6,4.1,3.5,4.2,3.5,4.4c0,0,0,0.1,0,0.1l-1,0.8L2.9,5.7z"/>
        <path class="st0" d="M18.1,11.1V7.9c0-1-0.4-1.4-0.4-1.4s-1-1.3-1.6-2.1s-1.4-0.8-1.4-0.8h-3.4V3.1c0-0.7-0.5-1.2-1.2-1.2H7.2
            C6.5,0.9,5.3,0.2,4,0.2C1.8,0.2,0.1,2,0.1,4.2c0,0.9,0.3,1.7,0.8,2.4V11c0,0.7,0.5,1.2,1.2,1.2h0.5c0,0,0,0.1,0,0.1
            c0,1.2,1,2.2,2.2,2.2c1.2,0,2.2-1,2.2-2.2c0-0.1,0-0.1,0-0.1H10h0.1c0.3,0,1,0,1.9,0c0,0,0,0.1,0,0.1c0,1.2,1,2.2,2.2,2.2
            c1.2,0,2.2-1,2.2-2.2c0-0.1,0-0.1,0-0.1c0.1,0,0.2,0,0.2,0C18.3,12.3,18.1,11.1,18.1,11.1z M17.6,7.6c0,0,0,0.1,0,0.3h-3.9
            c-0.2,0-0.4-0.2-0.4-0.4V5.9c0-0.2,0.2-0.4,0.4-0.4h2.6c0.3,0.3,0.6,0.7,0.8,1C17.6,7.1,17.6,7.6,17.6,7.6z M4,0.8
            c1.9,0,3.5,1.5,3.5,3.5S5.9,7.7,4,7.7S0.6,6.1,0.6,4.2S2.1,0.8,4,0.8z M4.7,14c-0.9,0-1.6-0.7-1.6-1.6s0.7-1.6,1.6-1.6
            s1.6,0.7,1.6,1.6S5.6,14,4.7,14z M6.7,11.7c-0.3-0.8-1.1-1.5-2-1.5c-0.9,0-1.7,0.6-2,1.5H2c-0.3,0-0.6-0.3-0.6-0.6V7.1
            c0.7,0.6,1.6,1,2.6,1c2.2,0,3.9-1.8,3.9-3.9c0-0.6-0.2-1.2-0.4-1.7h2.6c0.3,0,0.6,0.3,0.6,0.6v8c0,0.3-0.3,0.6-0.6,0.6H6.7z
            M14.1,14c-0.9,0-1.6-0.7-1.6-1.6s0.7-1.6,1.6-1.6s1.6,0.7,1.6,1.6S15,14,14.1,14z M16.6,11.8h-0.4c-0.3-0.9-1.1-1.5-2-1.5
            c-1,0-1.8,0.6-2,1.5h-1c0.2-0.2,0.3-0.4,0.3-0.7V4c0,0,2.2,0,3.1,0c0.9,0,1.3,0.6,1.3,0.6S15.8,4.8,16,5h-2.3
            c-0.5,0-0.8,0.4-0.8,0.8v1.6c0,0.5,0.4,0.8,0.8,0.8h4c0,0.8,0,2,0,2.6C17.6,11.9,16.6,11.8,16.6,11.8z"/>
    </symbol>
    <symbol id="_x31__3_" viewBox="0 0 15.2 15.2">
        <path class="st0" d="M4.3,3c0,0.2,0.4,0.4,1,0.4c0.6,0,1-0.2,1-0.4c0-0.2-0.4-0.4-1-0.4C4.8,2.6,4.3,2.7,4.3,3z"/>
	<path class="st0" d="M15.1,6.7c0-1-0.8-1.8-1.8-1.8h-0.4v0H4.1c0,0-2.4,0.1-3.5-1.8c0.1-1.4,1.2-2.4,2.6-2.4h4
		c1.5,0,2.6,1.2,2.6,2.6v0.5h0.5V3.4c0-1.8-1.4-3.2-3.2-3.2H3.3c-1.8,0-3.2,1.4-3.2,3.2v1.3v0.2v3.2c0,1.8,1.4,3.2,3.2,3.2H4v-0.5
		H3.2c-1.5,0-2.6-1.2-2.6-2.6V4.9V4.7V4C0.9,4.4,1.9,5.4,4,5.4c3,0,8.8,0,8.8,0h0.5c0.7,0,1.2,0.5,1.2,1.2v0.6v0.2
		c0,0.7-0.5,1.2-1.2,1.2h-0.1v0H6.9c-1,0-1.8,0.8-1.8,1.8v2.7c0,1,0.8,1.8,1.8,1.8h6.4c1,0,1.8-0.8,1.8-1.8v-2.7c0,0,0-2.4,0-3.1
		c0,0,0,0,0-0.1V6.7z M14.5,13.3c0,0.7-0.5,1.2-1.2,1.2H6.8c-0.7,0-1.2-0.5-1.2-1.2v-2.9c0-0.7,0.5-1.2,1.2-1.2h1.9v1.7h0.5V9.2h2.3
		v0h0.9v1.7h0.5V9.2h0.4c0.5,0,1-0.2,1.3-0.5V13.3z"/>
    </symbol>
<!-- benefits svg -->

    <symbol id="face" viewBox="0 0 20.6 20.8">
            <path class="st0" d="M10.3,0.2C4.7,0.2,0.1,4.8,0.1,10.4c0,5.6,4.6,10.2,10.2,10.2c5.6,0,10.2-4.6,10.2-10.2
            C20.5,4.8,15.9,0.2,10.3,0.2z M10.3,19.8c-5.2,0-9.4-4.2-9.4-9.4C0.9,5.2,5.1,1,10.3,1s9.4,4.2,9.4,9.4
            C19.7,15.6,15.5,19.8,10.3,19.8z"/>
        <path class="st0" d="M10.3,15.7c-3.5,0-5.6-3.1-5.6-3.1L4,13.1c2.8,3.6,6.3,3.5,6.3,3.5s3.5,0.2,6.3-3.5l-0.7-0.5
            C15.9,12.6,13.8,15.7,10.3,15.7z"/>
        <path class="st0" d="M6.9,11.5C9.3,10.4,9.7,9,9.7,8.3c0-0.8-0.5-1.7-1.4-1.7c-1,0-1.4,0.5-1.4,0.5S6.5,6.6,5.5,6.6
            c-0.9,0-1.4,1-1.4,1.7C4.1,9,4.5,10.4,6.9,11.5z M6.9,8.1c0.5-0.8,1.9-0.9,2,0.1c0,1.4-2,2.4-2,2.4s-2-1-2-2.4
            C5,7.2,6.4,7.3,6.9,8.1z"/>
        <path class="st0" d="M13.7,11.5c2.4-1.1,2.8-2.5,2.8-3.1c0-0.8-0.5-1.7-1.4-1.7c-1,0-1.4,0.5-1.4,0.5s-0.4-0.5-1.4-0.5
            c-0.9,0-1.4,1-1.4,1.7C10.9,9,11.3,10.4,13.7,11.5z M13.7,8.1c0.5-0.8,1.9-0.9,2,0.1c0,1.4-2,2.4-2,2.4s-2-1-2-2.4
            C11.8,7.2,13.2,7.3,13.7,8.1z"/>
    </symbol>
    <symbol id="person" viewBox="0 0 18.8 20">
            <path class="st0" d="M17.4,5.8c0.2-0.2,0.4-0.4,0.5-0.6c0.7-0.9,0.6-1.3-0.1-1.9S16,3.6,16,3.6s-0.1,0.1-0.2,0.2
	c-1.1-1-2.5-1.8-4.1-2.2c-0.6-0.9-1.5-1.5-2.5-1.5c-1.1,0-2,0.7-2.6,1.6c-1.3,0.4-2.5,1.1-3.5,2C2.9,3.6,2.5,3.2,2,3.1
	C1.3,3,0.6,3.5,0.5,4.2c0,0.4,0.4,1,0.9,1.6C0.5,7.2,0,8.8,0,10.6c0,5.1,4.2,9.3,9.4,9.3c1.8,0,3.6-0.5,5-1.4l-0.3-0.7c0,0,0,0,0,0
	c-1.3-3.3-1-5.4-0.9-6.4c0.3-1.1,1.4-2.6,2-3.4c0.4-0.5,1-1,1.6-1.6C17.6,7.6,18,9,18,10.6c0,2.3-1,4.4-2.5,6l0.6,0.5
	c1.7-1.7,2.7-4,2.7-6.5C18.8,8.8,18.3,7.2,17.4,5.8z M9.2,0.9c1.3,0,2.3,1.2,2.3,2.7s-1,2.7-2.3,2.7S6.9,5.2,6.9,3.6
	S7.9,0.9,9.2,0.9z M9.2,7.1c1.7,0,3.1-1.6,3.1-3.5c0-0.4-0.1-0.7-0.2-1.1c1.2,0.4,2.2,1,3.1,1.8c-0.8,0.7-2,1.6-2.6,2
	C11.7,7,10.2,7.7,9,7.7c-1.2,0-1.8-0.5-2.7-0.9C5.5,6.4,4.2,4.9,3.6,4.3c0.8-0.7,1.7-1.2,2.6-1.6C6.2,3,6.1,3.3,6.1,3.6
	C6.1,5.6,7.5,7.1,9.2,7.1z M0.8,10.6c0-1.5,0.4-2.9,1.1-4.2c0.2,0.2,0.3,0.3,0.3,0.3s2.5,2.9,3,3.6c0.5,0.7-0.1,1.2-0.5,3
	c-0.3,1.4-0.3,3.3-0.3,4.2C2.2,15.9,0.8,13.4,0.8,10.6z M16.3,5.8c-0.4,0.4-1.8,1.6-3,3.5c-1.2,1.9-1,3.4-0.9,4.5
	c0.1,1.1,0.4,2.1,0.5,2.5c0.1,0.3,0.5,1.4,0.6,1.7c-1.2,0.6-2.6,1-4,1c-1.6,0-3-0.4-4.3-1.1c0-3.4,0.2-3.9,0.3-4.4
	C5.5,13,5.8,12,6.1,11.2C6.3,10.5,6,9.9,5.7,9.6C5.4,9.3,2.5,5.8,2,5.1c-0.6-0.7-0.7-1-0.2-1.2c0.5-0.3,1.8,1.3,2.4,2
	c0.5,0.7,2.8,2.6,4.9,2.5s3.6-1.2,4.2-1.6c0.5-0.4,3.1-2.5,3.5-2.8c0.4-0.3,0.9,0,0.8,0.3C17.5,4.6,16.7,5.4,16.3,5.8z"/>
    </symbol>

    <symbol id="biceps" viewBox="0 0 22.3 18.9">
       <path class="st0" d="M17.4,3.1c-2.1,0-4.8,1.5-4.7,4.6c0,0-4.1-1.3-5.3,3c0,0-0.7-1.5-1.6-2.2C4.8,7.8,3.6,6,3.5,5.1
	c0.1-0.5,0.2-0.5,0.4-0.6c0.1,0,0.1,0.8,1,0.9c0.8-0.1,1-0.3,1.3-0.7l0.9-1c0,0,0.9-1.2,0.1-1.8C6.5,1.2,5.2-0.1,3.6,0.2
	C2.7,0.4,2,1.1,2,1.1L0.8,2.2C0.8,2.2,0,3,0,4.6c0,1.4,0.3,3.7,0.3,3.7s0.3,1.8,0.4,2.4c0.1,0.6,0.9,4.1,2.8,6
	c1.2,1.4,1.9,2,2.5,2.1c1,0,1.5-0.6,2.3-0.6c0.8,0,1.6,0.6,3.3,0.6s5.5-1,7.1-5.9c1.5-0.6,3.6-1.7,3.6-5C22.3,4.6,19.4,3.1,17.4,3.1
	z M18.1,12.3c-1.1,4.4-4.6,5.6-6.3,5.8c-1.6,0-2.5-0.6-3.7-0.6c-0.7,0-1.7,0.6-2,0.6s-1.1-0.7-2.1-1.8s-1.4-2.1-1.8-2.9
	c-0.4-0.8-1.1-4-1.1-4S0.8,6.2,0.8,4.8c0-1.3,0.6-2.1,0.6-2.1S2.2,2,3,1.3c0.9-0.7,2-0.2,2-0.2s1.1,0.7,1.5,1.1c0.5,0.4,0,0.8,0,0.8
	S5.4,4.4,5,4.5C4.5,4.6,4.4,3.4,4.4,3.4C3.9,3.6,3.1,3.8,2.8,4.7C2.5,5.8,4.1,8.1,5.3,9.2c1.1,1.1,1.8,2.9,1.8,2.9L8,11.8
	c0,0-0.1-2.1,1.7-3.2c2-1.1,3.8,0.4,3.8,0.4c-0.6-5,3.8-5.1,4.1-5.1s3.8,0.3,4.1,3.8C21.5,11.7,18.1,12.3,18.1,12.3z"/>
    </symbol>

<!-- form -->

    <symbol id="checkmark" viewBox="0 0 10.9 8.7">
       <path class="st0" d="M10.3,0.6L10.3,0.6C9.6-0.2,8.4-0.2,7.7,0.5L4,4.2L3.2,3.4c-0.7-0.7-1.9-0.7-2.6,0L0.5,3.4
	c-0.7,0.7-0.7,1.9,0,2.6l2.2,2.2C3.1,8.6,3.6,8.7,4,8.7c0.5,0,0.9-0.2,1.3-0.5l5-5C11,2.5,11,1.3,10.3,0.6z"/>
    </symbol>

    <!-- socials -->

    <symbol id="vk" viewBox="0 0 36.7 36.7">
       <path class="st0" d="M36.5,26.8c0-0.1-0.1-0.2-0.1-0.2c-0.6-1.1-1.9-2.6-3.7-4.2l0,0l0,0l0,0h0c-0.8-0.8-1.3-1.3-1.5-1.6
	c-0.4-0.5-0.5-1-0.3-1.5c0.2-0.4,0.7-1.2,1.7-2.5c0.5-0.7,0.9-1.2,1.2-1.6c2.2-2.9,3.2-4.8,2.9-5.6l-0.1-0.2C36.5,9.1,36.3,9,36,8.9
	c-0.3-0.1-0.7-0.1-1.2,0l-5.5,0c-0.1,0-0.2,0-0.4,0c-0.2,0-0.2,0.1-0.2,0.1l-0.1,0l-0.1,0.1c-0.1,0-0.1,0.1-0.2,0.2
	c-0.1,0.1-0.1,0.2-0.2,0.3c-0.6,1.5-1.3,3-2,4.3c-0.5,0.8-0.9,1.5-1.3,2.1c-0.4,0.6-0.7,1-1,1.3c-0.3,0.3-0.5,0.5-0.7,0.7
	c-0.2,0.2-0.4,0.2-0.5,0.2c-0.1,0-0.2-0.1-0.3-0.1c-0.2-0.1-0.3-0.3-0.4-0.5c-0.1-0.2-0.2-0.4-0.2-0.7c0-0.3-0.1-0.6-0.1-0.8
	c0-0.2,0-0.5,0-0.9c0-0.4,0-0.7,0-0.8c0-0.5,0-1,0-1.6c0-0.6,0-1,0-1.3c0-0.3,0-0.7,0-1.1c0-0.4,0-0.7-0.1-0.9
	c0-0.2-0.1-0.4-0.2-0.6c-0.1-0.2-0.2-0.4-0.4-0.5c-0.2-0.1-0.4-0.2-0.6-0.3c-0.7-0.2-1.5-0.2-2.6-0.2c-2.4,0-3.9,0.1-4.6,0.5
	c-0.3,0.1-0.5,0.3-0.7,0.6c-0.2,0.3-0.3,0.4-0.1,0.5c0.8,0.1,1.3,0.4,1.6,0.8l0.1,0.2c0.1,0.2,0.2,0.5,0.3,0.9
	c0.1,0.4,0.1,0.9,0.2,1.4c0.1,0.9,0.1,1.7,0,2.4c-0.1,0.7-0.1,1.2-0.2,1.5c-0.1,0.4-0.1,0.7-0.3,0.9c-0.1,0.2-0.2,0.4-0.2,0.4
	c0,0.1-0.1,0.1-0.1,0.1c-0.2,0.1-0.3,0.1-0.5,0.1c-0.2,0-0.4-0.1-0.6-0.3c-0.3-0.2-0.5-0.4-0.8-0.7c-0.3-0.3-0.6-0.7-0.9-1.3
	c-0.3-0.6-0.7-1.2-1.1-2l-0.3-0.6c-0.2-0.4-0.5-0.9-0.8-1.6c-0.3-0.7-0.6-1.3-0.9-2C7.7,9.5,7.5,9.3,7.3,9.1L7.2,9.1
	C7.1,9,7,9,6.9,8.9C6.8,8.9,6.6,8.8,6.5,8.8l-5.2,0C0.7,8.8,0.3,9,0.1,9.2L0.1,9.3C0,9.4,0,9.5,0,9.6c0,0.1,0,0.3,0.1,0.5
	c0.8,1.8,1.6,3.5,2.5,5.2c0.9,1.7,1.7,3,2.3,4c0.7,1,1.3,2,2,2.9c0.7,0.9,1.1,1.5,1.4,1.7c0.2,0.3,0.4,0.4,0.5,0.6L9.3,25
	c0.3,0.3,0.8,0.7,1.3,1.1c0.6,0.4,1.2,0.8,2,1.3c0.7,0.4,1.6,0.8,2.5,1c1,0.3,1.9,0.4,2.8,0.3h2.2c0.4,0,0.8-0.2,1-0.4l0.1-0.1
	c0.1-0.1,0.1-0.2,0.1-0.4c0-0.2,0.1-0.3,0.1-0.5c0-0.5,0-1,0.1-1.5c0.1-0.4,0.2-0.8,0.3-1c0.1-0.2,0.3-0.4,0.4-0.6
	c0.2-0.2,0.3-0.2,0.3-0.3c0.1,0,0.1-0.1,0.2-0.1c0.3-0.1,0.7,0,1.1,0.3c0.4,0.3,0.8,0.7,1.2,1.1c0.4,0.4,0.8,0.9,1.3,1.5
	c0.5,0.5,1,1,1.3,1.2l0.4,0.2c0.3,0.2,0.6,0.3,1,0.4c0.4,0.1,0.8,0.2,1.1,0.1l4.9-0.1c0.5,0,0.9-0.1,1.1-0.2
	c0.3-0.2,0.4-0.3,0.5-0.5c0.1-0.2,0.1-0.4,0-0.7C36.6,27.1,36.6,26.9,36.5,26.8L36.5,26.8z M36.5,26.8"/>
    </symbol>

    <symbol id="fb" viewBox="0 0 36.7 36.7">
       <path class="st0" d="M36.7,34.7c0,1.1-0.9,2-2,2h-9.4V22.5h4.8l0.7-5.5h-5.5v-3.5c0-1.6,0.4-2.7,2.7-2.7l2.9,0v-5
	c-0.5-0.1-2.2-0.2-4.3-0.2c-4.2,0-7.1,2.6-7.1,7.3V17h-4.8v5.5h4.8v14.2H2c-1.1,0-2-0.9-2-2V2c0-1.1,0.9-2,2-2h32.7c1.1,0,2,0.9,2,2
	V34.7z"/>
    </symbol>


    <symbol id="inst" viewBox="0 0 36.7 36.7">
       <path class="st0" d="M32.3,0H4.4C2,0,0,1.9,0,4.3v28.1c0,2.4,2,4.3,4.4,4.3h27.9c2.4,0,4.4-1.9,4.4-4.3V4.3C36.7,1.9,34.7,0,32.3,0
	 M26.4,5.7c0-0.6,0.5-1.1,1.1-1.1H31c0.6,0,1.1,0.5,1.1,1.1v3.4c0,0.6-0.5,1.1-1.1,1.1h-3.4c-0.6,0-1.1-0.5-1.1-1.1L26.4,5.7
	L26.4,5.7z M18.4,11.3c3.9,0,7.1,3.1,7.1,7s-3.2,7-7.1,7s-7.1-3.1-7.1-7C11.3,14.5,14.5,11.3,18.4,11.3 M33.2,32.1
	c0,0.6-0.5,1.1-1.1,1.1H4.6c-0.6,0-1.1-0.5-1.1-1.1V14.9H8c-0.6,0.9-0.8,2.5-0.8,3.5c0,6.1,5,11.1,11.2,11.1s11.2-5,11.2-11.1
	c0-1-0.1-2.6-0.9-3.5h4.6L33.2,32.1L33.2,32.1z"/>
    </symbol>

    <symbol id="tw" viewBox="0 0 36.7 36.7">
       <path class="st0" d="M35.7,3.7c-1.5,0.9-3.1,1.5-4.8,1.9c-1.4-1.5-3.3-2.4-5.5-2.4c-4.2,0-7.5,3.5-7.5,7.7c0,0.6,0.1,1.2,0.2,1.8
	C11.8,12.3,6.3,9.2,2.6,4.5c-0.6,1.1-1,2.5-1,3.9c0,2.7,1.3,5,3.4,6.4c-1.2,0-2.4-0.4-3.4-1V14c0,3.7,2.6,6.9,6,7.6
	c-0.6,0.2-1.3,0.3-2,0.3c-0.5,0-1,0-1.4-0.1c1,3.1,3.7,5.3,7,5.4c-2.6,2.1-5.8,3.3-9.4,3.3c-0.6,0-1.2,0-1.8-0.1
	c3.3,2.2,7.3,3.5,11.5,3.5c13.9,0,21.4-11.8,21.4-22c0-0.3,0-0.7,0-1c1.5-1.1,2.8-2.4,3.8-4c-1.3,0.6-2.8,1-4.3,1.2
	C33.9,7,35.1,5.5,35.7,3.7"/>
    </symbol>

    <!-- arrow -->

    <symbol id="arrow" viewBox="0 0 14.2 25.5">
       <polygon class="st0" points="14.2,12.7 1.5,0 0,1.5 11.3,12.7 0,24 1.5,25.5 14.2,12.7 14.2,12.7 "/>
    </symbol>

<!-- ingredients items slide #1 -->

    <symbol id="grape" viewBox="0 0 32 32">
       <path d="M20.443 16.7139C22.6035 15.225 22.0963 11.5147 19.5084 10.8008C19.3252 10.7491 18.5973 10.7773 18.508 10.6927C18.3624 10.5518 18.2732 9.88022 18.1605 9.67356C17.8364 9.07708 17.3198 8.59802 16.7139 8.30683C15.4458 7.69626 13.9147 7.95928 12.9706 9.01603C12.0595 7.7855 10.472 7.40976 9.10058 8.072C8.49001 8.36319 7.96398 8.83755 7.62582 9.41994C7.45205 9.72053 7.32524 10.0446 7.25479 10.3875C7.17494 10.7961 7.27827 11.1718 7.24539 11.571C7.22191 11.8481 7.28766 11.7918 6.98708 11.9045C6.818 11.9702 6.65361 12.0501 6.49393 12.144C6.14637 12.3554 5.84578 12.6325 5.60156 12.9565C5.13659 13.5765 4.89706 14.3608 4.92054 15.1358C4.92993 15.488 5.00038 15.8403 5.1225 16.1738C5.19295 16.3663 5.28688 16.5542 5.39021 16.7327C5.43717 16.8078 5.5452 16.9205 5.56868 16.9957C5.63913 17.2117 5.63913 17.0379 5.5358 17.2446C5.33854 17.6297 4.9769 17.9068 4.80312 18.3295C4.62465 18.7569 4.54011 19.2172 4.54481 19.6822C4.5495 20.119 4.63874 20.5511 4.80782 20.9503C4.88766 21.1428 5.01917 21.3072 5.10371 21.4951C5.17416 21.6501 5.23052 21.636 5.19295 21.7675C5.17416 21.8286 4.91115 22.0211 4.87357 22.0634C4.30058 22.6974 3.9953 23.5334 3.99999 24.3741C4.01408 26.1918 5.50762 27.7135 7.34872 27.6195C8.17533 27.5773 8.97377 27.2109 9.54207 26.6051C9.62661 26.5158 9.85674 26.079 9.95537 26.0462C10.0352 26.0227 10.4438 26.234 10.5284 26.2575C10.9605 26.3702 11.416 26.3843 11.8575 26.3045C12.6794 26.1589 13.4309 25.6892 13.9194 25.0129C14.0556 24.8297 14.1307 24.5996 14.2622 24.4211C14.2951 24.3788 14.3186 24.2004 14.3609 24.1769C14.3796 24.1675 14.6661 24.2614 14.7272 24.2708C15.2063 24.3648 15.7088 24.3413 16.1832 24.2098C16.681 24.0689 17.146 23.8059 17.5264 23.4536C17.6297 23.355 17.9444 22.8477 18.0571 22.8055C18.1839 22.7632 18.6113 22.9511 18.7616 22.9698C19.7573 23.0779 20.7671 22.6833 21.4528 21.9601C22.9323 20.382 22.4203 17.6391 20.443 16.7139C20.5699 16.6246 20.6967 16.5401 20.8235 16.4509C20.6967 16.5401 20.5699 16.6246 20.443 16.7139ZM17.8035 13.3511C17.9209 13.2149 18.0383 13.0552 18.1182 12.8955C18.1464 12.8485 18.1699 12.8015 18.1933 12.7499C18.3061 12.5197 18.4 12.2849 18.4564 12.036C18.5362 11.6931 18.4657 11.6462 18.8039 11.6133C19.128 11.5851 19.5178 11.7448 19.7855 11.9045C20.3256 12.2286 20.6779 12.7922 20.8188 13.398C20.955 13.9898 20.8939 14.6379 20.6121 15.1781C20.4618 15.4693 20.2458 15.7229 19.9828 15.9154C19.8935 15.9812 19.1092 16.3569 19.1092 16.2724C19.1092 16.2583 19.1092 16.2395 19.1092 16.2254C19.1139 16.1174 19.1092 16 19.0998 15.892C19.0998 15.8732 19.0951 15.8591 19.0951 15.8403C19.0951 15.8403 19.0951 15.8356 19.0951 15.8309C18.9965 14.8728 18.508 13.9945 17.7143 13.4403C17.7472 13.4168 17.7753 13.3839 17.8035 13.3511C17.8176 13.337 17.7753 13.3839 17.8035 13.3511C17.9209 13.2149 17.7753 13.3839 17.8035 13.3511ZM17.7378 14.746C17.7472 14.7554 17.7519 14.7648 17.7565 14.7741C17.874 14.9385 17.9632 15.117 18.0383 15.3002C18.0477 15.3237 18.0524 15.3424 18.0618 15.3659C18.0665 15.3753 18.0665 15.3847 18.0712 15.3941C18.0759 15.4082 18.0806 15.4223 18.0853 15.4364C18.137 15.5867 18.1605 15.7464 18.1839 15.9013C18.1839 15.9248 18.1886 15.9436 18.1886 15.9671C18.1886 15.9765 18.1886 15.9906 18.1933 16C18.1933 16.0235 18.198 16.0422 18.198 16.0657C18.198 16.0704 18.198 16.0751 18.198 16.0798C18.2074 16.2818 18.2027 16.5213 18.137 16.7139C18.1323 16.7327 18.1323 16.7514 18.1276 16.7655C17.7941 17.5734 17.2775 18.292 16.371 18.4845C15.8074 18.6066 15.1264 18.5033 14.6567 18.1511C14.6192 18.1276 14.5816 18.0994 14.5487 18.0759C13.5859 17.3432 13.4074 16.0235 13.9804 14.9902C14.5722 13.9194 15.6524 13.6047 16.7702 13.9804C16.7937 13.9898 16.8172 14.0039 16.8407 14.0133C16.8642 14.0227 16.8877 14.0368 16.9111 14.0462C16.9158 14.0462 16.9205 14.0509 16.9252 14.0509C16.991 14.0837 17.0567 14.1213 17.1178 14.1636C17.1742 14.2012 17.2305 14.2387 17.2869 14.281C17.3385 14.3186 17.3855 14.3608 17.4325 14.4078C17.4419 14.4172 17.4513 14.4219 17.456 14.4313C17.5217 14.483 17.7143 14.7178 17.7378 14.746C17.7425 14.7554 17.7096 14.7084 17.7378 14.746ZM12.8156 15.2532C12.7875 15.3565 12.764 15.4646 12.7452 15.5679C12.0783 15.5867 11.4912 15.2908 11.0309 14.8258C10.7444 14.5111 10.5472 14.126 10.4579 13.708C10.0211 12.562 11.0826 11.1718 12.1487 10.9041C12.0266 12.0736 12.5667 13.2712 13.5295 13.9522C13.1961 14.328 12.9519 14.7788 12.8156 15.2579C12.8344 15.1922 12.8532 15.1264 12.872 15.0559C12.8532 15.1264 12.8344 15.1875 12.8156 15.2532C12.7875 15.3565 12.9519 14.7695 12.8156 15.2532ZM13.4967 18.3436C12.9659 18.7194 12.4869 19.3017 12.3037 19.9358C12.2286 19.917 12.1534 19.8982 12.0783 19.87C11.8669 19.7996 11.6368 19.7855 11.416 19.7808C11.3268 19.7808 11.2376 19.7808 11.1483 19.7855C11.0779 19.7996 11.0121 19.8043 10.9417 19.8043C10.8853 19.809 10.829 19.8137 10.7773 19.8278C10.7726 19.8278 10.7679 19.8278 10.7679 19.8278C10.7444 19.8372 10.7209 19.8419 10.6974 19.8419C9.93189 19.4239 9.42465 18.5597 9.46692 17.6814V17.6767C9.46692 17.6532 9.46692 17.6297 9.47162 17.6062C9.47162 17.6015 9.47162 17.6015 9.47162 17.5968C9.47162 17.5781 9.47631 17.5593 9.47631 17.5452V17.5405C9.48101 17.4747 9.48571 17.3855 9.50449 17.3197C9.51858 17.2305 9.54207 17.1413 9.56555 17.0567C9.56555 17.052 9.56555 17.052 9.57025 17.0473C9.57025 17.0426 9.57494 17.0379 9.57494 17.0332C9.62191 16.8736 9.69236 16.7327 9.76281 16.5824C9.80038 16.5166 9.83796 16.4509 9.88492 16.3851C10.007 16.1972 10.162 16.0282 10.3405 15.8873C10.3922 15.8356 10.4438 15.7933 10.5096 15.7604C10.5284 15.7464 10.5472 15.7323 10.5659 15.7229C10.58 15.7135 10.5941 15.7041 10.6082 15.6994C11.1859 16.2113 11.9233 16.4931 12.6935 16.4931H12.7076C12.7217 16.6716 12.7405 16.9299 12.825 17.0943C12.8344 17.1272 12.8438 17.1601 12.8579 17.1976C12.8579 17.2023 12.8626 17.2023 12.8626 17.207C12.872 17.2399 12.8861 17.2728 12.8955 17.3104C13.027 17.6861 13.2337 18.0383 13.4967 18.3436ZM13.337 10.0963C13.337 10.0916 13.3417 10.0869 13.3417 10.0822V10.0775C14.4595 8.02973 17.6016 8.94558 17.6297 11.2141C17.6297 11.2188 17.6297 11.2235 17.6297 11.2282V11.2329C17.6297 11.7777 17.4419 12.3037 17.1131 12.7311C17.1084 12.7358 17.1084 12.7358 17.1037 12.7405C17.0286 12.8391 16.9393 12.9284 16.8501 13.0129C16.2301 12.8109 15.3753 12.7734 14.7742 13.074C14.6849 13.1068 14.3421 13.3276 14.2669 13.3229C14.1448 13.3182 13.9569 13.1162 13.8724 13.0458C13.6 12.8156 13.3839 12.5197 13.243 12.191C13.243 12.1863 13.2383 12.1816 13.2383 12.1816C12.9565 11.5147 13.0223 10.6599 13.3182 10.115C13.2947 10.1714 13.2994 10.162 13.337 10.0963C13.337 10.0916 13.2665 10.2278 13.337 10.0963ZM10.411 8.64029C11.2517 8.64029 12.0219 9.11935 12.4211 9.87082C12.4164 9.88022 12.4164 9.88491 12.4117 9.89431C12.407 9.9037 12.4023 9.91779 12.3976 9.92718C10.7585 10.0822 9.50449 11.5475 9.48101 13.1726C9.29314 13.0927 9.10997 12.9753 8.95498 12.8391C8.9362 12.825 8.92211 12.8109 8.90332 12.7968C7.21252 11.5241 8.40547 8.64029 10.411 8.64029ZM7.63991 12.6794C7.64461 12.6841 7.64461 12.6888 7.64931 12.6935C7.70567 12.7922 7.79021 12.9471 7.87475 13.0317C7.88884 13.0505 7.89823 13.0646 7.91232 13.0833C7.92171 13.0927 7.93111 13.1068 7.9405 13.1162C7.95459 13.1303 7.96398 13.1491 7.97807 13.1632C8.227 13.4638 8.55577 13.7503 8.91271 13.9241C9.10058 14.0227 9.48101 14.0696 9.62661 14.2012C9.7769 14.3327 9.87553 14.807 9.99295 14.9949C9.83326 15.0935 9.67827 15.2203 9.54676 15.3565C9.53737 15.3612 9.53267 15.3706 9.52328 15.3753C9.50919 15.3894 9.4998 15.3988 9.48571 15.4129C9.26966 15.6289 9.09119 15.8779 8.94089 16.1503C8.94089 16.155 8.9362 16.1597 8.9362 16.1597C8.88923 16.1972 8.86575 16.2442 8.86575 16.2959C8.85635 16.3194 8.84226 16.3428 8.83287 16.3663C8.83287 16.3663 8.83287 16.3663 8.83287 16.371C8.79999 16.4415 8.77181 16.5166 8.74363 16.5918C8.72015 16.6528 8.69197 16.7186 8.68258 16.7843C8.67788 16.8031 8.67318 16.8219 8.66849 16.8407C8.66379 16.8595 8.65909 16.8783 8.6544 16.897C8.6544 16.9017 8.6497 16.9111 8.6497 16.9158C8.645 16.9299 8.64031 16.944 8.64031 16.9581C8.64031 16.9628 8.64031 16.9628 8.64031 16.9675C8.61682 17.0708 8.60743 17.1788 8.57925 17.2822C8.57925 17.2869 8.57925 17.2869 8.57925 17.2869V17.2916C8.57925 17.2963 8.57925 17.301 8.57925 17.301V17.3104C8.55577 17.315 8.52759 17.3197 8.5041 17.3244C8.32563 17.3526 8.13306 17.3667 7.94989 17.3479H7.9452C7.92171 17.3479 7.90293 17.3432 7.87944 17.3432C7.87475 17.3432 7.87005 17.3432 7.86535 17.3432C7.67749 17.3197 7.48962 17.2728 7.31115 17.2023C7.22661 17.1695 7.14676 17.1319 7.06692 17.0896C7.02465 17.0614 6.98238 17.0379 6.94011 17.0192C6.91663 17.0051 6.89314 16.991 6.86966 16.9722C6.85087 16.9581 6.83209 16.9487 6.818 16.9346C6.818 16.9346 6.818 16.9346 6.8133 16.9346C6.76633 16.897 6.72406 16.8642 6.6771 16.8266C5.23991 15.6289 5.78473 13.0833 7.63991 12.6794C7.63052 12.6653 7.236 12.7687 7.17964 12.7828C7.33463 12.7405 7.48962 12.7123 7.63991 12.6794C7.64461 12.6841 6.60195 12.9049 7.63991 12.6794ZM6.36242 17.7518C6.52211 17.8599 6.83678 18.09 7.03404 18.09C7.31584 18.1933 7.63052 18.2638 7.93111 18.2779C8.0814 18.2873 8.25987 18.3013 8.41017 18.2685C8.52289 18.198 8.57925 18.1933 8.57925 18.2497C8.6544 18.7334 8.83757 19.3205 9.16633 19.6963C9.31193 19.8982 9.47631 20.0814 9.66418 20.2458L9.66888 20.2505C9.19921 20.5417 8.30684 21.3119 8.30684 21.9319C8.19882 21.9601 8.0814 21.9835 7.96868 21.9929C7.95929 21.9929 7.94989 21.9929 7.9405 21.9976C5.6861 22.2043 4.62935 19.1139 6.36242 17.7518C6.36712 17.7565 6.15107 17.9773 6.11819 17.9538C6.11819 17.9538 6.43287 17.7002 6.36242 17.7518C6.44226 17.8035 5.79882 18.198 6.36242 17.7518ZM7.19843 26.7178C6.01017 26.7178 5.09901 25.7738 4.95811 24.6231C4.89236 24.083 4.99569 23.5241 5.28218 23.0591C5.3996 22.8665 5.61565 22.5237 5.83639 22.4485C6.09471 22.3593 6.57377 22.6974 6.87905 22.8008C7.21721 22.8994 7.58825 22.9511 7.9405 22.9182C8.00156 22.9135 8.05792 22.9088 8.11897 22.9041C8.09549 23.3033 8.14715 23.7354 8.28336 24.1111C8.33502 24.2755 8.39608 24.454 8.48532 24.5996C8.60743 24.8391 8.76242 25.0927 8.95498 25.2853C9.18982 25.5577 9.218 25.5436 8.98316 25.8442C8.84696 26.018 8.69197 26.1683 8.51349 26.2951C8.12837 26.5722 7.66809 26.7178 7.19843 26.7178ZM13.5859 23.4677C13.5859 23.4724 13.5859 23.4724 13.5859 23.4677C13.2947 25.2477 11.1061 26.0556 9.78629 24.7968C9.19451 24.2286 8.84696 23.3925 9.06301 22.58C9.26966 21.8145 9.89901 20.9033 10.7585 20.7765C11.1859 20.6638 12.0501 20.6262 12.3976 20.9738C12.3976 20.9738 12.3976 20.9738 12.4023 20.9738C13.2853 21.4575 13.7409 22.5565 13.5906 23.4348C13.5953 23.3925 13.5953 23.4019 13.5859 23.4677C13.5859 23.4724 13.6047 23.3409 13.5859 23.4677ZM15.3331 23.416C15.0607 23.416 14.7882 23.3644 14.5346 23.2657C14.544 23.1389 14.5487 22.9933 14.5346 22.8665C14.5252 22.7303 14.5064 22.5941 14.483 22.4579C14.4783 22.4297 14.4736 22.4015 14.4642 22.3734C14.4642 22.3734 14.4642 22.3734 14.4642 22.3687C14.4595 22.3452 14.4548 22.317 14.4454 22.2935C14.4454 22.2888 14.4454 22.2888 14.4454 22.2888C14.328 21.8567 14.0931 21.1194 13.6939 20.8516C13.6751 20.8282 13.6564 20.8094 13.6376 20.7906C13.6282 20.7812 13.6188 20.7671 13.6094 20.7577C13.4685 20.6074 13.3088 20.4759 13.1444 20.3585C13.1444 20.3538 13.1491 20.3491 13.1491 20.3444C13.1538 20.3303 13.1585 20.3162 13.1632 20.3021C13.2055 20.1612 13.2712 20.0109 13.3464 19.8794C13.4497 19.6822 13.5859 19.499 13.7456 19.344C13.7597 19.3299 13.7691 19.3205 13.7832 19.3064C13.7973 19.2923 13.8066 19.283 13.8207 19.2736C13.8301 19.2642 13.8395 19.2548 13.8536 19.2454C13.8583 19.2407 13.863 19.236 13.8724 19.2313C13.8818 19.2219 13.8959 19.2125 13.9053 19.2031C14.0039 19.1139 14.1213 19.0387 14.2387 18.973C14.746 19.2923 15.319 19.452 15.9201 19.452C15.9201 19.4567 15.9201 19.4661 15.9201 19.4708C15.892 19.9405 15.9577 20.4102 16.1174 20.8516C16.2066 21.0959 16.4509 21.744 16.7092 21.8755C16.7139 21.8849 16.7233 21.8943 16.7327 21.899C16.7468 21.9178 16.7609 21.9319 16.7749 21.946C16.8689 22.0493 16.9675 22.1479 17.0755 22.2372C17.2775 22.3076 17.2916 22.4015 17.1272 22.5237C17.0567 22.6974 16.7984 22.8712 16.6528 22.9792C16.263 23.261 15.8074 23.416 15.3331 23.416ZM19.1139 22.0775C17.6861 22.0775 16.6387 20.6826 16.8548 19.3111C17.2728 19.1796 17.8035 18.9354 18.0806 18.5831C18.1135 18.5503 18.1464 18.5221 18.1746 18.4892C18.1792 18.4845 18.1839 18.4798 18.1886 18.4751C18.2309 18.4329 18.2732 18.3859 18.3108 18.3389C18.3248 18.3248 18.3342 18.3107 18.3483 18.2967C18.353 18.292 18.3577 18.2873 18.3624 18.2779C18.4329 18.1933 18.5268 18.0806 18.5785 17.982C18.6959 17.7988 18.8039 17.6015 18.8791 17.3996C18.8837 17.3855 18.8884 17.3761 18.8931 17.362C20.2035 17.2352 21.3495 18.3436 21.3965 19.6305C21.4434 20.8939 20.4149 22.0775 19.1139 22.0775Z"/>
<path d="M24.4446 10.7492C24.191 10.7492 23.9844 10.5425 23.9844 10.2889C23.9844 10.0353 24.191 9.82861 24.4446 9.82861C24.6983 9.82861 24.9049 10.0353 24.9049 10.2889C24.9049 10.5425 24.6983 10.7492 24.4446 10.7492Z"/>
<path d="M27.8027 11.8388C27.3894 10.1386 26.1542 8.68729 24.1252 7.51782C24.4164 7.07633 25.9241 4.18787 24.8532 4.0094C24.2004 3.90138 24.2051 5.03797 24.083 5.43719C23.8763 6.11821 23.571 6.77104 23.1296 7.33464C22.2748 8.45715 20.8517 9.0912 19.4568 9.0912C19.0622 9.06772 18.8227 9.56556 19.0857 9.86145C19.2689 10.0634 19.5789 10.0211 19.8278 10.0071C20.7296 9.95069 21.636 9.66419 22.4063 9.19453C21.5186 12.4916 23.7025 14.9573 26.3045 16.6247C26.3092 16.6294 26.3139 16.6294 26.3186 16.6341C26.3937 16.681 26.5018 16.7045 26.591 16.6951C26.5957 16.6951 26.6051 16.6951 26.6145 16.6904C26.6333 16.6904 26.6474 16.6857 26.6661 16.681C26.6943 16.6763 26.7225 16.6622 26.7507 16.6528C26.7554 16.6528 26.7554 16.6481 26.7601 16.6481C26.7648 16.6481 26.7648 16.6435 26.7695 16.6435C26.8352 16.6106 26.8916 16.5636 26.9339 16.5026C26.9339 16.5026 26.9386 16.4979 26.9386 16.4932C26.9902 16.4086 28.4086 14.3327 27.8027 11.8388C27.3894 10.1386 28.4086 14.3327 27.8027 11.8388ZM26.6521 15.0043C26.4078 14.22 26.1589 13.4356 25.8912 12.656C25.7644 12.2802 25.6047 11.3644 25.1115 11.308C24.3084 11.2188 24.7452 12.1769 24.8767 12.5433C25.1773 13.3793 25.4403 14.2341 25.708 15.0795C24.6701 14.2763 23.6791 13.2665 23.2845 11.9844C22.8994 10.7444 23.2094 9.49511 23.6744 8.32564C26.1166 9.73464 27.7652 12.1393 26.6521 15.0043C26.2669 13.7785 26.6521 15.0043 26.6521 15.0043Z" fill="black"/>
    </symbol>

<symbol id="nut" viewBox="0 0 32 32">
        <path d="M25.8897 9.77338C25.7746 9.60552 25.5396 9.56715 25.3765 9.68225C25.2086 9.79736 25.1703 10.0324 25.2854 10.1954C26.5707 12.0228 27.2518 14.1235 27.2518 16.277C27.2518 19.0635 26.1055 21.759 24.0192 23.8741C22.446 25.4664 20.4221 26.6559 18.1679 27.3321C17.717 26.9676 17.4436 26.2434 17.3189 25.0492C17.7794 25.476 18.3933 25.7398 19.0647 25.7398C19.8465 25.7398 20.5803 25.3849 21.0647 24.7806C21.1271 24.7854 21.1894 24.7854 21.2518 24.7854C22.6667 24.7854 23.8225 23.6343 23.8225 22.2146C23.8225 21.9988 23.7986 21.7926 23.7458 21.5863C24.4221 21.3082 25.0216 20.8477 25.4628 20.2626C26 19.5528 26.283 18.7038 26.283 17.8118C26.283 16.9245 25.9952 16.0659 25.4676 15.3609C25.9808 14.8813 26.2782 14.205 26.2782 13.4856C26.2782 12.229 25.3861 11.1835 24.187 10.9628C24.1583 9.82134 23.3861 8.84772 22.3022 8.55036C21.9472 7.28417 20.7866 6.39209 19.4532 6.39209C18.7962 6.39209 18.1871 6.60791 17.6978 6.97242C17.9712 6.32494 18.3453 5.77818 18.7962 5.41847C20.9784 6.18106 22.9113 7.43285 24.3933 9.07314C24.5324 9.22662 24.7626 9.23621 24.9161 9.10192C25.0695 8.96763 25.0791 8.73261 24.9448 8.57914C22.7242 6.1283 19.5635 4.4976 16.048 4.0036C16.0144 3.9988 15.9808 3.9988 15.9424 4.0036C12.6523 4.46882 9.63549 5.94604 7.44844 8.16187C5.22302 10.4161 4 13.2986 4 16.277C4 19.2554 5.22302 22.1379 7.44844 24.3921C9.63549 26.6079 12.6523 28.0851 15.9472 28.5504C15.9664 28.5552 15.9808 28.5552 16 28.5552C16.0192 28.5552 16.0336 28.5552 16.0528 28.5504C19.3429 28.0851 22.3597 26.6079 24.5516 24.3921C26.7722 22.1379 28 19.2554 28 16.277C27.9904 13.9748 27.2662 11.7254 25.8897 9.77338ZM19.4532 7.13549C20.518 7.13549 21.4341 7.89329 21.6307 8.93405C21.6595 9.08273 21.7794 9.20264 21.9281 9.22662C22.7722 9.3753 23.3957 10.0803 23.4388 10.9341C22.8537 10.9916 22.307 11.2506 21.8849 11.6727C21.741 11.8165 21.741 12.0516 21.8849 12.1954C21.9568 12.2674 22.0528 12.3058 22.1439 12.3058C22.2398 12.3058 22.3309 12.2674 22.4029 12.1954C22.7482 11.8501 23.2086 11.6583 23.6978 11.6583C23.7074 11.6583 23.717 11.6583 23.7218 11.6535C23.741 11.6583 23.7554 11.6583 23.7746 11.6583C24.7578 11.7014 25.5252 12.5024 25.5252 13.4856C25.5252 13.994 25.3141 14.4688 24.9544 14.8141C24.211 14.1187 23.2326 13.735 22.2014 13.735C21.9952 13.735 21.8321 13.8981 21.8321 14.1043C21.8321 14.3106 21.9952 14.4736 22.2014 14.4736C23.0935 14.4736 23.9329 14.8189 24.5659 15.452C24.5851 15.4712 24.6043 15.4856 24.6235 15.5C24.6379 15.524 24.6523 15.5432 24.6667 15.5624C25.2326 16.1811 25.5396 16.9772 25.5396 17.8165C25.5396 18.5456 25.3094 19.241 24.8681 19.8261C24.5036 20.3058 24.0096 20.6847 23.458 20.9101C22.9976 20.1379 22.1679 19.6535 21.247 19.6535C20.5612 19.6535 19.9137 19.9221 19.4293 20.4065C19.2854 20.5504 19.2854 20.7854 19.4293 20.9293C19.5731 21.0731 19.8082 21.0731 19.952 20.9293C20.2974 20.5839 20.7578 20.3921 21.247 20.3921C21.9856 20.3921 22.6475 20.8285 22.9353 21.5096C23.0312 21.735 23.0791 21.9748 23.0791 22.2194C23.0791 23.1499 22.3837 23.9173 21.482 24.0324C21.5779 23.759 21.6307 23.4664 21.6307 23.1691C21.6307 22.9628 21.4676 22.7998 21.2614 22.7998C21.0552 22.7998 20.8921 22.9628 20.8921 23.1691C20.8921 23.5336 20.7866 23.8837 20.5851 24.1811C20.2446 24.6894 19.6739 24.9964 19.0647 24.9964C18.0576 24.9964 17.2326 24.1763 17.2326 23.1643C17.2326 22.6559 17.4388 22.1811 17.8082 21.8309C17.9472 21.7014 17.9616 21.4856 17.8465 21.3369C17.4436 20.8237 17.2326 20.205 17.2326 19.5528C17.2326 18.6511 17.6403 17.8165 18.3501 17.2602C18.3549 17.2554 18.3549 17.2554 18.3597 17.2506C18.8729 16.8525 19.4868 16.6415 20.1391 16.6415C20.3453 16.6415 20.5084 16.4784 20.5084 16.2722C20.5084 16.0659 20.3453 15.9029 20.1391 15.9029C19.4245 15.9029 18.7482 16.1043 18.1583 16.488C17.5731 15.8597 17.2374 15.0204 17.2374 14.1475C17.2374 13.2362 17.5923 12.3825 18.2302 11.735C18.2302 11.735 18.2302 11.7302 18.235 11.7302C18.8825 11.0779 19.7506 10.7134 20.6715 10.7134C20.8777 10.7134 21.0408 10.5504 21.0408 10.3441C21.0408 10.1379 20.8777 9.97482 20.6715 9.97482C19.6595 9.97482 18.7098 10.3297 17.952 10.982C17.5012 10.5647 17.2374 9.97482 17.2374 9.35132C17.2374 8.13309 18.2302 7.13549 19.4532 7.13549ZM4.73861 16.277C4.73861 13.4904 5.88489 10.795 7.97122 8.67986C9.39568 7.23621 11.1942 6.1235 13.1942 5.42326C13.6451 5.78297 14.024 6.32494 14.2926 6.97242C13.8034 6.61271 13.1942 6.39688 12.5372 6.39688C11.2038 6.39688 10.0432 7.28897 9.68825 8.55516C8.60432 8.85252 7.83213 9.82614 7.80336 10.9676C6.60432 11.193 5.71223 12.2386 5.71223 13.4904C5.71223 14.205 6.00959 14.8813 6.52278 15.3657C5.9952 16.0707 5.70743 16.9245 5.70743 17.8165C5.70743 17.9029 5.71223 17.994 5.71703 18.0803C5.73141 18.2818 5.90887 18.44 6.11031 18.4257C6.31175 18.4113 6.47002 18.2386 6.45564 18.0324C6.45084 17.9604 6.45084 17.8885 6.45084 17.8165C6.45084 16.982 6.76259 16.1811 7.32374 15.5624C7.34293 15.5432 7.35731 15.524 7.36691 15.5C7.38609 15.4856 7.40528 15.4712 7.42446 15.452C8.05755 14.8189 8.89688 14.4736 9.78897 14.4736C9.9952 14.4736 10.1583 14.3106 10.1583 14.1043C10.1583 13.8981 9.9952 13.735 9.78897 13.735C8.753 13.735 7.77938 14.1187 7.02158 14.8189C6.66187 14.4784 6.45084 13.9988 6.45084 13.4904C6.45084 12.5072 7.21823 11.7062 8.20144 11.6631C8.22062 11.6631 8.23501 11.6583 8.2542 11.6583C8.26379 11.6631 8.27338 11.6631 8.27818 11.6631C8.76739 11.6631 9.22782 11.8549 9.57314 12.2002C9.64508 12.2722 9.74101 12.3106 9.83213 12.3106C9.92806 12.3106 10.0192 12.2722 10.0911 12.2002C10.235 12.0564 10.235 11.8213 10.0911 11.6775C9.66906 11.2554 9.1223 10.9964 8.53717 10.9388C8.58034 10.0899 9.20384 9.3801 10.048 9.23141C10.2014 9.20743 10.3165 9.08753 10.3453 8.93885C10.5468 7.89808 11.4628 7.14029 12.5228 7.14029C13.7458 7.14029 14.7434 8.13789 14.7434 9.36091C14.7434 9.98441 14.4796 10.5695 14.0288 10.9916C13.271 10.3393 12.3213 9.98441 11.3094 9.98441C11.1031 9.98441 10.94 10.1475 10.94 10.3537C10.94 10.56 11.1031 10.723 11.3094 10.723C12.2302 10.723 13.0983 11.0827 13.7458 11.7398C13.7458 11.7398 13.7458 11.7446 13.7506 11.7446C14.3933 12.3921 14.7434 13.2506 14.7434 14.1571C14.7434 15.03 14.4077 15.8693 13.813 16.5024C13.223 16.1187 12.5468 15.9173 11.8321 15.9173C11.6259 15.9173 11.4628 16.0803 11.4628 16.2866C11.4628 16.4928 11.6259 16.6559 11.8321 16.6559C12.4844 16.6559 13.0983 16.8669 13.6115 17.265C13.6163 17.2698 13.6163 17.2698 13.6211 17.2746C14.3309 17.8309 14.7386 18.6655 14.7386 19.5671C14.7386 20.2194 14.5276 20.8381 14.1247 21.3513C14.0096 21.5 14.024 21.7158 14.1631 21.8453C14.5324 22.1954 14.7386 22.6703 14.7386 23.1787C14.7386 24.1859 13.9185 25.0108 12.9065 25.0108C12.2926 25.0108 11.7266 24.7038 11.3861 24.1954C11.1847 23.8933 11.0791 23.5432 11.0791 23.1835C11.0791 22.9772 10.9161 22.8141 10.7098 22.8141C10.5036 22.8141 10.3405 22.9772 10.3405 23.1835C10.3405 23.4808 10.3933 23.7734 10.4892 24.0468C9.59233 23.9317 8.89209 23.1643 8.89209 22.2338C8.89209 21.9892 8.94005 21.7494 9.03597 21.524C9.32374 20.8429 9.98561 20.4065 10.7242 20.4065C11.2134 20.4065 11.6739 20.5983 12.0192 20.9436C12.1631 21.0875 12.3981 21.0875 12.542 20.9436C12.6859 20.7998 12.6859 20.5647 12.542 20.4209C12.0576 19.9365 11.4101 19.6679 10.7242 19.6679C9.80815 19.6679 8.97362 20.1523 8.51319 20.9245C7.7554 20.6127 7.1271 20.0324 6.76259 19.2842C6.67146 19.1019 6.45084 19.0252 6.26858 19.1115C6.08633 19.2026 6.00959 19.4233 6.09592 19.6055C6.53717 20.512 7.29976 21.2266 8.22542 21.6055C8.17266 21.8118 8.14868 22.018 8.14868 22.2338C8.14868 23.6487 9.29976 24.8046 10.7194 24.8046C10.7818 24.8046 10.8441 24.8046 10.9065 24.7998C11.3909 25.4041 12.1247 25.759 12.9065 25.759C13.5827 25.759 14.1966 25.4952 14.6523 25.0683C14.5276 26.2626 14.2542 26.982 13.8034 27.3513C11.5492 26.6751 9.52518 25.4856 7.95204 23.8933C5.88969 21.759 4.73861 19.0635 4.73861 16.277ZM15.9952 27.8118C15.5348 27.7446 15.0839 27.6583 14.6379 27.5528C15.2422 26.7758 15.4964 25.4233 15.4964 23.1691C15.4964 22.5743 15.2854 21.994 14.9113 21.5384C15.295 20.9484 15.4964 20.2674 15.4964 19.5576C15.4964 18.5695 15.1031 17.6391 14.4077 16.958C15.1031 16.1954 15.4964 15.1882 15.4964 14.1475C15.4964 13.1787 15.1655 12.2578 14.5612 11.5144C15.1511 10.958 15.4964 10.1763 15.4964 9.35611C15.4964 8.42566 15.3141 7.5048 14.9736 6.68465C14.7194 6.08034 14.3933 5.56715 14.0096 5.16906C14.6571 4.98201 15.3237 4.84293 16 4.74221C16.6811 4.84293 17.3429 4.98201 17.9904 5.16906C17.6067 5.56715 17.2758 6.08513 17.0264 6.68465C16.6859 7.5048 16.5036 8.42566 16.5036 9.35611C16.5036 10.1763 16.8489 10.958 17.4388 11.5144C16.8345 12.2578 16.5036 13.1787 16.5036 14.1475C16.5036 15.1882 16.8969 16.1954 17.5923 16.958C16.8969 17.6391 16.5036 18.5695 16.5036 19.5576C16.5036 20.2722 16.705 20.9484 17.0887 21.5384C16.7146 21.994 16.5036 22.5743 16.5036 23.1691C16.5036 25.4185 16.7578 26.771 17.3621 27.5528C16.9065 27.6583 16.4556 27.7446 15.9952 27.8118Z"/>
    </symbol>

    <symbol id="almond" viewBox="0 0 32 32">
        <path d="M15.268 23.194C15.0196 23.119 14.7571 23.2597 14.6868 23.5081C14.0634 25.5986 12.0995 27.061 9.91524 27.061C7.16855 27.0563 4.93744 24.8252 4.93744 22.0832C4.93744 18.4037 6.23111 14.818 8.58408 11.9869L9.37621 11.0354C9.50746 10.8761 9.70432 10.7823 9.91056 10.7823C10.1168 10.7823 10.3137 10.8761 10.4449 11.0354L11.237 11.9869C13.0322 14.1477 14.2228 16.7538 14.6774 19.524C14.7196 19.7771 14.9587 19.9505 15.2165 19.9083C15.4696 19.8661 15.643 19.6271 15.6008 19.3693C15.118 16.4351 13.8572 13.6743 11.9589 11.387L11.1714 10.4308C10.8621 10.0558 10.4027 9.84021 9.91524 9.84021C9.42777 9.84021 8.96843 10.0558 8.65907 10.4308L7.86694 11.3823C5.37335 14.3821 4 18.1834 4 22.0832C4 25.3455 6.65295 27.9984 9.91524 27.9984C11.2136 27.9984 12.4463 27.5859 13.4822 26.8032C14.4806 26.0485 15.2305 24.9705 15.5868 23.7799C15.6571 23.5268 15.5164 23.2643 15.268 23.194Z" fill="black"/>
<path d="M9.69025 15.8539C9.46058 15.9758 9.37621 16.2617 9.49808 16.4867C10.2715 17.9257 10.7449 19.5474 10.8714 21.1739C10.8902 21.4176 11.0964 21.6051 11.3401 21.6051C11.3542 21.6051 11.3636 21.6051 11.3776 21.6051C11.6354 21.5864 11.8276 21.3614 11.8089 21.1036C11.6729 19.3224 11.1714 17.621 10.3277 16.0461C10.2058 15.8164 9.91992 15.732 9.69025 15.8539Z" fill="black"/>
<path d="M9.91524 24.0144C10.173 24.0144 10.384 23.8035 10.384 23.5457C10.384 23.2879 10.173 23.077 9.91524 23.077C9.36684 23.077 8.91687 22.6317 8.91687 22.0786C8.91687 21.4927 8.95906 20.9021 9.04811 20.3256C9.08561 20.0678 8.91218 19.8287 8.65439 19.7912C8.39659 19.7537 8.15754 19.9272 8.12005 20.1849C8.0263 20.8083 7.97943 21.4458 7.97943 22.0786C7.97943 23.1473 8.84656 24.0144 9.91524 24.0144Z" fill="black"/>
<path d="M9.91525 26.0064C12.0807 26.0064 13.8384 24.244 13.8384 22.0832C13.8384 21.8254 13.6275 21.6145 13.3697 21.6145C13.1119 21.6145 12.901 21.8254 12.901 22.0832C12.901 23.7284 11.5605 25.069 9.91525 25.069C9.65746 25.069 9.44653 25.2799 9.44653 25.5377C9.44653 25.7955 9.65746 26.0064 9.91525 26.0064Z" fill="black"/>
<path d="M12.9713 19.2053C13.0088 19.2053 13.0463 19.2006 13.0838 19.1912C13.3369 19.1303 13.4916 18.8772 13.4306 18.6241C13.1072 17.2835 12.5963 15.9946 11.9167 14.7946C11.7901 14.5697 11.5042 14.49 11.2792 14.6165C11.0542 14.7431 10.9745 15.029 11.1011 15.254C11.7385 16.3789 12.2166 17.5835 12.5213 18.8397C12.5682 19.06 12.7604 19.2053 12.9713 19.2053Z" fill="black"/>
<path d="M8.11068 15.4039C7.87632 15.2914 7.59977 15.3851 7.48259 15.6195C6.50766 17.6256 5.99207 19.8567 5.99207 22.0785C5.99207 22.3363 6.20299 22.5472 6.46079 22.5472C6.71858 22.5472 6.9295 22.3363 6.9295 22.0785C6.9295 19.9973 7.41229 17.9069 8.32629 16.032C8.43878 15.7976 8.34035 15.5211 8.11068 15.4039Z" fill="black"/>
<path d="M27.9938 17.2601L27.8813 16.0273C27.525 12.1463 25.8095 8.49033 23.0534 5.72958C20.7473 3.42347 16.9976 3.42347 14.6915 5.72958C12.3854 8.03568 12.3854 11.7854 14.6915 14.0915C17.4476 16.8476 21.1036 18.5631 24.9893 18.924L26.222 19.0365C26.2736 19.0412 26.3251 19.0412 26.372 19.0412C26.8032 19.0412 27.2157 18.8725 27.525 18.5631C27.8625 18.221 28.0359 17.7429 27.9938 17.2601ZM26.8548 17.9022C26.7095 18.0475 26.5032 18.1225 26.297 18.1038L25.0643 17.9913C21.3989 17.6538 17.9491 16.032 15.3477 13.4306C13.4072 11.4901 13.4072 8.33097 15.3477 6.39047C16.2898 5.44834 17.5366 4.93275 18.8678 4.93275C20.1989 4.93275 21.4457 5.44834 22.3879 6.39047C24.9893 8.99187 26.611 12.4463 26.9485 16.107L27.061 17.3398C27.0751 17.5507 27.0048 17.7569 26.8548 17.9022Z" fill="black"/>
<path d="M18.8631 8.91686C19.1303 8.91686 19.3787 9.01998 19.5662 9.20746C19.9787 9.61994 20.3677 10.0699 20.7146 10.5386C20.8083 10.6652 20.9489 10.7308 21.0942 10.7308C21.1927 10.7308 21.2864 10.7027 21.3708 10.6371C21.577 10.4824 21.6239 10.1918 21.4692 9.98085C21.0942 9.46995 20.6771 8.98717 20.2318 8.54188C19.8662 8.17628 19.3834 7.97473 18.8631 7.97473C18.3475 7.97473 17.8601 8.17628 17.4945 8.54188C17.3117 8.72468 17.3117 9.01998 17.4945 9.20278C17.6773 9.38558 17.9726 9.38558 18.1554 9.20278C18.3475 9.01998 18.6006 8.91686 18.8631 8.91686Z" fill="black"/>
<path d="M23.1144 13.576C21.5489 13.1026 20.0677 12.2917 18.8256 11.2324C18.6287 11.0637 18.3334 11.0871 18.1647 11.2839C17.996 11.4808 18.0194 11.7761 18.2163 11.9448C19.5709 13.1073 21.127 13.9557 22.8425 14.4759C22.8894 14.49 22.9316 14.4947 22.9785 14.4947C23.18 14.4947 23.3675 14.3634 23.4284 14.1619C23.4987 13.9088 23.3581 13.651 23.1144 13.576Z" fill="black"/>
<path d="M21.6379 7.13576C21.4551 6.95296 21.1598 6.95296 20.977 7.13576C20.7942 7.31856 20.7942 7.61385 20.977 7.79665C22.4488 9.26843 23.5831 11.0871 24.2674 13.0604C24.333 13.2525 24.5158 13.3744 24.7127 13.3744C24.7643 13.3744 24.8158 13.365 24.8674 13.3463C25.1111 13.2619 25.2424 12.9948 25.158 12.751C24.4268 10.6512 23.2128 8.70597 21.6379 7.13576Z" fill="black"/>
<path d="M22.8566 15.5726C21.6098 15.2305 20.4193 14.7149 19.3178 14.0399C19.0975 13.904 18.8069 13.9743 18.6756 14.1946C18.5397 14.4149 18.61 14.7055 18.8303 14.8368C20.0068 15.5586 21.2817 16.107 22.6082 16.4726C22.6504 16.482 22.6925 16.4913 22.7347 16.4913C22.941 16.4913 23.1285 16.3554 23.1847 16.1492C23.2503 15.8961 23.105 15.6383 22.8566 15.5726Z" fill="black"/>
<path d="M16.7539 7.13576C16.5711 6.95296 16.2758 6.95296 16.093 7.13576C14.565 8.66378 14.565 11.1574 16.093 12.6854C16.1867 12.7791 16.3039 12.8213 16.4258 12.8213C16.5476 12.8213 16.6648 12.7745 16.7586 12.6854C16.9414 12.5026 16.9414 12.2073 16.7586 12.0245C15.5961 10.8621 15.5961 8.96376 16.7586 7.80134C16.9367 7.61854 16.9367 7.31856 16.7539 7.13576Z" fill="black"/>
<path d="M15.3524 21.0754C15.2305 21.0754 15.1087 21.127 15.0196 21.2114C14.9305 21.3004 14.8837 21.4176 14.8837 21.5442C14.8837 21.666 14.9352 21.7879 15.0196 21.877C15.1087 21.966 15.2258 22.0129 15.3524 22.0129C15.4789 22.0129 15.5961 21.9613 15.6852 21.877C15.7742 21.7879 15.8211 21.6707 15.8211 21.5442C15.8211 21.4176 15.7695 21.3004 15.6852 21.2114C15.5961 21.1223 15.4743 21.0754 15.3524 21.0754Z"/>
    </symbol>

    <symbol id="washing-powder" viewBox="0 0 32 32">
        <path d="M8.48126 11.45C8.74015 11.45 8.95001 11.2401 8.95001 10.9812C8.95001 10.7223 8.74015 10.5125 8.48126 10.5125C8.22238 10.5125 8.01251 10.7223 8.01251 10.9812C8.01251 11.2401 8.22238 11.45 8.48126 11.45Z" fill="black"/>
<path d="M11.4875 11.45C11.7464 11.45 11.9562 11.2401 11.9562 10.9812C11.9562 10.7223 11.7464 10.5125 11.4875 10.5125C11.2286 10.5125 11.0187 10.7223 11.0187 10.9812C11.0187 11.2401 11.2286 11.45 11.4875 11.45Z" fill="black"/>
<path d="M9.98126 13.4187C10.2401 13.4187 10.45 13.2088 10.45 12.95C10.45 12.6911 10.2401 12.4812 9.98126 12.4812C9.72238 12.4812 9.51251 12.6911 9.51251 12.95C9.51251 13.2088 9.72238 13.4187 9.98126 13.4187Z" fill="black"/>
<path d="M12.9875 13.4187C13.2464 13.4187 13.4562 13.2088 13.4562 12.95C13.4562 12.6911 13.2464 12.4812 12.9875 12.4812C12.7286 12.4812 12.5187 12.6911 12.5187 12.95C12.5187 13.2088 12.7286 13.4187 12.9875 13.4187Z" fill="black"/>
<path d="M3.9375 13.4187C4.19638 13.4187 4.40625 13.2088 4.40625 12.95C4.40625 12.6911 4.19638 12.4812 3.9375 12.4812C3.67862 12.4812 3.46875 12.6911 3.46875 12.95C3.46875 13.2088 3.67862 13.4187 3.9375 13.4187Z" fill="black"/>
<path d="M6.97498 13.4187C7.23386 13.4187 7.44373 13.2088 7.44373 12.95C7.44373 12.6911 7.23386 12.4812 6.97498 12.4812C6.71609 12.4812 6.50623 12.6911 6.50623 12.95C6.50623 13.2088 6.71609 13.4187 6.97498 13.4187Z" fill="black"/>
<path d="M9.98126 9.47498C10.2401 9.47498 10.45 9.26511 10.45 9.00623C10.45 8.74734 10.2401 8.53748 9.98126 8.53748C9.72238 8.53748 9.51251 8.74734 9.51251 9.00623C9.51251 9.26511 9.72238 9.47498 9.98126 9.47498Z" fill="black"/>
<path d="M6.97498 9.47498C7.23386 9.47498 7.44373 9.26511 7.44373 9.00623C7.44373 8.74734 7.23386 8.53748 6.97498 8.53748C6.71609 8.53748 6.50623 8.74734 6.50623 9.00623C6.50623 9.26511 6.71609 9.47498 6.97498 9.47498Z" fill="black"/>
<path d="M5.50623 11.45C5.76511 11.45 5.97497 11.2401 5.97497 10.9812C5.97497 10.7223 5.76511 10.5125 5.50623 10.5125C5.24734 10.5125 5.03748 10.7223 5.03748 10.9812C5.03748 11.2401 5.24734 11.45 5.50623 11.45Z" fill="black"/>
<path d="M30.525 14.0188H26.0563C25.7938 14.0188 25.5875 14.2312 25.5875 14.4875C25.5875 14.75 25.8 14.9563 26.0563 14.9563H30.525C30.8188 14.9563 31.0563 15.1938 31.0563 15.4875V15.6438C31.0563 15.9062 30.8688 16.125 30.6125 16.1687L16.4188 18.5312C16.1938 18.5688 16.025 18.7625 16.025 18.9937V21.5C16.025 23.45 14.4375 25.0375 12.4875 25.0375H4.46875C2.51875 25.0375 0.93125 23.45 0.93125 21.5V14.9563H23.7438C24.0063 14.9563 24.2125 14.7438 24.2125 14.4875C24.2125 14.225 24 14.0188 23.7438 14.0188H16.8063C16.5375 13.375 15.8375 11.8063 14.7438 10.2125C12.8563 7.45625 10.6875 6 8.48125 6C6.275 6 4.1 7.45625 2.20625 10.2125C0.8125 12.2375 0.05625 14.2375 0.025 14.3188V14.325C0.01875 14.3375 0.01875 14.35 0.0125 14.3625C0.0125 14.3688 0.0125 14.3687 0.00625 14.375C0 14.3875 0 14.4 0 14.4187C0 14.425 0 14.425 0 14.4312C0 14.45 0 14.4688 0 14.4812V21.5C0 23.9688 2.00625 25.975 4.475 25.975H12.4938C14.9625 25.975 16.9688 23.9688 16.9688 21.5V19.3938L30.7688 17.0938C31.4813 16.975 32 16.3625 32 15.6438V15.4875C31.9938 14.675 31.3313 14.0188 30.525 14.0188ZM8.48125 6.9375C12.3125 6.9375 14.9688 12.1687 15.7938 14.0125H1.16875C1.9875 12.1687 4.64375 6.9375 8.48125 6.9375Z" fill="black"/>
    </symbol>

    <symbol id="apitherapy" viewBox="0 0 32 32">
        <path d="M4.18761 25.5505C7.66777 27.7268 7.43795 27.6142 7.60211 27.6142C7.76627 27.6142 7.5599 27.708 10.8056 25.6865C14.0559 27.7174 13.8495 27.6142 14.009 27.6142C14.1685 27.6142 14.009 27.6846 16.6261 26.0477C16.8138 25.9304 16.87 25.6818 16.7528 25.4942C16.6355 25.3066 16.3869 25.2503 16.1993 25.3676L14.0043 26.7418L11.2042 24.9924V22.2345L12.6676 21.3199C12.8552 21.2027 12.9115 20.9541 12.7942 20.7665C12.677 20.5789 12.4284 20.5226 12.2408 20.6398L10.8056 21.5404L8.00547 19.7909V17.033L10.8056 15.2836C12.3674 16.2591 12.2642 16.2122 12.3768 16.231C12.5644 16.2638 12.752 16.1653 12.8224 15.9871C12.8927 15.8089 12.827 15.6072 12.6676 15.504L11.2042 14.5894V11.8315L14.0043 10.0821L16.8044 11.8315V12.4084C16.8044 12.6289 16.9826 12.8071 17.203 12.8071C17.4235 12.8071 17.6017 12.6289 17.6017 12.4084V11.8315L20.4018 10.0821L23.2019 11.8315V14.8098C23.2019 15.0303 23.3801 15.2085 23.6005 15.2085C23.821 15.2085 23.9992 15.0303 23.9992 14.8098V11.6064C23.9992 11.4704 23.9289 11.3391 23.8116 11.2687L20.7958 9.38323V6.40023C20.7958 6.26422 20.7254 6.13289 20.6082 6.06254L17.4188 4.0598C17.2875 3.98007 17.1233 3.98007 16.9967 4.0598L14.009 5.92652L11.0166 4.0598C10.8853 3.98007 10.7211 3.98007 10.5945 4.0598L7.39105 6.06254C7.27379 6.13758 7.20344 6.26422 7.20344 6.40023V9.37854L4.18761 11.264C4.07035 11.3391 4 11.4657 4 11.6017V14.8052C4 14.9412 4.07035 15.0725 4.18761 15.1429L7.20344 17.0283V19.7862L4.18761 21.6717C4.07035 21.7467 4 21.8734 4 22.0094V25.2128C4 25.3488 4.07035 25.4755 4.18761 25.5505ZM17.2077 4.87121L20.0078 6.62068V9.37854L17.2077 11.128L14.4077 9.37854V6.62068L17.2077 4.87121ZM10.8056 4.87121L13.6056 6.62068V9.37854L10.8056 11.128L8.00547 9.37854V6.62068L10.8056 4.87121ZM4.80203 11.8269L7.60211 10.0774L10.4022 11.8269V14.5847L7.60211 16.3342L4.80203 14.5847V11.8269ZM4.80203 22.2298L7.60211 20.4804L10.4022 22.2298V24.9877L7.60211 26.7372L4.80203 24.9877V22.2298Z" fill="black"/>
<path d="M22.4092 16.0105V15.6072C22.4092 14.9083 22.0997 14.2423 21.5697 13.7827L21.9684 12.9806C22.0668 12.7836 21.9824 12.5444 21.7854 12.4459C21.5884 12.3474 21.3492 12.4272 21.2507 12.6242L20.8802 13.3699C20.3221 13.1495 19.6983 13.1495 19.1354 13.3699L18.7649 12.6242C18.7039 12.4928 18.5726 12.4084 18.4319 12.399C18.2865 12.3896 18.1505 12.46 18.0708 12.5773C17.991 12.6992 17.9816 12.8493 18.0473 12.9806L18.446 13.7827C17.9113 14.2376 17.6017 14.9036 17.6017 15.6072V16.0105C17.2359 16.0058 16.8419 16.0058 16.401 16.0058C14.2763 16.0058 11.9969 16.972 11.9969 18.4072C11.9969 20.1332 15.2472 21.0385 16.8654 20.7664C16.8278 21.0854 16.7997 21.5216 16.7997 21.8124C16.7997 24.6124 18.0004 26.8497 19.5998 27.1733V27.6189C19.5998 27.8393 19.778 28.0176 19.9985 28.0176C20.2189 28.0176 20.3971 27.8393 20.3971 27.6189V27.1686C21.9965 26.845 23.1972 24.6077 23.1972 21.8077C23.1972 21.5216 23.1691 21.0807 23.1315 20.7664C24.7684 21.0385 28 20.1239 28 18.4072C28 16.972 25.7252 16.0058 23.5959 16.0058C23.1925 16.0058 22.7845 16.0058 22.4092 16.0105ZM18.4085 15.6072C18.4085 14.7207 19.1261 14.0078 20.0078 14.0078C20.8943 14.0078 21.6072 14.7254 21.6072 15.6072V16.0293C21.0678 16.0199 20.5238 16.0996 20.0078 16.2591C19.4919 16.0903 18.9478 16.0152 18.4038 16.0293V15.6072H18.4085ZM20.0125 18.1587C20.2001 18.5339 20.43 18.8856 20.702 19.2046H19.3184C19.5857 18.8856 19.8202 18.5339 20.0125 18.1587ZM12.8036 18.4072C12.8036 17.6849 14.464 16.8079 16.4057 16.8079C17.2078 16.8079 19.0979 16.7938 19.5951 16.9533C19.4591 17.9148 18.0614 20.0113 16.4057 20.0113C14.4686 20.0066 12.8036 19.1295 12.8036 18.4072ZM18.4929 20.0066H21.5181C21.762 20.1989 22.0246 20.3631 22.3014 20.4991C22.3154 20.6023 22.3295 20.7055 22.3436 20.8086H19.6092C19.3887 20.8086 19.2105 20.9869 19.2105 21.2073C19.2105 21.4278 19.3887 21.606 19.6092 21.606H22.3999C22.4186 21.8733 22.4139 22.1407 22.3858 22.408H17.6299C17.6017 22.1407 17.597 21.8733 17.6158 21.606H18.0051C18.2255 21.606 18.4038 21.4278 18.4038 21.2073C18.4038 20.9869 18.2255 20.8086 18.0051 20.8086H17.6721C17.6862 20.7008 17.7002 20.5976 17.7143 20.4897C17.9957 20.3584 18.2537 20.1989 18.4929 20.0066ZM18.2068 24.8094H20.0078C20.2283 24.8094 20.4065 24.6312 20.4065 24.4108C20.4065 24.1903 20.2283 24.0121 20.0078 24.0121H17.9113C17.8362 23.7494 17.7753 23.4821 17.7284 23.21H22.292C22.2451 23.4821 22.1841 23.7494 22.1091 24.0121H21.6119C21.3915 24.0121 21.2132 24.1903 21.2132 24.4108C21.2132 24.6312 21.3915 24.8094 21.6119 24.8094H21.8136C20.838 26.9435 19.1823 26.9435 18.2068 24.8094ZM27.2121 18.4072C27.2121 19.4016 24.2384 20.4053 22.8126 19.8518C21.6213 19.289 20.7442 18.229 20.4206 16.9533C20.9975 16.7797 22.7282 16.8079 23.6099 16.8032C25.5517 16.8079 27.2121 17.6849 27.2121 18.4072Z" fill="black"/>

    <symbol id="beans" viewBox="0 0 32 32">
        <path d="M15.3672 10.0563C15.2031 9.85 14.9031 9.81719 14.6969 9.98125C14.4484 10.1781 14.1531 10.2859 13.8344 10.2859C13.5156 10.2859 13.2203 10.1828 12.9719 9.98125C12.7656 9.81719 12.4656 9.85 12.3016 10.0563C12.1375 10.2625 12.1703 10.5625 12.3766 10.7266C12.7891 11.0594 13.3094 11.2375 13.8391 11.2375C14.3688 11.2375 14.8891 11.0547 15.3016 10.7266C15.4984 10.5625 15.5313 10.2625 15.3672 10.0563Z" fill="black"/>
<path d="M27.6531 16.8016C27.2687 15.7469 26.6031 14.8422 25.7265 14.1859C25.1031 13.7219 24.3953 13.4031 23.6312 13.2391C23.7953 11.7344 23.3265 10.1734 22.3468 8.9875C21.2875 7.70781 19.764 7 18.0578 7H17.7812C16.5859 7 15.4281 7.42188 14.4297 8.22344C14.2562 8.35938 14.05 8.43438 13.8297 8.43438C13.6094 8.43438 13.4031 8.35938 13.2297 8.22344C12.2359 7.42188 11.0781 7 9.88279 7H9.60623C8.37342 7 7.22029 7.375 6.27342 8.07813C5.39217 8.73438 4.72654 9.63438 4.34686 10.6938C3.96717 11.7438 3.89686 12.8594 4.15467 13.9188C4.42654 15.0625 5.06873 16.0797 6.01092 16.8672C6.7281 17.4672 7.5156 17.9828 8.34998 18.4C8.31717 18.9484 8.36404 19.4922 8.4906 20.0266C8.76248 21.1703 9.40467 22.1875 10.3469 22.975C12.5359 24.8031 15.3156 25.8063 18.1703 25.8063C21.025 25.8063 23.8047 24.7984 25.9937 22.975C26.9359 22.1875 27.5781 21.1703 27.85 20.0266C28.1031 18.9672 28.0375 17.8516 27.6531 16.8016ZM8.49998 17.4016C7.83435 17.0453 7.20623 16.6188 6.62029 16.1313C4.79217 14.6078 4.71248 12.4891 5.24217 11.0172C5.77654 9.53594 7.20623 7.95625 9.60154 7.95625H9.8781C10.8531 7.95625 11.8047 8.30781 12.6297 8.96875C12.9672 9.24063 13.3937 9.39063 13.825 9.39063C14.2562 9.39063 14.6828 9.24063 15.0203 8.96875C15.8453 8.30313 16.7968 7.95625 17.7718 7.95625H18.0484C19.464 7.95625 20.725 8.5375 21.6015 9.59688C22.4172 10.5813 22.8015 11.8703 22.675 13.1125C22.5812 13.1078 22.4828 13.1031 22.3843 13.1031H22.1078C20.9125 13.1031 19.7547 13.525 18.7562 14.3266C18.5828 14.4625 18.3765 14.5375 18.1562 14.5375C17.9359 14.5375 17.7297 14.4625 17.5562 14.3266C16.5578 13.525 15.4 13.1031 14.2047 13.1031H13.9281C12.6953 13.1031 11.5469 13.4781 10.5953 14.1813C9.71404 14.8375 9.04842 15.7375 8.66873 16.7969C8.60779 16.9984 8.54685 17.2 8.49998 17.4016ZM25.3797 22.2391C23.364 23.9219 20.8 24.85 18.1703 24.85C15.5406 24.85 12.9719 23.9219 10.9562 22.2391C9.1281 20.7156 9.04842 18.5969 9.5781 17.125C10.1125 15.6438 11.5422 14.0641 13.9375 14.0641H14.214C15.189 14.0641 16.1406 14.4156 16.9656 15.0766C17.3031 15.3484 17.7297 15.4984 18.1609 15.4984C18.5922 15.4984 19.0187 15.3484 19.3562 15.0766C20.1812 14.4109 21.1328 14.0641 22.1078 14.0641H22.3843C24.7797 14.0641 26.2093 15.6484 26.7437 17.125C27.2875 18.5969 27.2078 20.7156 25.3797 22.2391Z" fill="black"/>
<path d="M19.6234 16.0985C19.4593 15.8922 19.1593 15.8594 18.9531 16.0235C18.7047 16.2204 18.4093 16.3282 18.0906 16.3282C17.7718 16.3282 17.4765 16.2251 17.2281 16.0235C17.0219 15.8594 16.7219 15.8922 16.5578 16.0985C16.3937 16.3047 16.4265 16.6047 16.6328 16.7688C17.0453 17.1016 17.5656 17.2797 18.0953 17.2797C18.625 17.2797 19.1453 17.0969 19.5578 16.7688C19.7593 16.6047 19.7922 16.3047 19.6234 16.0985Z" fill="black"/>
<path d="M23.3171 22.4453C23.1953 22.2109 22.9093 22.1172 22.6749 22.239C21.2734 22.9562 19.7593 23.3219 18.1703 23.3219C17.9078 23.3219 17.6921 23.5375 17.6921 23.8C17.6921 24.0625 17.9078 24.2781 18.1703 24.2781C19.9093 24.2781 21.5734 23.8797 23.1109 23.0875C23.3453 22.9703 23.4343 22.6797 23.3171 22.4453Z" fill="black"/>
<path d="M25.1688 21.0953C25 20.8937 24.7 20.8656 24.4938 21.0344C24.3813 21.1281 24.2688 21.2172 24.1563 21.3062C23.9453 21.4656 23.9078 21.7656 24.0672 21.9765C24.1609 22.0984 24.3016 22.164 24.4469 22.164C24.55 22.164 24.6484 22.1312 24.7375 22.0656C24.8641 21.9719 24.9859 21.8687 25.1078 21.7703C25.3094 21.5969 25.3375 21.2969 25.1688 21.0953Z" fill="black"/>

<!-- ingredients list slide # 2 -->

<symbol id="oat" viewBox="0 0 32 32">
        <path d="M19.4701 18.3212C19.9297 19.0528 20.6565 19.4513 21.4349 19.4513C21.796 19.4513 22.1665 19.3669 22.5276 19.1887L23.925 18.6964L22.9918 17.5428C22.6026 16.9238 22.0164 16.5533 21.3787 16.4502C21.8664 16.4174 22.3494 16.2345 22.7667 15.8828L24.0047 15.0715L22.823 14.1758C22.5557 13.9132 22.2509 13.7397 21.932 13.6225C22.1993 13.4209 22.4291 13.1536 22.6073 12.83L23.4654 11.6202L22.0399 11.2169C21.4818 10.9824 20.9097 10.9637 20.4033 11.1278C20.7644 10.837 21.0457 10.4338 21.1958 9.93669L21.7913 8.58148L20.3142 8.47362C19.0715 8.23447 17.9601 8.90035 17.5944 10.1102L17.1161 11.1934C16.8206 10.8558 16.5018 10.5416 16.1547 10.2556L17.2989 9.64596C18.4807 9.19109 19.0621 8.03283 18.7292 6.8136L18.5135 5.34584L17.2052 6.03986C16.0234 6.49472 15.442 7.65299 15.7749 8.8769L15.9531 10.0868C15.5592 9.78195 15.1372 9.51934 14.687 9.28957L15.245 8.27198C15.9859 7.24502 15.8406 5.95545 14.8886 5.11606L13.9086 4L13.1958 5.29894C12.4549 6.32591 12.6002 7.61547 13.5522 8.45486L14.0211 8.98007C13.9179 8.93787 13.8195 8.89566 13.7116 8.85815C13.5287 8.79719 13.3411 8.86753 13.2333 9.01758L12.4642 8.13599C11.7515 7.09027 10.4947 6.78077 9.37866 7.38101L8 7.92497L8.97069 9.04103C9.43963 9.73036 10.143 10.1008 10.8933 10.1008C11.0199 10.1008 11.1465 10.0868 11.2685 10.0633C10.6729 10.2931 10.1852 10.7714 9.92732 11.4467L9.24267 12.7644L10.7104 12.966C10.9308 13.0223 11.1512 13.0504 11.3669 13.0504C11.7468 13.0504 12.1079 12.9566 12.4267 12.7878C12.3095 13.1348 12.2673 13.5193 12.3236 13.9226L12.3611 15.4045L13.7444 14.8746C13.857 14.8464 13.9648 14.8042 14.068 14.762C14.0352 14.8746 14.0023 14.9918 13.9836 15.1137L13.585 16.5393L15.0621 16.4408C15.0809 16.4408 15.0996 16.4361 15.1184 16.4408C14.8839 16.6518 14.6776 16.9097 14.5276 17.2239L13.7304 18.4713L15.1747 18.8042C15.3435 18.8652 15.5123 18.9027 15.6811 18.9261C15.0621 18.9777 14.476 19.2778 14.0399 19.8265L12.9848 20.8675L14.3212 21.51C14.7386 21.7773 15.1887 21.9086 15.6249 21.9086C16.3095 21.9086 16.9707 21.5944 17.4537 20.9894L17.51 20.9332C16.1923 24.1172 13.3552 26.4525 9.61782 27.1653C9.38804 27.2075 9.23798 27.4326 9.28019 27.6577C9.3177 27.8593 9.4959 28 9.69285 28C9.72098 28 9.74443 27.9953 9.77257 27.9906C13.5756 27.2638 16.5111 24.9801 18.0258 21.8429L17.9695 23.0856C17.7585 24.3329 18.4572 25.4256 19.6811 25.7632L21.0551 26.3212L21.1254 24.8394C21.3365 23.592 20.6377 22.4994 19.4138 22.1618L18.1336 21.6366C18.3634 21.1301 18.551 20.6049 18.7104 20.061L18.8886 20.6893C19.0856 21.9367 20.0938 22.7573 21.3599 22.687L22.837 22.7855L22.4338 21.3599C22.2368 20.1079 21.2192 19.2919 19.9625 19.3623L18.9027 19.2919C19.0012 18.8277 19.0762 18.354 19.1184 17.871L19.4701 18.3212ZM17.5287 6.80891L17.857 6.64009L17.9039 6.94959L17.9132 7.00117C18.143 7.81243 17.7679 8.55803 16.9801 8.85346L16.6518 9.02227L16.6049 8.71278L16.5955 8.6612C16.3611 7.84994 16.7362 7.10434 17.5287 6.80891ZM13.8898 5.77257L14.0727 5.449L14.2837 5.68347L14.3212 5.72098C14.959 6.27433 15.0528 7.09965 14.551 7.7796L14.3681 8.10317L14.1618 7.8687L14.1243 7.83118C13.4865 7.28253 13.3927 6.45252 13.8898 5.77257ZM18.8136 23.2169L18.8324 22.8511L19.1231 22.9683L19.1747 22.9871C19.9906 23.2028 20.4408 23.9015 20.2907 24.7362L20.272 25.102L19.9812 24.9848L19.9297 24.966C19.1137 24.7503 18.6635 24.0469 18.8136 23.2169ZM19.9672 20.2204H19.9953C20.8347 20.1594 21.4865 20.6893 21.6084 21.524L21.7069 21.8804L21.3646 21.857H21.3365C20.5018 21.9179 19.8453 21.388 19.7233 20.5533L19.6249 20.197L19.9672 20.2204ZM19.1653 16.9472C19.1653 16.8253 19.1747 16.7081 19.1747 16.5862C19.17 16.1735 19.1278 15.7655 19.0668 15.3669L19.5967 15.7702C19.9672 16.1313 20.4033 16.347 20.8581 16.422C20.5533 16.4455 20.2438 16.5252 19.9437 16.6753L19.1653 16.9472ZM18.5744 13.585L19.6108 13.8804C19.6764 13.9086 19.7421 13.932 19.803 13.9508C19.7515 13.9883 19.6999 14.0164 19.6483 14.0586L18.8886 14.5557C18.8089 14.2227 18.7011 13.8992 18.5744 13.585ZM22.2884 18.007L22.5182 18.2978L22.2227 18.4009L22.1712 18.4244C21.4209 18.8042 20.619 18.5791 20.1782 17.8617L19.9484 17.5709L20.2438 17.4678L20.2954 17.4443C21.0457 17.0598 21.8476 17.2849 22.2884 18.007ZM22.5463 15.0152L22.2837 15.1887L22.2415 15.2216C21.5991 15.7749 20.7691 15.7421 20.1688 15.1512L19.8781 14.9261L20.1407 14.7526L20.1829 14.7198C20.8206 14.1665 21.6553 14.1993 22.2556 14.7902L22.5463 15.0152ZM21.7304 11.9953L22.0821 12.0985L21.8992 12.3564L21.871 12.4033C21.4771 13.1489 20.6893 13.4256 19.9156 13.0926L19.5639 12.9894L19.7468 12.7315L19.7749 12.6846C20.1735 11.939 20.9566 11.6624 21.7304 11.9953ZM18.3775 10.415L18.3962 10.3634C18.6307 9.55217 19.3435 9.12075 20.1735 9.29426L20.5393 9.32239L20.4127 9.60844L20.3939 9.66002C20.1594 10.4713 19.442 10.898 18.6166 10.7292L18.2509 10.7011L18.3775 10.415ZM18.476 11.5639C18.6448 11.5967 18.8136 11.6155 18.9777 11.6155C19.2263 11.6155 19.4607 11.578 19.6858 11.5076C19.4326 11.7046 19.2122 11.9578 19.0434 12.2673L18.3962 13.177C18.1196 12.5721 17.7726 12 17.3646 11.4842L18.476 11.5639ZM17.3927 13.0504L16.4549 13.1114C16.0938 13.0926 15.7562 13.1536 15.4467 13.2708C15.5358 12.9519 15.5686 12.6049 15.517 12.2392L15.4795 10.7808C16.2673 11.3998 16.9144 12.1735 17.3927 13.0504ZM9.66002 8.55334L9.42087 8.27198L9.71161 8.15944L9.76319 8.13599C10.4994 7.72802 11.3107 7.92497 11.7749 8.62837L12.0141 8.90973L11.7233 9.02227L11.6717 9.04572C10.9355 9.45369 10.1243 9.25205 9.66002 8.55334ZM12.0563 9.79601L13.1676 9.35991C13.2005 9.49121 13.2943 9.60844 13.4302 9.65533C14.1759 9.91325 14.8558 10.2931 15.4607 10.7667L14.0961 11.2872C13.8898 11.3388 13.7069 11.4185 13.5334 11.5076L14.2181 10.1899L12.7503 9.98828C12.4033 9.89918 12.0703 9.88511 11.7515 9.93669C11.8546 9.89449 11.9578 9.85229 12.0563 9.79601ZM10.9121 12.1454L10.5463 12.0891L10.6917 11.8124L10.7151 11.7608C11.0012 10.9683 11.7421 10.5838 12.558 10.8089L12.9238 10.8652L12.7784 11.1419L12.755 11.1934C12.4642 11.9859 11.7233 12.3705 10.9121 12.1454ZM13.5287 14.0633L13.1817 14.1899L13.1723 13.8757L13.1676 13.8195C13.0363 12.9848 13.5006 12.2954 14.3212 12.0985L14.6682 11.9719L14.6776 12.286L14.6823 12.3423C14.8136 13.177 14.3494 13.8664 13.5287 14.0633ZM15.0668 15.5967L14.7245 15.6202L14.8089 15.32L14.8183 15.2638C14.9355 14.4666 15.5264 13.9555 16.3095 13.9555C16.347 13.9555 16.3845 13.9555 16.4267 13.9601H16.4549L16.7972 13.9367L16.7128 14.2368L16.7034 14.2931C16.5815 15.1278 15.9437 15.653 15.095 15.6014L15.0668 15.5967ZM17.5334 14.4431L17.7304 13.7444C18.0539 14.5135 18.2509 15.3482 18.3072 16.2157L17.4678 16.0234C17.2286 15.939 16.9894 15.8968 16.755 15.8828C17.163 15.5311 17.4443 15.0387 17.5334 14.4431ZM15.0903 17.9226L15.2591 17.66L15.2872 17.6131C15.6436 16.8488 16.4174 16.5346 17.2052 16.83L17.5662 16.9144L17.3974 17.177L17.3693 17.2239C17.0129 17.9883 16.2392 18.3072 15.4513 18.007L15.0903 17.9226ZM16.8441 20.4174L16.8066 20.4596C16.2907 21.1254 15.4654 21.2614 14.762 20.8019L14.4338 20.6377L14.6589 20.4174L14.6964 20.3751C15.2122 19.7093 16.0328 19.5733 16.7409 20.0328L17.0692 20.197L16.8441 20.4174ZM17.177 19.3107C16.8722 19.1137 16.544 19.0012 16.2204 18.9496C17.0223 18.8839 17.7351 18.4103 18.1196 17.6038L18.3118 17.3036C18.2743 18.129 18.1524 18.9215 17.9461 19.6811L17.177 19.3107Z" fill="black"/>

<symbol id="seaweed" viewBox="0 0 32 32">
        <path d="M21.625 5C21.3672 5 21.1562 5.21094 21.1562 5.46875C21.1562 5.72656 21.3672 5.9375 21.625 5.9375C21.8828 5.9375 22.0938 5.72656 22.0938 5.46875C22.0938 5.21094 21.8828 5 21.625 5Z" fill="black"/>
<path d="M27.5312 26.5625H24.8922C24.9906 26.3891 25.0469 26.1922 25.0469 25.9813V24.8844C25.0469 24.7156 25.1687 24.5984 25.3422 24.5984H26.7531C27.4422 24.5984 28 24.0313 28 23.3328C28 21.9969 27.4797 20.7453 26.5375 19.7984C25.7453 19.0063 24.4094 19.5828 24.4094 20.6797C24.4094 20.8484 24.2734 20.9891 24.1 20.9891H22.6891C22.5344 20.9891 22.3844 21.0172 22.2438 21.0734L22.0984 20.675C22.0422 20.5156 22.1219 20.3375 22.2812 20.2813L23.3125 19.9063C23.9594 19.6719 24.2922 18.9547 24.0578 18.3078L23.6828 17.2766C23.6266 17.1172 23.7062 16.9391 23.8656 16.8828C24.9109 16.5031 24.9719 15.0547 23.9641 14.5812C22.7547 14.0187 21.4 13.9578 20.1437 14.4125C19.4969 14.6469 19.1641 15.3641 19.3984 16.0109L19.7734 17.0422C19.8297 17.2016 19.75 17.3797 19.5906 17.4359L18.9531 17.6656C18.9578 17.3422 18.8359 17.0188 18.5875 16.775L17.8094 15.9969C17.6875 15.875 17.6875 15.6828 17.8094 15.5609L18.5875 14.7828C19.075 14.2953 19.075 13.5078 18.5875 13.0203C17.65 12.0828 16.3984 11.5625 15.0625 11.5625C13.9422 11.5625 13.4031 12.9125 14.1812 13.6906C14.3031 13.8125 14.3031 14.0047 14.1812 14.1266L13.4031 14.9047C12.9156 15.3922 12.9156 16.1797 13.4031 16.6672L14.1812 17.4453C14.3031 17.5672 14.3031 17.7594 14.1812 17.8812L13.8906 18.1719C13.7547 18.0172 13.5813 17.8953 13.3797 17.8203L12.3484 17.4453C12.2688 17.4172 12.2078 17.3609 12.175 17.2859C12.1422 17.2109 12.1375 17.1266 12.1656 17.0516L12.5406 16.0203C12.775 15.3734 12.4422 14.6609 11.7953 14.4219C10.5438 13.9672 9.18438 14.0234 7.975 14.5906C6.97188 15.0594 7.03281 16.5078 8.07344 16.8875C8.23281 16.9438 8.31719 17.1219 8.25625 17.2813L7.88125 18.3125C7.64688 18.9594 7.97969 19.6719 8.62656 19.9109L9.65781 20.2859C9.81719 20.3422 9.90156 20.5203 9.84062 20.6797L9.69531 21.0734C9.55469 21.0172 9.4 20.9891 9.25 20.9891H7.89062C7.72187 20.9891 7.58125 20.8531 7.58125 20.6797C7.58125 19.5828 6.24531 19.0063 5.45312 19.7984C4.53437 20.7266 4 22.0203 4 23.3469C4 24.0359 4.55781 24.5938 5.24688 24.5938H6.60625C6.77969 24.5938 6.90625 24.7156 6.90625 24.8797V25.9766C6.90625 26.1875 6.95781 26.3844 7.05156 26.5578H4.46875C4.21094 26.5578 4 26.7688 4 27.0266C4 27.2844 4.21094 27.4953 4.46875 27.4953C5.36875 27.4953 26.2375 27.4953 27.5312 27.4953C27.7891 27.4953 28 27.2844 28 27.0266C28 26.7688 27.7891 26.5625 27.5312 26.5625ZM10.0375 26.5625C9.81719 26.3797 9.54063 26.2813 9.25469 26.2813H8.15781C7.98437 26.2813 7.84375 26.1453 7.84375 25.9813V24.8844C7.84375 24.1953 7.3 23.6609 6.60625 23.6609H5.24688C5.07812 23.6609 4.9375 23.525 4.9375 23.3516C4.9375 22.2688 5.36875 21.2188 6.12813 20.4641C6.32031 20.2719 6.65312 20.4078 6.65312 20.6797C6.65312 21.3688 7.21094 21.9266 7.9 21.9266L9.25937 21.9219C9.35312 21.9219 9.44219 21.9688 9.50313 22.0391C9.51719 22.0719 9.53594 22.1047 9.55937 22.1328C9.57344 22.1656 9.57812 22.2031 9.57812 22.2406V23.3281C9.57812 24.0266 10.1313 24.5938 10.8109 24.5938H11.9078C12.0766 24.5938 12.2031 24.7156 12.2031 24.8797V25.9766C12.2031 26.1875 12.2547 26.3844 12.3531 26.5578H10.0375V26.5625ZM14.5609 26.2813H13.4641C13.2906 26.2813 13.1453 26.1453 13.1453 25.9813V24.8844C13.1453 24.1953 12.6062 23.6609 11.9125 23.6609H10.8156C10.6562 23.6609 10.5203 23.5109 10.5203 23.3328V22.2359C10.5203 22.0859 10.4922 21.9406 10.4406 21.8047L10.7313 21.0031C10.9656 20.3563 10.6328 19.6438 9.98594 19.4047L8.95469 19.0297C8.79531 18.9734 8.71094 18.7953 8.77188 18.6359L9.14688 17.6047C9.38125 16.9578 9.04844 16.2453 8.40156 16.0063C8.14375 15.9125 8.125 15.5563 8.37813 15.4391C9.3625 14.9797 10.4641 14.9328 11.4813 15.3031C11.6406 15.3594 11.725 15.5375 11.6641 15.6969L11.2891 16.7281C11.1766 17.0422 11.1906 17.3797 11.3312 17.6797C11.4719 17.9797 11.7203 18.2094 12.0344 18.3219L13.0656 18.6969C13.1453 18.725 13.2063 18.7859 13.2437 18.8609C12.9344 19.3438 12.9906 19.9953 13.4125 20.4125L14.1906 21.1906C14.3125 21.3125 14.3125 21.5047 14.1906 21.6266L13.4125 22.4047C12.925 22.8922 12.925 23.6797 13.4125 24.1672L14.6406 25.3953C14.5562 25.6578 14.5563 25.9391 14.6547 26.2109L14.6828 26.2906C14.6406 26.2859 14.5984 26.2813 14.5609 26.2813ZM15.2453 24.6734L14.0688 23.4969C13.9469 23.375 13.9469 23.1828 14.0688 23.0609L14.8469 22.2828C15.3344 21.7953 15.3344 21.0078 14.8469 20.5203L14.0688 19.7422C13.9469 19.6203 13.9469 19.4281 14.0688 19.3063L14.8469 18.5281C15.3344 18.0406 15.3344 17.2531 14.8469 16.7656C14.1344 16.0156 13.9797 15.9922 13.9797 15.7719C13.9797 15.6875 14.0125 15.6125 14.0688 15.5563L14.8469 14.7781C15.3344 14.2906 15.3344 13.5031 14.8469 13.0156C14.6547 12.8234 14.7906 12.4906 15.0625 12.4906C16.1453 12.4906 17.1672 12.9125 17.9313 13.6813C18.0531 13.8031 18.0531 13.9953 17.9313 14.1172L17.1531 14.8953C16.6656 15.3828 16.6656 16.1703 17.1531 16.6578L17.9313 17.4359C18.0531 17.5578 18.0531 17.75 17.9313 17.8719L17.1531 18.65C16.6656 19.1375 16.6656 19.925 17.1531 20.4125L17.6922 20.9516L16.975 21.2141C16.6609 21.3266 16.4125 21.5563 16.2719 21.8563C16.1312 22.1563 16.1172 22.4938 16.2297 22.8078L16.6047 23.8391C16.6609 23.9984 16.5813 24.1766 16.4219 24.2328L15.3906 24.6078C15.3438 24.6266 15.2922 24.65 15.2453 24.6734ZM18.0156 19.9438L17.8187 19.7469C17.7062 19.6344 17.6969 19.4563 17.7953 19.3344C17.8187 19.4094 17.8141 19.3906 18.0156 19.9438ZM19.6328 24.3922L20.0078 25.4234C20.0641 25.5828 19.9844 25.7609 19.825 25.8172L18.7938 26.1922C18.5875 26.2672 18.4094 26.3938 18.2687 26.5625H15.7797L15.5312 25.8828C15.475 25.7234 15.5547 25.5453 15.7141 25.4891L16.7453 25.1141C17.3922 24.8797 17.725 24.1625 17.4906 23.5156L17.1156 22.4844C17.0875 22.4094 17.0922 22.325 17.125 22.25C17.1578 22.175 17.2234 22.1188 17.2984 22.0906L18.3297 21.7156C18.4891 21.6594 18.6297 21.5703 18.7516 21.4578L18.7562 21.4531C18.7609 21.4484 18.7656 21.4438 18.7703 21.4391C19.1219 21.0969 19.2438 20.5813 19.075 20.1219L18.7 19.0906C18.6438 18.9313 18.7234 18.7531 18.8828 18.6969L19.9141 18.3219C20.5609 18.0875 20.8937 17.375 20.6594 16.7234L20.2844 15.6922C20.2281 15.5328 20.3078 15.3547 20.4672 15.2984C21.4844 14.9281 22.5859 14.975 23.5703 15.4344C23.8188 15.5516 23.8047 15.9078 23.5469 16.0016C22.9 16.2359 22.5672 16.9484 22.8016 17.5953L23.1766 18.6266C23.2328 18.7859 23.1531 18.9641 22.9938 19.0203L21.9625 19.3953C21.3156 19.6297 20.9828 20.3469 21.2172 20.9938L21.5453 21.8891C21.55 21.9594 21.5734 22.0297 21.6109 22.0906C21.6297 22.2313 21.55 22.3672 21.4094 22.4188L20.3781 22.7938C19.7312 23.0328 19.3984 23.7453 19.6328 24.3922ZM24.1094 24.8797V25.9766C24.1094 26.15 23.9406 26.2297 23.7859 26.2297H22.6891C22.4125 26.2297 22.1359 26.3469 21.9016 26.5578H20.4156C20.875 26.2484 21.0906 25.6531 20.8891 25.1L20.5141 24.0688C20.4578 23.9094 20.5375 23.7313 20.6969 23.675L21.7281 23.3C22.3 23.0938 22.6141 22.5172 22.5344 21.9594C22.5812 21.9359 22.6328 21.9172 22.6844 21.9172H24.0953C24.7844 21.9172 25.3422 21.3641 25.3422 20.675C25.3422 20.3984 25.675 20.2625 25.8672 20.4594C26.6406 21.2234 27.0625 22.2453 27.0625 23.3281C27.0625 23.5016 26.9172 23.6563 26.7531 23.6563H25.3422C24.6484 23.6563 24.1094 24.1953 24.1094 24.8797Z" fill="black"/>
<path d="M18.3438 5.9375C17.3078 5.9375 16.4688 6.77656 16.4688 7.8125C16.4688 8.84844 17.3078 9.6875 18.3438 9.6875C19.3797 9.6875 20.2188 8.84844 20.2188 7.8125C20.2188 6.77656 19.3797 5.9375 18.3438 5.9375ZM18.3438 8.75C17.8281 8.75 17.4062 8.32812 17.4062 7.8125C17.4062 7.29688 17.8281 6.875 18.3438 6.875C18.8594 6.875 19.2812 7.29688 19.2812 7.8125C19.2812 8.32812 18.8594 8.75 18.3438 8.75Z" fill="black"/>
<path d="M20.6875 10.625C19.9141 10.625 19.2812 11.2578 19.2812 12.0312C19.2812 12.8047 19.9141 13.4375 20.6875 13.4375C21.4609 13.4375 22.0938 12.8047 22.0938 12.0312C22.0938 11.2578 21.4609 10.625 20.6875 10.625ZM20.6875 12.5C20.4297 12.5 20.2188 12.2891 20.2188 12.0312C20.2188 11.7734 20.4297 11.5625 20.6875 11.5625C20.9453 11.5625 21.1562 11.7734 21.1562 12.0312C21.1562 12.2891 20.9453 12.5 20.6875 12.5Z" fill="black"/>


<symbol id="seeds" viewBox="0 0 32 32">
        <g clip-path="url(#clip0)">
<path d="M26.4822 14.1448L26.3037 13.4356L25.6462 13.971C25.4114 13.3135 25.1624 12.919 25.0497 12.7546L24.9229 12.5761L24.7022 12.5573C24.5566 12.5479 24.2372 12.5385 23.7769 12.5949L24.0681 11.7072L23.2556 11.9045C23.0301 11.9608 22.7812 12.0313 22.5135 12.1205C22.5135 12.1205 22.5135 12.1205 22.5135 12.1158C22.6168 6.76162 20.3624 4.3851 20.1041 4.13618C20.0994 4.13148 20.0947 4.13148 20.09 4.12679C20.0853 4.12209 20.0806 4.1127 20.0759 4.108C20.0431 4.08452 20.0102 4.07043 19.9726 4.05164C19.9538 4.04225 19.9397 4.03285 19.9209 4.02346C19.8599 4.00467 19.7941 3.99528 19.7284 3.99998C19.7284 3.99998 19.7284 3.99998 19.7237 3.99998C19.3667 4.03755 16.1213 4.48373 12.8337 8.75301C12.6458 9.03951 12.472 9.34009 12.3076 9.64538C10.8141 8.57454 9.6728 8.30213 9.33933 8.24107C9.20313 8.21759 9.06223 8.25516 8.9589 8.3444C8.78982 8.49 7.78474 9.40585 6.991 11.3738C6.9816 11.3972 6.97221 11.416 6.96282 11.4395C6.49315 12.6278 6.09863 14.1824 6 16.1784C6.03757 17.3338 6.21605 18.5127 6.53542 19.6775C6.85479 20.8422 7.30098 21.946 7.87867 22.9933C9.22192 25.0129 10.4431 25.5154 11.4387 25.5154C12.0305 25.5154 12.5472 25.337 12.9558 25.1961C13.1718 25.1209 14.1065 24.8579 14.2614 24.825C14.7264 25.7691 15.5249 26.1589 16.1072 26.4407C16.3139 26.5393 17.3049 27.1076 17.4975 27.2297C17.9953 27.5585 18.6622 28 19.5875 28C20.4658 28 21.5742 27.6008 22.9879 26.3233C23.7816 25.4779 24.4861 24.5197 25.0826 23.4677C25.6791 22.4203 26.1487 21.3213 26.4775 20.1706C27.0411 17.4184 26.7922 15.3753 26.4822 14.1448ZM23.4528 13.5906C23.8755 13.5013 24.1996 13.4826 24.411 13.4779C24.5331 13.6892 24.7115 14.0556 24.8759 14.591L22.4947 16.5166L23.4528 13.5906ZM18.62 5.24929C18.2489 5.8035 17.8779 6.43285 17.4834 7.18902C17.3659 7.41446 17.4505 7.69626 17.6759 7.81837C17.7464 7.85594 17.8215 7.87003 17.892 7.87003C18.0611 7.87003 18.2207 7.7808 18.3053 7.62111C18.8313 6.62072 19.3057 5.85516 19.7941 5.20232C20.4282 6.03833 21.6587 8.17062 21.5836 12.0595C21.5695 12.2051 21.5507 12.3507 21.5272 12.4963C21.5131 12.501 21.5037 12.5057 21.4896 12.515C21.3675 12.5714 21.2407 12.6278 21.1092 12.6935C21.0247 12.7358 20.9401 12.7781 20.8556 12.8203C20.8086 12.8438 20.7569 12.872 20.71 12.8955C20.2356 13.1491 19.7659 13.4356 19.2963 13.7597C19.2634 13.7785 19.2352 13.8019 19.2023 13.8254C19.0943 13.9006 18.9863 13.9804 18.8783 14.0603C18.8313 14.0931 18.789 14.126 18.7421 14.1636C18.6434 14.2387 18.5448 14.3139 18.4462 14.3937C18.3851 14.4454 18.3194 14.497 18.2536 14.5487C18.1691 14.6145 18.0892 14.6849 18.0047 14.7554C17.8544 14.8822 17.7041 15.0137 17.5538 15.1499C17.3566 15.3612 17.164 15.5773 16.9761 15.8027C16.591 16.2677 16.2294 16.7608 15.8959 17.2822C15.7456 17.517 15.6 17.7565 15.4591 18.0008C15.4403 18.0336 15.4215 18.0712 15.4027 18.1041C15.2431 18.3859 15.0975 18.6724 14.9566 18.9636C14.9519 18.9683 14.9519 18.9777 14.9472 18.9871L14.9378 19.0105C14.9331 19.0199 14.9284 19.0293 14.9237 19.0387C14.9096 19.0716 14.8908 19.1092 14.8767 19.142C15.2431 16.1456 15.9147 13.3323 16.8869 10.7726C16.9761 10.533 16.8587 10.2653 16.6145 10.1714C16.375 10.0822 16.1025 10.1996 16.0133 10.4438C14.9894 13.1538 14.2849 16.1362 13.9186 19.3158C13.8341 19.2923 13.7542 19.2642 13.665 19.2407C12.6411 18.9542 11.3636 18.6019 11.4247 15.4927C11.5327 14.4125 11.7816 13.3229 12.1573 12.252C12.3546 11.6884 12.5988 11.1201 12.8806 10.5565C12.8806 10.5518 12.8806 10.5518 12.8853 10.5471C13.1061 10.1103 13.3409 9.68765 13.5945 9.29313C15.553 6.75692 17.4364 5.69548 18.62 5.24929ZM13.9796 23.9327C13.8012 23.9749 12.9605 24.2098 12.6552 24.3178C11.6501 24.6653 10.4008 25.1021 8.6771 22.5143C8.15108 21.5655 7.73307 20.5276 7.43718 19.4332C7.13659 18.3389 6.96751 17.2352 6.93464 16.1878C7.02387 14.4501 7.34325 13.088 7.73307 12.0313C8.43288 11.9984 9.13268 11.9045 9.809 11.7354C10.0579 11.6743 10.2129 11.4207 10.1472 11.1718C10.0861 10.9229 9.83249 10.7679 9.58356 10.8289C9.1092 10.9464 8.62544 11.0215 8.13699 11.0685C8.62544 10.0681 9.13738 9.4716 9.40039 9.20389C9.82309 9.31191 10.7342 9.62659 11.8849 10.4767C11.8708 10.5049 11.8614 10.5377 11.8474 10.5659C11.7534 10.7679 11.6595 10.9745 11.575 11.1812C11.4716 11.4348 11.373 11.6837 11.2885 11.9327C10.8892 13.0693 10.6262 14.234 10.5041 15.4223C10.429 19.2876 12.3076 19.8137 13.4254 20.1237C13.6462 20.1847 14.3037 20.4665 14.3178 20.4665C14.3225 20.4665 14.3366 20.4665 14.3366 20.4665C14.3272 20.49 14.3225 20.5182 14.3131 20.5464C14.2239 20.7906 14.1487 21.0254 14.083 21.2509C14.0783 21.2649 14.0783 21.2743 14.0736 21.2884C14.0219 21.5374 13.9843 21.7722 13.9562 21.9976C13.9468 22.0728 13.9421 22.1479 13.9327 22.2231C13.9186 22.3687 13.9045 22.519 13.8951 22.6552C13.8904 22.7303 13.8904 22.7961 13.8904 22.8712C13.8857 23.0121 13.8904 23.1483 13.8951 23.2798C13.8998 23.3315 13.8998 23.3831 13.9045 23.4301C13.9186 23.6039 13.9374 23.7636 13.9656 23.9139C13.975 23.9186 13.975 23.928 13.9796 23.9327ZM25.5804 19.9546C25.2798 20.9972 24.8431 22.0258 24.2795 23.0121C23.7205 23.9984 23.0583 24.9002 22.3444 25.661C20.0102 27.7698 18.9065 27.0419 18.0188 26.4548C17.7511 26.2763 16.807 25.7409 16.5205 25.6C15.9523 25.3229 15.3041 25.0035 14.9988 24.1581C14.9988 24.1487 14.9988 24.1393 14.9941 24.1346C14.7687 23.4865 14.7687 22.5988 14.9894 21.4998C15.0458 21.3025 15.1115 21.1006 15.182 20.9033C15.2431 20.7248 15.3135 20.537 15.3933 20.335C15.5155 20.0203 15.6517 19.7103 15.7926 19.4098C15.802 19.3863 15.816 19.3581 15.816 19.3581C15.816 19.3581 15.816 19.3581 15.816 19.3534C15.9616 19.0434 16.1166 18.7475 16.281 18.4563C16.4125 18.2262 16.5487 18.0008 16.6896 17.78C16.8352 17.5546 16.9855 17.3338 17.1405 17.1225L17.1452 17.1178C17.1452 17.1178 17.1452 17.1178 17.1452 17.1131C17.4834 16.6481 17.8403 16.2066 18.216 15.8074C18.4086 15.6336 18.6012 15.4693 18.789 15.3143C18.8454 15.2673 18.9018 15.225 18.9534 15.1781C19.0943 15.0653 19.2305 14.9573 19.3667 14.8587C19.4231 14.8164 19.4795 14.7741 19.5358 14.7319C19.6814 14.6285 19.8223 14.5252 19.9632 14.4313C20.0055 14.4031 20.0477 14.3749 20.09 14.3467C20.4611 14.1025 20.818 13.8912 21.1609 13.708C21.2313 13.6704 21.3018 13.6375 21.3675 13.6047C21.4661 13.5577 21.5648 13.506 21.6587 13.4591C21.7761 13.4027 21.8935 13.3511 22.011 13.3041C22.2317 13.2102 22.4477 13.1256 22.645 13.0552L20.6254 19.2313L25.726 15.1029C25.9233 16.2536 25.9937 17.888 25.5804 19.9546Z" fill="black"/>
<path d="M19.5827 15.9389C19.4371 16.0235 16.0461 18.1135 15.8301 22.3311C15.816 22.5894 16.0132 22.8055 16.2715 22.8196C16.2809 22.8196 16.2856 22.8196 16.295 22.8196C16.5392 22.8196 16.7459 22.627 16.76 22.3781C16.9479 18.6677 20.0289 16.7562 20.0617 16.7374C20.2825 16.6059 20.3529 16.3194 20.2214 16.0986C20.0899 15.8779 19.8034 15.8074 19.5827 15.9389Z" fill="black"/>
</g>


</svg>